<svg width="45" height="45" viewBox="0 0 45 45" fill="none" xmlns="http://www.w3.org/2000/svg">
<path d="M15.4688 33.75H29.5312V36.5625H15.4688V33.75Z" fill="white"/>
<path d="M18.2812 39.375H26.7188V42.1875H18.2812V39.375Z" fill="white"/>
<path d="M22.5 2.8125C18.7704 2.8125 15.1935 4.29408 12.5563 6.93131C9.91907 9.56854 8.43749 13.1454 8.43749 16.875C8.34239 18.9188 8.73389 20.9559 9.57978 22.8188C10.4257 24.6817 11.7018 26.3172 13.3031 27.5906C14.7094 28.8984 15.4687 29.6437 15.4687 30.9375H18.2812C18.2812 28.35 16.7203 26.9016 15.2016 25.5094C13.8872 24.5029 12.8397 23.1895 12.1508 21.6842C11.4619 20.1788 11.1526 18.5276 11.25 16.875C11.25 13.8913 12.4353 11.0298 14.545 8.92005C16.6548 6.81026 19.5163 5.625 22.5 5.625C25.4837 5.625 28.3452 6.81026 30.4549 8.92005C32.5647 11.0298 33.75 13.8913 33.75 16.875C33.8458 18.5288 33.5343 20.1809 32.8429 21.6862C32.1515 23.1916 31.1013 24.5044 29.7844 25.5094C28.2797 26.9156 26.7187 28.3219 26.7187 30.9375H29.5312C29.5312 29.6437 30.2766 28.8984 31.6969 27.5766C33.2971 26.3053 34.5726 24.6722 35.4185 22.8118C36.2644 20.9513 36.6565 18.9166 36.5625 16.875C36.5625 15.0283 36.1988 13.1997 35.492 11.4935C34.7853 9.78737 33.7495 8.23713 32.4437 6.93131C31.1379 5.62549 29.5876 4.58965 27.8815 3.88294C26.1753 3.17624 24.3467 2.8125 22.5 2.8125Z" fill="white"/>
</svg>
