<svg width="45" height="52" viewBox="0 0 45 52" fill="none" xmlns="http://www.w3.org/2000/svg">
<path d="M42.1375 24.7535L23.3875 3.2785C23.1533 3.01185 22.8365 2.86218 22.5062 2.86218C22.176 2.86218 21.8592 3.01185 21.625 3.2785L2.875 24.7535C2.67022 25.0274 2.56321 25.3797 2.57536 25.74C2.58751 26.1004 2.71793 26.4422 2.94055 26.6971C3.16316 26.9521 3.46159 27.1015 3.77618 27.1154C4.09078 27.1293 4.39837 27.0067 4.6375 26.7722L22.5 6.31364L40.3625 26.7865C40.6016 27.0211 40.9092 27.1436 41.2238 27.1297C41.5384 27.1158 41.8368 26.9664 42.0595 26.7114C42.2821 26.4565 42.4125 26.1147 42.4246 25.7544C42.4368 25.394 42.3298 25.0417 42.125 24.7679L42.1375 24.7535Z" fill="white"/>
<path d="M35 45.8134H28.75V31.4967H16.25V45.8134H10V25.7701L7.5 28.6334V45.8134C7.5 46.5728 7.76339 47.3011 8.23223 47.8381C8.70107 48.3751 9.33696 48.6768 10 48.6768H18.75V34.3601H26.25V48.6768H35C35.663 48.6768 36.2989 48.3751 36.7678 47.8381C37.2366 47.3011 37.5 46.5728 37.5 45.8134V28.2898L35 25.4265V45.8134Z" fill="white"/>
</svg>
