<svg width="45" height="45" viewBox="0 0 45 45" fill="none" xmlns="http://www.w3.org/2000/svg">
<path fill-rule="evenodd" clip-rule="evenodd" d="M40.7812 5.625H25.3125L24.3281 6.04688L22.5 7.84687L20.6719 6.04688L19.6875 5.625H4.21875L2.8125 7.03125V35.1562L4.21875 36.5625H19.0969L21.5156 38.9531H23.4844L25.9031 36.5625H40.7812L42.1875 35.1562V7.03125L40.7812 5.625ZM21.0938 34.65L20.5875 34.1719L19.6875 33.75H5.625V8.4375H19.0969L21.1781 10.5188L21.0938 34.65ZM39.375 33.75H25.3125L24.3281 34.1719L23.9344 34.5375V10.4062L25.9031 8.4375H39.375V33.75ZM16.875 14.0625H8.4375V16.875H16.875V14.0625ZM16.875 25.3125H8.4375V28.125H16.875V25.3125ZM8.4375 19.6875H16.875V22.5H8.4375V19.6875ZM36.5625 14.0625H28.125V16.875H36.5625V14.0625ZM28.125 19.6875H36.5625V22.5H28.125V19.6875ZM28.125 25.3125H36.5625V28.125H28.125V25.3125Z" fill="white"/>
</svg>
