<svg width="42" height="42" viewBox="0 0 42 42" fill="none" xmlns="http://www.w3.org/2000/svg">
<path d="M18.7162 15.6398V18.0495H16.9522V20.9947H18.7162V29.75H22.3422V20.9947H24.7747C24.7747 20.9947 25.004 19.5825 25.1142 18.0373H22.3562V16.0247C22.3562 15.722 22.7517 15.3178 23.1437 15.3178H25.1177V12.25H22.4315C18.627 12.25 18.7162 15.1988 18.7162 15.6398Z" fill="white"/>
<path d="M10.5 7C9.57174 7 8.6815 7.36875 8.02513 8.02513C7.36875 8.6815 7 9.57174 7 10.5V31.5C7 32.4283 7.36875 33.3185 8.02513 33.9749C8.6815 34.6312 9.57174 35 10.5 35H31.5C32.4283 35 33.3185 34.6312 33.9749 33.9749C34.6312 33.3185 35 32.4283 35 31.5V10.5C35 9.57174 34.6312 8.6815 33.9749 8.02513C33.3185 7.36875 32.4283 7 31.5 7H10.5ZM10.5 3.5H31.5C33.3565 3.5 35.137 4.2375 36.4497 5.55025C37.7625 6.86301 38.5 8.64348 38.5 10.5V31.5C38.5 33.3565 37.7625 35.137 36.4497 36.4497C35.137 37.7625 33.3565 38.5 31.5 38.5H10.5C8.64348 38.5 6.86301 37.7625 5.55025 36.4497C4.2375 35.137 3.5 33.3565 3.5 31.5V10.5C3.5 8.64348 4.2375 6.86301 5.55025 5.55025C6.86301 4.2375 8.64348 3.5 10.5 3.5Z" fill="white"/>
</svg>
