<svg width="258" height="156" viewBox="0 0 258 156" fill="none" xmlns="http://www.w3.org/2000/svg">
<g clip-path="url(#clip0)">
<path d="M9.61 115.53C16.57 123.09 25.7833 126.87 37.25 126.87C48.1833 126.87 57.09 123.333 63.97 116.26C70.85 109.187 74.3267 99.9967 74.4 88.69C74.4 77.5967 70.9233 68.48 63.97 61.34C57.0167 54.2 48.11 50.5967 37.25 50.53C24.29 50.53 14.1 55.6267 6.68 65.82L10.02 68.41C16.5 59.2567 25.5767 54.6833 37.25 54.69C46.7567 54.69 54.65 57.9133 60.93 64.36C67.21 70.8067 70.35 78.9167 70.35 88.69C70.35 98.5367 67.2467 106.65 61.04 113.03C54.7 119.41 46.77 122.6 37.25 122.6C27.0567 122.6 18.8567 119.1 12.65 112.1C8.07861 107.168 5.23862 100.881 4.56 94.19H28.44V89.92H0C0 100.067 3.20333 108.603 9.61 115.53Z" fill="#1D1D1B"/>
<path d="M77.87 125.83V51.57H82.03V121.57H102.93V125.84L77.87 125.83Z" fill="#1D1D1B"/>
<path d="M104.21 75.19C103.33 75.1478 102.488 74.8215 101.81 74.26C101.179 73.5787 100.823 72.6882 100.81 71.76C100.81 69.8933 101.953 68.75 104.24 68.33C105.97 68.33 107.11 69.48 107.67 71.76C107.64 74.03 106.49 75.19 104.21 75.19ZM102.02 125.85V82.85H106.29V125.85H102.02Z" fill="#1D1D1B"/>
<path d="M126.56 127.7L106.28 82.87H110.87L126.48 117.09L142.18 82.87H146.96L126.56 127.7Z" fill="#1D1D1B"/>
<path d="M186.25 124.96V117.57C183.377 121.146 179.461 123.739 175.047 124.989C170.633 126.239 165.94 126.083 161.618 124.544C157.297 123.005 153.561 120.159 150.931 116.4C148.301 112.642 146.906 108.157 146.94 103.57C146.901 100.65 147.447 97.7526 148.547 95.0477C149.646 92.3427 151.276 89.8853 153.341 87.8207C155.405 85.7561 157.863 84.126 160.568 83.0266C163.273 81.9273 166.17 81.381 169.09 81.42C172.379 81.376 175.635 82.0837 178.608 83.4892C181.582 84.8947 184.196 86.9608 186.25 89.53V82H190.52V125L186.25 124.96ZM181.78 90.84C180.141 89.063 178.16 87.6353 175.956 86.6426C173.752 85.6499 171.37 85.1127 168.953 85.0631C166.536 85.0136 164.134 85.4527 161.891 86.3542C159.648 87.2557 157.61 88.6009 155.9 90.3093C154.19 92.0176 152.842 94.0538 151.938 96.2958C151.034 98.5377 150.592 100.939 150.638 103.356C150.685 105.773 151.219 108.156 152.209 110.361C153.2 112.566 154.625 114.549 156.4 116.19C158.054 117.912 160.035 119.287 162.227 120.233C164.419 121.18 166.777 121.68 169.165 121.704C171.552 121.728 173.921 121.276 176.131 120.373C178.341 119.471 180.35 118.136 182.038 116.448C183.726 114.76 185.061 112.751 185.963 110.541C186.866 108.331 187.318 105.962 187.294 103.575C187.27 101.187 186.77 98.8286 185.823 96.6367C184.877 94.4449 183.502 92.464 181.78 90.81V90.84Z" fill="#1D1D1B"/>
<path d="M214.87 88.35C213.786 87.5267 212.595 86.8539 211.33 86.35C210.07 85.8632 208.731 85.6156 207.38 85.62C206.182 85.6276 205.017 86.0125 204.05 86.72C202.997 87.4528 202.083 88.3671 201.35 89.42C200.571 90.5211 199.958 91.7307 199.53 93.01C199.108 94.1784 198.882 95.4081 198.86 96.65V124.94H194.59V81.94H198.86V87.77C199.793 86.1327 200.986 84.657 202.39 83.4C203.671 82.1441 205.386 81.4282 207.18 81.4C208.975 81.3521 210.765 81.5987 212.48 82.13C214.152 82.7784 215.726 83.6533 217.16 84.73L214.87 88.35Z" fill="#1D1D1B"/>
<path d="M247.34 124.96L224.87 102.6L222.47 104.99V124.99H218.2V13.33H222.47V98.85L241.09 80.34H247.09L227.69 99.69L252.95 124.96H247.34Z" fill="#1D1D1B"/>
<path d="M104.02 151.71L104.9 151.44C104.653 150.896 104.517 150.308 104.5 149.71C104.5 149.09 104.42 148.38 104.43 147.57C104.44 146.76 104.43 145.89 104.55 144.95C104.67 144.01 104.68 143.07 104.77 142.09C104.86 141.11 104.95 140.09 105.06 139.18C105.17 138.27 105.27 137.31 105.39 136.42C105.51 135.53 105.61 134.74 105.72 134.03C105.83 133.32 105.92 132.71 106 132.21C106.08 131.71 106.14 131.37 106.17 131.21C106.17 131.21 106.24 131.21 106.38 131.21C106.52 131.21 106.62 131.31 106.62 131.37C106.62 131.43 106.53 131.92 106.45 132.43C106.37 132.94 106.28 133.54 106.17 134.25C106.06 134.96 105.95 135.76 105.84 136.65C105.73 137.54 105.62 138.45 105.52 139.41C105.42 140.37 105.33 141.33 105.24 142.31C105.15 143.29 105.08 144.25 105.03 145.17C104.98 146.09 104.89 146.96 104.89 147.78C104.89 148.6 104.89 149.32 104.95 149.94C104.99 150.26 105.02 150.54 105.04 150.78C105.063 150.985 105.096 151.189 105.14 151.39C106.087 151.13 107.117 150.87 108.23 150.61C109.33 150.34 110.41 150.11 111.45 149.92C112.412 149.731 113.384 149.591 114.36 149.5C115.077 149.408 115.803 149.408 116.52 149.5C116.628 149.528 116.72 149.596 116.78 149.69C116.87 149.8 116.84 149.85 116.7 149.81C116.165 149.758 115.625 149.758 115.09 149.81C114.43 149.81 113.71 149.94 112.92 150.05C112.13 150.16 111.31 150.3 110.46 150.47C109.61 150.64 108.76 150.81 107.95 151C107.14 151.19 106.37 151.39 105.64 151.61C104.91 151.83 104.3 152.01 103.78 152.2C103.778 152.112 103.802 152.024 103.85 151.95C103.901 151.866 103.958 151.786 104.02 151.71Z" fill="#1D1D1B"/>
<path d="M120.52 141.02C120.26 141.51 119.99 141.97 119.73 142.42C119.47 142.87 119.19 143.26 118.92 143.62C118.683 143.936 118.407 144.222 118.1 144.47C117.863 144.666 117.568 144.779 117.26 144.79C117.156 144.789 117.055 144.759 116.968 144.702C116.881 144.645 116.812 144.565 116.77 144.47C116.641 144.203 116.599 143.902 116.65 143.61C116.7 143.02 116.78 142.42 116.89 141.83C117 141.24 117.09 140.63 117.18 140.04C117.18 140.04 117.18 140.04 117.25 140.04L117.39 140.1L117.54 140.19C117.54 140.19 117.6 140.24 117.6 140.26C117.52 140.86 117.42 141.46 117.31 142.05C117.21 142.643 117.14 143.24 117.1 143.84C117.1 144.34 117.1 144.59 117.26 144.59C117.524 144.567 117.771 144.446 117.95 144.25C118.245 143.968 118.507 143.652 118.73 143.31C119.01 142.91 119.3 142.45 119.61 141.92C119.92 141.39 120.24 140.85 120.61 140.26C120.61 139.61 120.69 138.96 120.75 138.26C120.806 137.636 120.896 137.015 121.02 136.4C121.121 135.844 121.261 135.296 121.44 134.76C121.594 134.289 121.812 133.841 122.09 133.43C122.128 133.336 122.189 133.253 122.268 133.189C122.347 133.125 122.44 133.082 122.54 133.064C122.64 133.046 122.743 133.053 122.839 133.086C122.935 133.119 123.022 133.175 123.09 133.25C123.196 133.391 123.269 133.554 123.306 133.727C123.342 133.899 123.34 134.078 123.3 134.25C123.27 134.613 123.22 134.973 123.15 135.33C123.058 135.822 122.931 136.306 122.77 136.78C122.571 137.365 122.341 137.94 122.08 138.5C121.781 139.138 121.447 139.759 121.08 140.36C121.08 140.58 121.08 140.75 121.08 140.85C121.08 140.95 121.08 141.11 121.08 141.36C121.319 141.093 121.592 140.858 121.89 140.66C122.088 140.533 122.309 140.445 122.54 140.4C122.725 140.368 122.916 140.389 123.09 140.46C123.241 140.52 123.375 140.616 123.48 140.74C123.578 140.866 123.647 141.013 123.68 141.17C123.705 141.329 123.705 141.491 123.68 141.65C123.63 142.1 123.461 142.528 123.19 142.89C122.844 143.371 122.409 143.781 121.91 144.1C122.675 143.823 123.388 143.421 124.02 142.91C124.6 142.444 125.112 141.899 125.54 141.29C125.54 141.29 125.63 141.29 125.75 141.29C125.87 141.29 125.93 141.41 125.91 141.45C125.466 142.082 124.949 142.659 124.37 143.17C123.797 143.69 123.113 144.073 122.37 144.29C122.118 144.351 121.859 144.381 121.6 144.38C121.491 144.389 121.382 144.369 121.283 144.322C121.185 144.274 121.101 144.201 121.04 144.11C121.69 143.822 122.255 143.371 122.68 142.8C122.979 142.402 123.181 141.94 123.27 141.45V141.24C123.27 141.14 123.27 141.04 123.27 140.94C123.252 140.85 123.214 140.764 123.16 140.69C123.131 140.656 123.094 140.63 123.051 140.616C123.009 140.602 122.963 140.6 122.92 140.61C122.646 140.668 122.391 140.795 122.18 140.98C121.807 141.272 121.472 141.607 121.18 141.98C121.16 141.99 121.138 141.995 121.115 141.995C121.092 141.995 121.07 141.99 121.05 141.98C121.05 142.6 121.05 143.21 121 143.81C120.95 144.41 120.94 145 120.87 145.59C120.87 145.59 120.87 145.59 120.79 145.59C120.73 145.598 120.67 145.598 120.61 145.59L120.45 145.52C120.433 145.514 120.419 145.503 120.408 145.489C120.397 145.475 120.391 145.458 120.39 145.44C120.482 144.777 120.538 144.109 120.56 143.44C120.46 142.63 120.49 141.84 120.52 141.02ZM117.07 139.32C117.05 139.265 117.05 139.205 117.07 139.15C117.093 139.042 117.145 138.942 117.22 138.86C117.22 138.76 117.28 138.71 117.35 138.71C117.42 138.71 117.63 138.71 117.8 138.84C117.97 138.97 117.94 138.94 117.94 139C117.974 139.056 118.001 139.117 118.02 139.18C118.02 139.26 118.02 139.31 118.02 139.34C118.013 139.404 117.986 139.465 117.943 139.514C117.9 139.562 117.843 139.596 117.78 139.61C117.678 139.63 117.572 139.63 117.47 139.61C117.387 139.591 117.31 139.555 117.241 139.505C117.172 139.455 117.114 139.392 117.07 139.32ZM121.13 139.16C121.406 138.663 121.656 138.153 121.88 137.63C122.076 137.16 122.246 136.679 122.39 136.19C122.512 135.786 122.612 135.375 122.69 134.96C122.745 134.66 122.775 134.355 122.78 134.05C122.776 133.963 122.776 133.877 122.78 133.79C122.79 133.71 122.79 133.63 122.78 133.55C122.78 133.49 122.78 133.46 122.7 133.46C122.62 133.46 122.59 133.52 122.5 133.64C122.256 133.99 122.073 134.379 121.96 134.79C121.81 135.28 121.68 135.79 121.56 136.33C121.44 136.87 121.35 137.39 121.28 137.9C121.21 138.41 121.17 138.83 121.13 139.19V139.16Z" fill="#1D1D1B"/>
<path d="M125.78 139.19C125.78 139.13 125.85 139.13 126 139.19C126.15 139.25 126.23 139.3 126.23 139.35C126.23 139.4 126.18 139.79 126.15 140.07C126.12 140.35 126.07 140.67 126.01 141L126.32 140.7C126.43 140.58 126.56 140.47 126.69 140.35C126.815 140.229 126.952 140.122 127.1 140.03C127.227 139.949 127.361 139.878 127.5 139.82C127.645 139.79 127.795 139.79 127.94 139.82C128.12 139.82 128.22 139.93 128.22 140.05C128.3 140.49 128.37 140.81 128.4 141.05C128.429 141.231 128.501 141.402 128.61 141.55C128.61 141.55 128.75 141.6 128.91 141.55C129.175 141.478 129.426 141.359 129.65 141.2C129.705 141.188 129.762 141.188 129.818 141.2C129.873 141.212 129.925 141.236 129.97 141.27C130.11 141.34 130.15 141.39 130.1 141.42C129.758 141.695 129.328 141.833 128.89 141.81C128.606 141.762 128.348 141.617 128.16 141.4C128.03 141.209 127.935 140.995 127.88 140.77C127.826 140.554 127.795 140.333 127.79 140.11C127.603 140.198 127.429 140.309 127.27 140.44C127.09 140.58 126.91 140.74 126.73 140.9C126.55 141.06 126.39 141.24 126.24 141.41C126.111 141.559 125.991 141.716 125.88 141.88C125.79 142.5 125.71 143.1 125.63 143.68C125.56 144.144 125.52 144.611 125.51 145.08C125.51 145.14 125.43 145.14 125.28 145.08C125.13 145.02 125.06 144.96 125.06 144.89C125.058 143.924 125.142 142.961 125.31 142.01C125.48 141.11 125.63 140.19 125.78 139.19Z" fill="#1D1D1B"/>
<path d="M130.74 142.07C130.411 142.146 130.069 142.146 129.74 142.07C129.686 142.23 129.642 142.394 129.61 142.56C129.61 142.75 129.55 142.94 129.53 143.14C129.5 143.325 129.5 143.515 129.53 143.7C129.558 143.875 129.631 144.04 129.74 144.18C129.766 144.233 129.808 144.277 129.86 144.305C129.912 144.334 129.971 144.346 130.03 144.34C130.379 144.357 130.726 144.274 131.03 144.1C131.403 143.91 131.764 143.696 132.11 143.46C132.648 143.098 133.153 142.69 133.62 142.24C133.959 141.935 134.271 141.601 134.55 141.24C134.55 141.24 134.64 141.24 134.77 141.24C134.9 141.24 134.96 141.34 134.94 141.39C134.67 141.752 134.365 142.087 134.03 142.39C133.578 142.849 133.086 143.267 132.56 143.64C132.201 143.889 131.819 144.103 131.42 144.28C131.105 144.425 130.766 144.509 130.42 144.53C130.217 144.546 130.014 144.51 129.828 144.426C129.643 144.342 129.482 144.213 129.36 144.05C129.152 143.76 129.053 143.406 129.08 143.05C129.108 142.208 129.414 141.399 129.95 140.75C130.2 140.483 130.518 140.289 130.87 140.19C131.037 140.148 131.208 140.128 131.38 140.13C131.547 140.134 131.711 140.175 131.86 140.25C131.98 140.307 132.079 140.402 132.14 140.52C132.163 140.593 132.17 140.67 132.161 140.745C132.153 140.821 132.128 140.894 132.09 140.96C131.96 141.222 131.768 141.449 131.53 141.62C131.287 141.803 131.021 141.954 130.74 142.07ZM129.83 141.88C129.992 141.879 130.153 141.859 130.31 141.82C130.596 141.713 130.866 141.564 131.11 141.38C131.346 141.222 131.535 141.005 131.66 140.75C131.716 140.711 131.756 140.653 131.771 140.586C131.786 140.519 131.775 140.449 131.74 140.39C131.74 140.39 131.66 140.33 131.53 140.39H131.29C130.963 140.5 130.67 140.693 130.44 140.95C130.208 141.232 130.016 141.545 129.87 141.88H129.83Z" fill="#1D1D1B"/>
<path d="M140.87 146.19C140.818 146.203 140.764 146.203 140.712 146.191C140.659 146.179 140.611 146.154 140.57 146.12C140.44 146.04 140.4 146 140.48 145.98C140.733 145.881 140.96 145.724 141.14 145.52C141.453 145.201 141.75 144.868 142.03 144.52C142.35 144.09 142.71 143.6 143.09 143.04C143.47 142.48 143.86 141.88 144.27 141.25L141.96 141.46L140.61 141.57C140.484 141.56 140.362 141.515 140.26 141.44C140.14 141.36 140.13 141.32 140.26 141.32C140.39 141.32 141.04 141.32 141.82 141.21C142.6 141.1 143.49 141.05 144.5 140.93C145.14 139.93 145.78 138.86 146.44 137.76C147.1 136.66 147.69 135.65 148.24 134.76C148.79 133.87 149.35 132.91 149.75 132.25C149.946 131.879 150.199 131.542 150.5 131.25C150.66 131.14 150.8 131.25 150.92 131.41C150.977 131.835 150.977 132.265 150.92 132.69C150.92 133.43 150.85 134.36 150.78 135.49C150.72 136.21 150.68 136.97 150.64 137.78C150.6 138.59 150.56 139.42 150.51 140.28C151.29 140.16 151.957 140.05 152.51 139.95C152.85 139.904 153.184 139.827 153.51 139.72C153.51 139.72 153.64 139.72 153.78 139.78C153.92 139.84 153.97 139.92 153.94 139.97C153.57 140.082 153.192 140.165 152.81 140.22L150.57 140.56C150.57 141.65 150.51 142.72 150.5 143.79C150.49 144.86 150.5 145.79 150.57 146.73C150.606 147.502 150.696 148.271 150.84 149.03C150.892 149.513 151.075 149.973 151.37 150.36C151.417 150.44 151.377 150.46 151.25 150.42C151.173 150.414 151.099 150.389 151.033 150.35C150.967 150.31 150.911 150.255 150.87 150.19C150.579 149.807 150.389 149.356 150.32 148.88C150.173 148.134 150.076 147.379 150.03 146.62C149.97 145.747 149.94 144.787 149.94 143.74C149.94 142.74 149.94 141.64 150.02 140.56C149.15 140.69 148.29 140.8 147.43 140.89L144.87 141.19L143.64 143.08C143.24 143.68 142.87 144.21 142.52 144.66C142.237 145.051 141.919 145.416 141.57 145.75C141.369 145.942 141.131 146.092 140.87 146.19ZM148.67 134.89C148.14 135.79 147.57 136.77 146.95 137.8C146.33 138.83 145.71 139.86 145.09 140.85L150.09 140.24C150.09 139.327 150.13 138.447 150.21 137.6C150.21 136.74 150.29 135.94 150.33 135.18L150.51 131.87L149.74 133.09C149.39 133.64 149.03 134.19 148.64 134.92L148.67 134.89Z" fill="#1D1D1B"/>
<path d="M154.24 139.19C154.24 139.13 154.31 139.13 154.47 139.19C154.63 139.25 154.69 139.3 154.69 139.35C154.69 139.4 154.69 139.79 154.61 140.07C154.53 140.35 154.53 140.67 154.48 141L154.78 140.7L155.16 140.35C155.283 140.226 155.42 140.119 155.57 140.03C155.694 139.949 155.824 139.879 155.96 139.82C156.105 139.79 156.255 139.79 156.4 139.82C156.59 139.82 156.68 139.93 156.68 140.05C156.77 140.49 156.83 140.81 156.87 141.05C156.893 141.233 156.965 141.406 157.08 141.55C157.08 141.55 157.21 141.6 157.37 141.55C157.637 141.481 157.888 141.363 158.11 141.2C158.165 141.188 158.222 141.188 158.278 141.2C158.333 141.212 158.385 141.236 158.43 141.27C158.57 141.34 158.62 141.39 158.56 141.42C158.222 141.695 157.795 141.834 157.36 141.81C157.076 141.765 156.817 141.619 156.63 141.4C156.492 141.213 156.396 140.998 156.35 140.77C156.296 140.554 156.265 140.333 156.26 140.11C156.072 140.195 155.897 140.306 155.74 140.44C155.55 140.58 155.37 140.74 155.19 140.9C155.01 141.06 154.85 141.24 154.7 141.41C154.57 141.557 154.453 141.714 154.35 141.88C154.26 142.5 154.17 143.1 154.09 143.68C154.02 144.144 153.98 144.611 153.97 145.08C153.97 145.14 153.9 145.14 153.75 145.08C153.6 145.02 153.52 144.96 153.52 144.89C153.521 143.924 153.608 142.96 153.78 142.01C153.94 141.11 154.1 140.19 154.24 139.19Z" fill="#1D1D1B"/>
<path d="M160.77 140.61L160.87 140.04C160.886 140.029 160.905 140.024 160.925 140.024C160.945 140.024 160.964 140.029 160.98 140.04L161.14 140.1C161.191 140.128 161.238 140.161 161.28 140.2C161.33 140.2 161.34 140.26 161.28 140.28C161.09 141.14 160.92 141.84 160.78 142.37C160.64 142.9 160.52 143.37 160.43 143.91C160.651 143.737 160.862 143.55 161.06 143.35C161.3 143.12 161.54 142.88 161.77 142.63C162 142.38 162.23 142.13 162.44 141.89C162.605 141.702 162.749 141.498 162.87 141.28C162.87 141.28 162.93 141.28 162.98 141.28L163.14 141.33C163.189 141.355 163.233 141.389 163.27 141.43C163.27 141.43 163.32 141.49 163.27 141.5C163.128 141.735 162.964 141.956 162.78 142.16C162.52 142.47 162.23 142.78 161.92 143.09C161.61 143.4 161.28 143.71 160.92 143.98C160.709 144.185 160.466 144.354 160.2 144.48C160.37 145.2 160.52 145.97 160.65 146.78C160.78 147.59 160.85 148.37 160.89 149.11V149.78C160.892 150.09 160.855 150.399 160.78 150.7C160.741 150.902 160.627 151.081 160.46 151.2C160.32 151.27 160.11 151.14 159.82 150.81C159.568 150.361 159.402 149.87 159.33 149.36C159.25 148.811 159.22 148.255 159.24 147.7C159.258 147.144 159.312 146.589 159.4 146.04C159.49 145.5 159.58 145.04 159.69 144.55C159.8 144.06 159.93 143.63 160.02 143.21C160.11 142.79 160.21 142.37 160.3 141.96L159.8 142.59C159.631 142.797 159.444 142.988 159.24 143.16C159.099 143.303 158.933 143.418 158.75 143.5C158.637 143.552 158.515 143.583 158.39 143.59C158.281 143.599 158.172 143.581 158.071 143.54C157.97 143.498 157.881 143.433 157.81 143.35C157.682 143.196 157.614 143 157.62 142.8C157.628 142.53 157.669 142.261 157.74 142C157.819 141.687 157.944 141.387 158.11 141.11C158.267 140.843 158.474 140.608 158.72 140.42C158.838 140.329 158.973 140.263 159.118 140.227C159.263 140.191 159.413 140.185 159.56 140.21C159.995 140.215 160.418 140.355 160.77 140.61ZM160.58 140.91C160.555 140.762 160.476 140.628 160.357 140.535C160.239 140.443 160.09 140.398 159.94 140.41C159.654 140.403 159.376 140.503 159.16 140.69C158.94 140.882 158.757 141.112 158.62 141.37C158.48 141.633 158.372 141.911 158.3 142.2C158.236 142.438 158.199 142.683 158.19 142.93C158.19 143.09 158.19 143.2 158.26 143.23C158.286 143.245 158.315 143.253 158.345 143.253C158.375 143.253 158.404 143.245 158.43 143.23C158.514 143.196 158.591 143.149 158.66 143.09L158.91 142.87C159.237 142.564 159.534 142.23 159.8 141.87C160.07 141.6 160.33 141.26 160.58 140.91ZM160.13 145.42C160.009 146.044 159.929 146.675 159.89 147.31C159.84 147.929 159.84 148.551 159.89 149.17C159.89 149.26 159.89 149.41 159.95 149.62C160.01 149.83 160.02 150.04 160.06 150.22C160.089 150.379 160.139 150.534 160.21 150.68C160.21 150.79 160.31 150.8 160.36 150.68C160.516 150.117 160.57 149.532 160.52 148.95C160.506 148.354 160.453 147.759 160.36 147.17C160.31 146.59 160.22 146 160.13 145.42Z" fill="#1D1D1B"/>
<path d="M162.87 141.25C162.87 141.25 162.87 141.25 162.94 141.25H163.1C163.16 141.263 163.218 141.287 163.27 141.32C163.33 141.32 163.35 141.38 163.35 141.41C163.367 141.763 163.334 142.117 163.25 142.46C163.165 142.786 163.145 143.126 163.19 143.46C163.23 143.7 163.33 143.75 163.49 143.61C163.739 143.369 163.963 143.105 164.16 142.82C164.403 142.498 164.63 142.164 164.84 141.82C165.05 141.45 165.24 141.1 165.4 140.76C165.56 140.42 165.68 140.14 165.77 139.91C165.77 139.91 165.77 139.91 165.85 139.91H166.01L166.15 139.99C166.2 139.99 166.22 140.05 166.22 140.06C166.156 140.205 166.106 140.356 166.07 140.51C166.07 140.7 165.99 140.88 165.95 141.08C165.91 141.28 165.89 141.47 165.86 141.65C165.83 141.83 165.81 141.99 165.79 142.13C165.79 142.49 165.71 142.86 165.66 143.25C165.6 143.614 165.6 143.986 165.66 144.35C165.66 144.503 165.73 144.553 165.87 144.5C166.016 144.409 166.141 144.29 166.24 144.15C166.449 143.888 166.643 143.614 166.82 143.33C167.04 143 167.23 142.67 167.41 142.33C167.59 141.99 167.79 141.65 168.02 141.21C168.02 141.21 168.11 141.21 168.26 141.21C168.41 141.21 168.46 141.32 168.44 141.38L168.19 141.86C168.08 142.09 167.94 142.34 167.78 142.62C167.62 142.9 167.45 143.19 167.27 143.47C167.113 143.74 166.936 143.997 166.74 144.24C166.534 144.572 166.214 144.817 165.84 144.93C165.54 144.99 165.35 144.75 165.26 144.22C165.189 143.797 165.172 143.367 165.21 142.94C165.21 142.51 165.29 142.1 165.34 141.7L164.94 142.35C164.762 142.64 164.568 142.92 164.36 143.19C164.173 143.424 163.946 143.624 163.69 143.78C163.582 143.843 163.456 143.869 163.332 143.855C163.207 143.84 163.091 143.786 163 143.7C162.898 143.619 162.817 143.516 162.763 143.397C162.709 143.279 162.684 143.15 162.69 143.02C162.684 142.684 162.717 142.348 162.79 142.02C162.858 141.769 162.885 141.509 162.87 141.25Z" fill="#1D1D1B"/>
<path d="M172.87 138.34C172.81 138.601 172.733 138.858 172.64 139.11C172.55 139.4 172.46 139.7 172.38 140C172.3 140.3 172.23 140.6 172.17 140.88C172.106 141.135 172.072 141.397 172.07 141.66C172.07 142.52 172.04 143.29 171.98 143.97C171.944 144.485 171.974 145.003 172.07 145.51C172.13 145.7 172.18 145.8 172.22 145.82C172.26 145.84 172.37 145.82 172.55 145.67C172.896 145.417 173.206 145.117 173.47 144.78C173.79 144.38 174.11 143.95 174.42 143.5C174.73 143.05 175.01 142.61 175.27 142.2C175.53 141.79 175.73 141.47 175.89 141.25C175.89 141.25 175.95 141.25 176 141.25C176.053 141.241 176.107 141.241 176.16 141.25C176.21 141.274 176.257 141.304 176.3 141.34C176.35 141.34 176.36 141.41 176.3 141.42L175.59 142.52C175.29 143 174.96 143.52 174.59 143.98C174.268 144.441 173.917 144.882 173.54 145.3C173.292 145.622 172.965 145.873 172.59 146.03C172.503 146.073 172.408 146.097 172.311 146.099C172.214 146.102 172.117 146.083 172.029 146.044C171.94 146.004 171.861 145.946 171.797 145.873C171.733 145.8 171.686 145.713 171.66 145.62C171.581 145.436 171.537 145.24 171.53 145.04C171.53 144.79 171.53 144.49 171.53 144.15C171.53 143.81 171.53 143.42 171.53 143C171.53 142.58 171.53 142.14 171.53 141.67C171.28 142 170.97 142.38 170.6 142.8C170.263 143.179 169.902 143.537 169.52 143.87C168.96 144.33 168.52 144.49 168.16 144.36C167.8 144.23 167.67 143.85 167.7 143.22C167.73 142.59 167.83 142.03 167.94 141.43C168.05 140.83 168.14 140.24 168.23 139.65C168.23 139.65 168.23 139.65 168.3 139.65C168.346 139.643 168.394 139.643 168.44 139.65L168.59 139.75L168.65 139.81C168.56 140.42 168.47 141.02 168.37 141.61C168.27 142.2 168.2 142.79 168.15 143.4C168.128 143.593 168.128 143.787 168.15 143.98C168.15 144.09 168.23 144.15 168.31 144.15C168.424 144.133 168.532 144.085 168.62 144.01L169.09 143.65C169.342 143.43 169.583 143.196 169.81 142.95C170.07 142.67 170.31 142.41 170.53 142.15C170.75 141.89 170.94 141.65 171.12 141.42C171.3 141.19 171.43 141.02 171.52 140.9C171.517 140.539 171.534 140.179 171.57 139.82C171.57 139.45 171.65 139.07 171.7 138.68C171.13 138.88 170.57 139.05 170 139.19C169.43 139.33 168.88 139.46 168.33 139.56C168.115 139.599 167.895 139.599 167.68 139.56C167.55 139.56 167.47 139.46 167.46 139.38C167.45 139.3 167.46 139.22 167.72 139.16C167.92 139.137 168.122 139.176 168.3 139.27H168.36C168.92 139.15 169.49 139 170.05 138.83C170.61 138.66 171.19 138.46 171.75 138.25C171.8 137.81 171.86 137.38 171.92 136.97C171.98 136.56 172.05 136.17 172.11 135.83C172.17 135.49 172.23 135.2 172.3 134.95L172.44 134.39C172.467 134.311 172.516 134.241 172.582 134.19C172.648 134.138 172.727 134.107 172.81 134.1C172.854 134.091 172.899 134.091 172.943 134.1C172.987 134.109 173.029 134.127 173.066 134.152C173.103 134.177 173.135 134.209 173.16 134.246C173.185 134.284 173.202 134.326 173.21 134.37C173.236 134.726 173.236 135.084 173.21 135.44C173.149 136.263 173.035 137.081 172.87 137.89C173.589 137.585 174.323 137.318 175.07 137.09C175.785 136.873 176.513 136.699 177.25 136.57C177.854 136.44 178.475 136.406 179.09 136.47C179.5 136.54 179.74 136.68 179.79 136.89C179.84 137.1 179.79 137.1 179.66 137.11C179.564 137.124 179.465 137.106 179.38 137.06C179.236 136.981 179.107 136.876 179 136.75C178.569 136.663 178.123 136.68 177.7 136.8C176.884 136.935 176.081 137.139 175.3 137.41L172.87 138.34ZM168.23 138.93C168.23 138.93 168.23 138.85 168.23 138.76C168.247 138.655 168.296 138.557 168.37 138.48C168.37 138.37 168.43 138.32 168.51 138.32C168.59 138.32 168.78 138.32 168.96 138.46C169.14 138.6 169.09 138.55 169.09 138.61C169.126 138.669 169.153 138.733 169.17 138.8C169.176 138.853 169.176 138.907 169.17 138.96C169.159 139.023 169.131 139.082 169.089 139.13C169.046 139.177 168.991 139.212 168.93 139.23C168.824 139.24 168.716 139.24 168.61 139.23C168.533 139.207 168.461 139.168 168.399 139.117C168.338 139.065 168.287 139.002 168.25 138.93H168.23ZM172.87 135.26C172.767 135.669 172.687 136.083 172.63 136.5C172.56 136.99 172.48 137.5 172.39 138.07C172.53 137.5 172.64 136.97 172.71 136.48C172.78 135.99 172.87 135.59 172.87 135.26Z" fill="#1D1D1B"/>
<path d="M177.03 142.07C176.701 142.147 176.359 142.147 176.03 142.07C175.968 142.228 175.921 142.393 175.89 142.56C175.89 142.75 175.83 142.94 175.81 143.14C175.79 143.326 175.79 143.514 175.81 143.7C175.843 143.874 175.915 144.038 176.02 144.18C176.047 144.232 176.089 144.275 176.141 144.304C176.192 144.332 176.251 144.345 176.31 144.34C176.66 144.358 177.007 144.275 177.31 144.1C177.684 143.912 178.045 143.698 178.39 143.46C178.928 143.098 179.433 142.69 179.9 142.24C180.24 141.935 180.551 141.601 180.83 141.24C180.83 141.24 180.92 141.24 181.05 141.24C181.18 141.24 181.24 141.34 181.23 141.39C180.952 141.749 180.644 142.083 180.31 142.39C179.858 142.849 179.366 143.267 178.84 143.64C178.483 143.891 178.101 144.106 177.7 144.28C177.385 144.425 177.046 144.51 176.7 144.53C176.497 144.546 176.294 144.51 176.109 144.426C175.923 144.342 175.762 144.213 175.64 144.05C175.432 143.76 175.333 143.406 175.36 143.05C175.388 142.208 175.694 141.399 176.23 140.75C176.476 140.445 176.806 140.219 177.18 140.1C177.347 140.059 177.518 140.039 177.69 140.04C177.857 140.044 178.021 140.085 178.17 140.16C178.29 140.217 178.389 140.312 178.45 140.43C178.475 140.502 178.484 140.58 178.475 140.656C178.467 140.732 178.441 140.805 178.4 140.87C178.273 141.134 178.08 141.362 177.84 141.53C177.596 141.746 177.324 141.928 177.03 142.07ZM176.13 141.88C176.288 141.879 176.446 141.859 176.6 141.82C176.886 141.713 177.156 141.564 177.4 141.38C177.636 141.219 177.828 141.003 177.96 140.75C178.015 140.71 178.053 140.651 178.068 140.585C178.082 140.519 178.073 140.45 178.04 140.39C178.04 140.39 177.95 140.33 177.82 140.39H177.58C177.255 140.498 176.965 140.692 176.74 140.95C176.487 141.224 176.281 141.539 176.13 141.88Z" fill="#1D1D1B"/>
<path d="M187.16 138.34C187.16 138.57 187.03 138.83 186.94 139.11C186.85 139.39 186.75 139.7 186.67 140C186.59 140.3 186.52 140.6 186.46 140.88C186.404 141.136 186.374 141.398 186.37 141.66C186.37 142.52 186.3 143.29 186.27 143.97C186.236 144.485 186.269 145.003 186.37 145.51C186.42 145.7 186.47 145.8 186.51 145.82C186.55 145.84 186.67 145.82 186.84 145.67C187.188 145.42 187.498 145.12 187.76 144.78C188.09 144.38 188.4 143.95 188.76 143.5C189.12 143.05 189.36 142.61 189.61 142.2C189.86 141.79 190.08 141.47 190.24 141.25C190.24 141.25 190.29 141.25 190.34 141.25C190.393 141.241 190.447 141.241 190.5 141.25L190.65 141.34C190.65 141.34 190.7 141.41 190.65 141.42C190.47 141.68 190.23 142.05 189.93 142.52C189.63 142.99 189.31 143.52 188.93 143.98C188.611 144.444 188.26 144.885 187.88 145.3C187.632 145.622 187.305 145.873 186.93 146.03C186.843 146.073 186.748 146.097 186.651 146.099C186.554 146.102 186.457 146.083 186.369 146.044C186.28 146.004 186.201 145.946 186.137 145.873C186.073 145.8 186.027 145.713 186 145.62C185.92 145.433 185.876 145.233 185.87 145.03C185.87 144.77 185.87 144.47 185.87 144.12C185.87 143.77 185.87 143.39 185.87 142.95C185.87 142.51 185.87 142.07 185.87 141.6C185.46 142.137 184.994 142.63 184.48 143.07C184.003 143.522 183.46 143.9 182.87 144.19C182.597 144.308 182.306 144.379 182.01 144.4C181.7 144.406 181.394 144.334 181.12 144.19C180.871 144.073 180.664 143.88 180.53 143.64C180.412 143.421 180.347 143.178 180.34 142.93C180.33 142.671 180.371 142.413 180.46 142.17C180.543 141.925 180.64 141.684 180.75 141.45C180.84 141.28 180.94 141.1 181.06 140.91C181.169 140.725 181.297 140.551 181.44 140.39C181.581 140.233 181.742 140.095 181.92 139.98C182.096 139.869 182.294 139.797 182.5 139.77C182.612 139.772 182.723 139.789 182.83 139.82C182.953 139.861 183.06 139.938 183.14 140.04C183.22 140.154 183.255 140.292 183.24 140.43C183.24 140.49 183.17 140.49 183.02 140.43C182.87 140.37 182.79 140.31 182.79 140.23C182.79 140.15 182.79 140.05 182.79 140.05C182.722 140.058 182.657 140.082 182.6 140.12C182.295 140.284 182.029 140.513 181.82 140.79C181.631 141.054 181.46 141.332 181.31 141.62C181.22 141.83 181.13 142.06 181.04 142.32C180.952 142.562 180.895 142.814 180.87 143.07C180.84 143.288 180.857 143.509 180.92 143.72C180.95 143.812 181.003 143.895 181.075 143.96C181.147 144.025 181.235 144.07 181.33 144.09C181.505 144.172 181.702 144.193 181.89 144.15C182.119 144.106 182.34 144.032 182.55 143.93C183.284 143.615 183.96 143.179 184.55 142.64C185.093 142.134 185.579 141.571 186 140.96C186.001 140.603 186.021 140.245 186.06 139.89C186.06 139.53 186.14 139.15 186.19 138.76C185.62 138.96 185.06 139.13 184.49 139.27C183.92 139.41 183.37 139.54 182.82 139.64C182.605 139.679 182.385 139.679 182.17 139.64C182.04 139.64 181.96 139.54 181.95 139.46C181.94 139.38 181.95 139.3 182.21 139.24C182.41 139.217 182.612 139.256 182.79 139.35H182.85C183.41 139.23 183.98 139.08 184.55 138.91C185.12 138.74 185.68 138.54 186.24 138.33C186.3 137.89 186.35 137.46 186.42 137.05C186.49 136.64 186.54 136.25 186.6 135.91C186.66 135.57 186.72 135.28 186.79 135.03C186.86 134.78 186.9 134.59 186.93 134.47C186.958 134.392 187.008 134.323 187.073 134.271C187.138 134.22 187.217 134.188 187.3 134.18C187.344 134.171 187.389 134.171 187.433 134.18C187.477 134.189 187.519 134.207 187.556 134.232C187.593 134.257 187.625 134.289 187.65 134.326C187.675 134.364 187.692 134.406 187.7 134.45C187.723 134.806 187.723 135.164 187.7 135.52C187.635 136.343 187.518 137.161 187.35 137.97C188.069 137.667 188.804 137.4 189.55 137.17C190.266 136.954 190.994 136.78 191.73 136.65C192.334 136.52 192.955 136.487 193.57 136.55C193.99 136.62 194.22 136.76 194.27 136.97C194.32 137.18 194.27 137.18 194.14 137.19C194.044 137.204 193.945 137.186 193.86 137.14C193.716 137.061 193.587 136.956 193.48 136.83C193.049 136.743 192.603 136.76 192.18 136.88C191.365 137.017 190.562 137.221 189.78 137.49L187.16 138.34ZM187.16 135.26C187.08 135.6 187 136.02 186.93 136.5C186.86 136.98 186.78 137.5 186.69 138.07C186.83 137.5 186.93 136.97 187.01 136.48C187.09 135.99 187.1 135.59 187.13 135.26H187.16Z" fill="#1D1D1B"/>
<path d="M190.18 141.25C190.18 141.25 190.18 141.25 190.25 141.25H190.41C190.47 141.263 190.528 141.287 190.58 141.32C190.64 141.32 190.66 141.38 190.66 141.41C190.677 141.763 190.644 142.117 190.56 142.46C190.475 142.786 190.455 143.126 190.5 143.46C190.54 143.7 190.64 143.75 190.8 143.61C191.049 143.369 191.273 143.105 191.47 142.82C191.713 142.498 191.94 142.164 192.15 141.82C192.36 141.45 192.55 141.1 192.71 140.76C192.87 140.42 192.99 140.14 193.08 139.91C193.08 139.91 193.08 139.91 193.16 139.91H193.32L193.46 139.99C193.46 139.99 193.53 140.05 193.53 140.06C193.466 140.205 193.416 140.356 193.38 140.51L193.26 141.08C193.26 141.28 193.23 141.47 193.17 141.65C193.17 141.83 193.12 141.99 193.1 142.13C193.1 142.49 193.02 142.86 192.97 143.25C192.91 143.614 192.91 143.986 192.97 144.35C192.97 144.503 193.04 144.553 193.18 144.5C193.326 144.409 193.451 144.29 193.55 144.15C193.759 143.888 193.953 143.614 194.13 143.33C194.35 143 194.54 142.67 194.72 142.33C194.9 141.99 195.1 141.65 195.33 141.21C195.33 141.21 195.41 141.21 195.57 141.21C195.71 141.27 195.77 141.32 195.75 141.38L195.5 141.86C195.39 142.09 195.25 142.34 195.09 142.62C194.93 142.9 194.76 143.19 194.58 143.47C194.423 143.74 194.246 143.997 194.05 144.24C193.844 144.572 193.524 144.817 193.15 144.93C192.85 144.99 192.66 144.75 192.57 144.22C192.515 143.795 192.515 143.365 192.57 142.94C192.57 142.51 192.65 142.1 192.7 141.7L192.3 142.35C192.122 142.64 191.928 142.92 191.72 143.19C191.533 143.424 191.306 143.624 191.05 143.78C190.942 143.843 190.816 143.869 190.692 143.855C190.567 143.84 190.451 143.786 190.36 143.7C190.258 143.619 190.177 143.516 190.123 143.397C190.069 143.279 190.044 143.15 190.05 143.02C190.044 142.684 190.077 142.348 190.15 142.02C190.201 141.767 190.211 141.507 190.18 141.25Z" fill="#1D1D1B"/>
<path d="M195.7 139.19C195.7 139.13 195.78 139.13 195.93 139.19C196.08 139.25 196.15 139.3 196.15 139.35C196.15 139.4 196.15 139.79 196.07 140.07C195.99 140.35 195.99 140.67 195.94 141L196.25 140.7C196.36 140.58 196.49 140.47 196.62 140.35C196.745 140.229 196.882 140.122 197.03 140.03C197.156 139.947 197.29 139.876 197.43 139.82C197.575 139.789 197.725 139.789 197.87 139.82C198.05 139.82 198.14 139.93 198.14 140.05C198.23 140.49 198.29 140.81 198.33 141.05C198.353 141.233 198.425 141.406 198.54 141.55C198.54 141.55 198.67 141.6 198.83 141.55C199.099 141.48 199.353 141.361 199.58 141.2C199.65 141.2 199.75 141.2 199.89 141.27C200.03 141.34 200.08 141.39 200.03 141.42C199.688 141.695 199.258 141.833 198.82 141.81C198.536 141.762 198.278 141.617 198.09 141.4C197.956 141.211 197.86 140.997 197.81 140.77C197.756 140.554 197.725 140.333 197.72 140.11C197.533 140.198 197.359 140.309 197.2 140.44C197.02 140.58 196.83 140.74 196.66 140.9C196.49 141.06 196.32 141.24 196.17 141.41C196.041 141.559 195.921 141.716 195.81 141.88C195.72 142.5 195.64 143.1 195.56 143.68C195.49 144.144 195.45 144.611 195.44 145.08C195.44 145.14 195.36 145.14 195.21 145.08C195.06 145.02 194.99 144.96 194.99 144.89C194.988 143.924 195.072 142.961 195.24 142.01C195.41 141.11 195.56 140.19 195.7 139.19Z" fill="#1D1D1B"/>
<path d="M202.26 140.02C202.26 140.02 202.26 140.02 202.33 140.02C202.392 140.027 202.453 140.044 202.51 140.07C202.568 140.09 202.623 140.121 202.67 140.16C202.67 140.16 202.73 140.22 202.73 140.24L202.52 141.62C202.47 142.01 202.41 142.4 202.35 142.79C202.29 143.18 202.25 143.52 202.23 143.79C202.195 143.995 202.195 144.205 202.23 144.41C202.23 144.53 202.29 144.59 202.41 144.59C202.533 144.576 202.648 144.523 202.74 144.44L203.23 144.07C203.503 143.848 203.757 143.604 203.99 143.34C204.25 143.05 204.48 142.77 204.71 142.49C204.94 142.21 205.12 141.95 205.29 141.72C205.46 141.49 205.57 141.32 205.62 141.23C205.67 141.14 205.74 141.23 205.89 141.28C206.04 141.33 206.08 141.41 206.05 141.45L205.67 141.93C205.5 142.16 205.29 142.41 205.06 142.68C204.83 142.95 204.59 143.23 204.33 143.51C204.103 143.77 203.852 144.008 203.58 144.22C203.444 144.334 203.301 144.437 203.15 144.53C203.007 144.626 202.848 144.694 202.68 144.73C202.533 144.77 202.377 144.77 202.23 144.73C202.069 144.684 201.932 144.576 201.85 144.43C201.756 144.174 201.722 143.901 201.75 143.63C201.75 143.357 201.79 143.047 201.87 142.7C201.93 142.36 201.98 142.01 202.01 141.7C201.821 141.961 201.617 142.212 201.4 142.45C201.183 142.696 200.952 142.929 200.71 143.15C200.497 143.387 200.206 143.54 199.89 143.58C199.781 143.589 199.672 143.571 199.571 143.53C199.47 143.488 199.381 143.423 199.31 143.34C199.179 143.179 199.112 142.977 199.12 142.77C199.131 142.502 199.175 142.237 199.25 141.98C199.341 141.672 199.468 141.377 199.63 141.1C199.777 140.826 199.986 140.589 200.24 140.41C200.358 140.319 200.494 140.254 200.638 140.218C200.783 140.182 200.933 140.176 201.08 140.2C201.279 140.229 201.474 140.282 201.66 140.36C201.84 140.437 202.012 140.534 202.17 140.65C202.17 140.55 202.17 140.45 202.17 140.35C202.206 140.242 202.236 140.132 202.26 140.02ZM202.02 140.91C202.003 140.817 201.961 140.73 201.9 140.658C201.838 140.586 201.759 140.532 201.67 140.5C201.524 140.401 201.345 140.361 201.17 140.39C200.918 140.443 200.69 140.576 200.52 140.77C200.308 140.983 200.132 141.23 200 141.5C199.866 141.756 199.756 142.024 199.67 142.3C199.599 142.502 199.568 142.716 199.58 142.93C199.583 142.992 199.602 143.052 199.635 143.105C199.669 143.158 199.715 143.201 199.77 143.23C199.87 143.23 200.05 143.16 200.32 142.9C200.644 142.589 200.945 142.255 201.22 141.9C201.5 141.58 201.77 141.24 202.02 140.91Z" fill="#1D1D1B"/>
<path d="M214.87 140.19C214.87 140.4 214.87 140.8 214.87 141.4C214.87 142 214.79 142.7 214.72 143.5C215.087 143.24 215.467 142.99 215.86 142.75C216.269 142.497 216.693 142.27 217.13 142.07C217.181 142.058 217.235 142.057 217.286 142.068C217.338 142.078 217.387 142.099 217.43 142.13C217.55 142.2 217.59 142.24 217.56 142.27C217.034 142.531 216.523 142.822 216.03 143.14C215.56 143.44 215.12 143.76 214.69 144.09C214.64 145.72 214.56 147.36 214.45 148.99C214.406 150.297 214.17 151.591 213.75 152.83C213.52 153.587 213.104 154.275 212.54 154.83C212.359 154.995 212.141 155.114 211.904 155.179C211.668 155.243 211.42 155.25 211.18 155.2C210.72 155.108 210.314 154.839 210.05 154.45C209.715 153.948 209.528 153.363 209.51 152.76C209.449 151.888 209.572 151.012 209.87 150.19C210.275 148.999 210.841 147.869 211.55 146.83C212.284 145.755 213.162 144.786 214.16 143.95C214.16 143.42 214.23 142.95 214.26 142.44C214.29 141.93 214.31 141.54 214.35 141.18C214.038 141.757 213.663 142.297 213.23 142.79C213.012 143.066 212.763 143.318 212.49 143.54C212.306 143.704 212.075 143.806 211.83 143.83C211.644 143.836 211.46 143.781 211.308 143.672C211.157 143.564 211.045 143.408 210.99 143.23C210.874 142.821 210.827 142.395 210.85 141.97C210.85 141.87 210.85 141.73 210.85 141.57C210.85 141.41 210.85 141.25 210.91 141.09C210.97 140.93 210.91 140.76 210.91 140.61C210.922 140.49 210.922 140.37 210.91 140.25C210.91 140.25 210.91 140.25 211.11 140.25C211.31 140.25 211.35 140.35 211.36 140.43C211.381 140.656 211.381 140.884 211.36 141.11C211.36 141.44 211.36 141.79 211.3 142.11C211.28 142.443 211.28 142.777 211.3 143.11C211.3 143.4 211.38 143.54 211.49 143.54C211.708 143.516 211.911 143.421 212.07 143.27C212.334 143.052 212.576 142.807 212.79 142.54C213.1 142.169 213.381 141.775 213.63 141.36C213.889 140.927 214.122 140.48 214.33 140.02C214.33 140.02 214.43 140.02 214.58 140.02C214.73 140.02 214.87 140.19 214.87 140.19ZM214.18 144.5C213.29 145.294 212.513 146.206 211.87 147.21C211.242 148.178 210.735 149.219 210.36 150.31C210.065 151.131 209.923 151.998 209.94 152.87C209.943 153.46 210.116 154.037 210.44 154.53C210.514 154.665 210.625 154.777 210.759 154.853C210.893 154.929 211.046 154.966 211.2 154.96C211.508 154.919 211.797 154.787 212.03 154.58C212.602 154.028 213.025 153.34 213.26 152.58C213.68 151.352 213.909 150.067 213.94 148.77C214.01 148.05 214.06 147.33 214.08 146.62C214.1 145.91 214.13 145.27 214.17 144.54L214.18 144.5Z" fill="#1D1D1B"/>
<path d="M224.25 134.55C224.309 134.579 224.366 134.612 224.42 134.65C224.42 134.65 224.48 134.72 224.42 134.73C224.36 134.74 224.42 134.73 224.33 134.73C224.271 134.745 224.209 134.745 224.15 134.73C223.869 134.649 223.617 134.491 223.423 134.274C223.228 134.056 223.099 133.788 223.05 133.5C223.046 133.214 223.114 132.932 223.246 132.679C223.379 132.426 223.573 132.21 223.81 132.05C224.14 131.811 224.5 131.616 224.88 131.47C225.331 131.31 225.802 131.216 226.28 131.19C227.083 131.136 227.889 131.227 228.66 131.46C229.348 131.685 229.993 132.023 230.57 132.46C231.135 132.872 231.634 133.368 232.05 133.93C232.873 135.058 233.462 136.34 233.78 137.7C233.936 138.339 234.053 138.987 234.13 139.64C234.177 140.306 234.177 140.974 234.13 141.64C234.099 142.36 234.008 143.075 233.86 143.78C233.706 144.5 233.482 145.204 233.19 145.88C232.909 146.546 232.536 147.169 232.08 147.73C231.627 148.283 231.078 148.75 230.46 149.11C229.787 149.493 229.041 149.729 228.27 149.8C227.594 149.884 226.909 149.805 226.27 149.57C225.746 149.368 225.28 149.042 224.91 148.62C224.631 148.302 224.45 147.909 224.39 147.49C224.344 147.123 224.406 146.751 224.57 146.42C224.76 146.067 225.039 145.771 225.38 145.56C225.786 145.308 226.238 145.138 226.71 145.06C226.825 145.056 226.938 145.092 227.03 145.16C227.15 145.25 227.18 145.3 227.11 145.31C226.656 145.384 226.221 145.547 225.83 145.79C225.504 145.991 225.233 146.269 225.04 146.6C224.87 146.904 224.796 147.253 224.83 147.6C224.879 148.009 225.054 148.394 225.33 148.7C225.61 148.997 225.951 149.229 226.33 149.38C226.838 149.566 227.385 149.621 227.92 149.54C228.676 149.466 229.409 149.234 230.07 148.86C230.679 148.5 231.218 148.033 231.66 147.48C232.108 146.914 232.475 146.288 232.75 145.62C233.298 144.273 233.609 142.842 233.67 141.39C233.716 140.747 233.716 140.103 233.67 139.46C233.604 138.867 233.5 138.28 233.36 137.7C233.21 137.067 233.006 136.448 232.75 135.85C232.496 135.246 232.181 134.67 231.81 134.13C231.449 133.589 231.007 133.107 230.5 132.7C229.989 132.274 229.411 131.936 228.79 131.7C228.097 131.471 227.368 131.373 226.64 131.41C226.171 131.428 225.708 131.523 225.27 131.69C224.91 131.841 224.573 132.043 224.27 132.29C224.081 132.452 223.915 132.641 223.78 132.85C223.654 133.039 223.572 133.255 223.54 133.48C223.519 133.694 223.56 133.91 223.66 134.1C223.801 134.311 224.009 134.469 224.25 134.55ZM225.18 132.37C225.18 132.3 225.18 132.29 225.35 132.37C225.463 132.398 225.562 132.465 225.63 132.56C225.694 133.001 225.694 133.449 225.63 133.89C225.55 134.65 225.44 135.62 225.29 136.78C225.19 137.65 225.07 138.58 224.95 139.6C224.83 140.62 224.71 141.6 224.61 142.66C224.51 143.72 224.41 144.66 224.34 145.66C224.27 146.66 224.24 147.56 224.25 148.37C224.248 149.072 224.295 149.774 224.39 150.47C224.421 150.916 224.589 151.342 224.87 151.69C224.87 151.78 224.87 151.81 224.74 151.78C224.624 151.76 224.514 151.712 224.42 151.64C224.137 151.289 223.969 150.86 223.94 150.41C223.841 149.698 223.794 148.979 223.8 148.26C223.8 147.433 223.83 146.523 223.89 145.53C223.96 144.53 224.05 143.53 224.15 142.48C224.25 141.43 224.37 140.42 224.5 139.4C224.63 138.38 224.74 137.4 224.84 136.57C224.98 135.41 225.1 134.44 225.18 133.68C225.244 133.246 225.244 132.804 225.18 132.37Z" fill="#1D1D1B"/>
<path d="M234.7 140.04C234.7 140.04 234.7 140.04 234.77 140.04L234.91 140.1L235.06 140.19C235.06 140.19 235.12 140.24 235.12 140.26C235.03 140.86 234.94 141.46 234.84 142.05C234.74 142.64 234.67 143.24 234.62 143.84C234.597 144.033 234.597 144.227 234.62 144.42C234.62 144.53 234.7 144.59 234.78 144.59C234.894 144.578 235.001 144.532 235.09 144.46L235.56 144.09C235.834 143.858 236.091 143.608 236.33 143.34C236.6 143.06 236.85 142.78 237.09 142.5C237.33 142.22 237.53 141.98 237.7 141.75L238.06 141.28C238.06 141.28 238.11 141.28 238.15 141.28C238.2 141.272 238.25 141.272 238.3 141.28C238.347 141.304 238.391 141.334 238.43 141.37C238.43 141.37 238.43 141.44 238.43 141.45C238.43 141.46 238.24 141.7 238.07 141.93C237.9 142.16 237.7 142.41 237.47 142.69C237.24 142.97 236.99 143.25 236.73 143.53C236.47 143.81 236.21 144.05 235.96 144.27C235.39 144.72 234.96 144.88 234.59 144.75C234.22 144.62 234.09 144.24 234.13 143.61C234.17 142.98 234.26 142.42 234.37 141.83C234.48 141.24 234.61 140.63 234.7 140.04ZM234.59 139.32C234.578 139.293 234.572 139.264 234.572 139.235C234.572 139.206 234.578 139.177 234.59 139.15C234.613 139.042 234.665 138.942 234.74 138.86C234.74 138.76 234.8 138.71 234.87 138.71C234.94 138.71 235.15 138.71 235.32 138.84C235.49 138.97 235.46 138.94 235.46 139C235.495 139.055 235.519 139.116 235.53 139.18C235.535 139.233 235.535 139.287 235.53 139.34C235.523 139.404 235.496 139.465 235.453 139.514C235.41 139.562 235.353 139.596 235.29 139.61C235.184 139.631 235.076 139.631 234.97 139.61C234.811 139.565 234.675 139.461 234.59 139.32Z" fill="#1D1D1B"/>
<path d="M239.39 140.95C239.39 140.95 239.32 140.95 239.18 140.95C239.04 140.95 238.97 140.84 238.97 140.78C238.985 140.52 238.93 140.261 238.81 140.03C238.74 139.88 238.68 139.82 238.64 139.86C238.576 139.917 238.519 139.981 238.47 140.05C238.394 140.272 238.367 140.507 238.39 140.74C238.401 140.984 238.441 141.226 238.51 141.46C238.57 141.698 238.647 141.932 238.74 142.16C238.84 142.39 238.94 142.61 239.05 142.82C239.33 142.59 239.62 142.36 239.9 142.11C240.173 141.867 240.412 141.588 240.61 141.28C240.61 141.28 240.61 141.28 240.71 141.28L240.84 141.33L240.96 141.43C240.96 141.43 240.96 141.49 240.96 141.5C240.737 141.842 240.468 142.151 240.16 142.42C239.86 142.69 239.53 142.95 239.16 143.21C239.32 143.57 239.48 143.98 239.65 144.44C239.812 144.839 239.864 145.274 239.8 145.7C239.737 146.138 239.562 146.551 239.29 146.9C239.094 147.146 238.836 147.335 238.542 147.445C238.248 147.556 237.929 147.586 237.62 147.53C237.355 147.487 237.106 147.373 236.9 147.2C236.708 147.048 236.572 146.837 236.51 146.6C236.431 146.305 236.431 145.995 236.51 145.7C236.677 145.119 236.983 144.587 237.4 144.15C237.802 143.745 238.233 143.371 238.69 143.03L238.37 142.31C238.25 142.03 238.14 141.75 238.05 141.47C237.962 141.2 237.902 140.922 237.87 140.64C237.829 140.399 237.847 140.153 237.92 139.92C238.02 139.67 238.17 139.56 238.37 139.58C238.583 139.6 238.782 139.696 238.93 139.85C239.059 139.956 239.153 140.099 239.2 140.26C239.306 140.476 239.371 140.71 239.39 140.95ZM238.92 143.4C238.515 143.712 238.128 144.045 237.76 144.4C237.385 144.786 237.108 145.256 236.95 145.77C236.85 146.058 236.85 146.372 236.95 146.66C237.015 146.864 237.128 147.049 237.28 147.2C237.336 147.247 237.402 147.282 237.472 147.303C237.543 147.324 237.617 147.33 237.69 147.32C237.83 147.307 237.968 147.277 238.1 147.23C238.416 147.11 238.695 146.911 238.91 146.65C239.176 146.319 239.346 145.921 239.4 145.5C239.466 145.145 239.435 144.779 239.31 144.44C239.17 144.05 239.04 143.71 238.92 143.4Z" fill="#1D1D1B"/>
<path d="M241.7 142.07C241.371 142.148 241.029 142.148 240.7 142.07C240.641 142.229 240.598 142.393 240.57 142.56C240.533 142.752 240.506 142.945 240.49 143.14C240.465 143.326 240.465 143.514 240.49 143.7C240.522 143.876 240.597 144.041 240.71 144.18C240.736 144.233 240.778 144.277 240.83 144.305C240.882 144.334 240.941 144.346 241 144.34C241.349 144.356 241.696 144.273 242 144.1C242.37 143.91 242.727 143.696 243.07 143.46C243.61 143.1 244.115 142.692 244.58 142.24C244.919 141.935 245.231 141.601 245.51 141.24C245.51 141.24 245.6 141.24 245.74 141.24C245.88 141.24 245.93 141.34 245.91 141.39C245.637 141.749 245.332 142.084 245 142.39C244.542 142.847 244.047 143.265 243.52 143.64C243.163 143.891 242.781 144.106 242.38 144.28C242.065 144.426 241.726 144.51 241.38 144.53C241.177 144.544 240.975 144.507 240.79 144.423C240.605 144.34 240.443 144.211 240.32 144.05C240.121 143.756 240.022 143.405 240.04 143.05C240.051 142.636 240.132 142.227 240.28 141.84C240.426 141.441 240.643 141.072 240.92 140.75C241.178 140.478 241.507 140.284 241.87 140.19C242.04 140.149 242.215 140.128 242.39 140.13C242.557 140.137 242.72 140.177 242.87 140.25C242.987 140.308 243.082 140.403 243.14 140.52C243.168 140.592 243.177 140.67 243.169 140.746C243.16 140.823 243.133 140.896 243.09 140.96C242.966 141.226 242.773 141.454 242.53 141.62C242.276 141.808 241.996 141.96 241.7 142.07ZM240.8 141.88C240.962 141.88 241.123 141.859 241.28 141.82C241.563 141.712 241.829 141.564 242.07 141.38C242.308 141.222 242.501 141.005 242.63 140.75C242.685 140.71 242.723 140.651 242.738 140.585C242.752 140.519 242.742 140.45 242.71 140.39C242.71 140.39 242.62 140.33 242.5 140.39H242.26C241.933 140.5 241.64 140.693 241.41 140.95C241.16 141.227 240.955 141.541 240.8 141.88Z" fill="#1D1D1B"/>
<path d="M246 141.19L245.68 143.19C245.8 142.97 245.95 142.72 246.12 142.46C246.29 142.2 246.46 141.93 246.65 141.66C246.84 141.39 247.03 141.14 247.23 140.9C247.422 140.645 247.636 140.407 247.87 140.19C247.984 140.068 248.128 139.976 248.287 139.924C248.446 139.872 248.615 139.86 248.78 139.89C248.929 139.916 249.064 139.996 249.159 140.113C249.255 140.231 249.305 140.379 249.3 140.53C249.322 140.786 249.322 141.044 249.3 141.3C249.3 141.6 249.3 141.93 249.3 142.3C249.29 142.493 249.29 142.687 249.3 142.88V143.44C249.3 143.98 249.34 144.26 249.42 144.28C249.5 144.28 249.72 144.05 250.07 143.55C250.27 143.27 250.49 142.92 250.75 142.55L251.56 141.27C251.56 141.21 251.66 141.21 251.77 141.27C251.88 141.33 251.93 141.4 251.93 141.46C251.65 141.92 251.39 142.34 251.16 142.73C250.93 143.12 250.72 143.47 250.52 143.78C250.01 144.53 249.6 144.84 249.3 144.71C249 144.58 248.85 144.09 248.85 143.26V142.72C248.84 142.527 248.84 142.333 248.85 142.14C248.85 141.84 248.85 141.55 248.85 141.28C248.866 141.037 248.866 140.793 248.85 140.55C248.85 140.34 248.85 140.22 248.75 140.19C248.65 140.16 248.53 140.19 248.3 140.44C248.01 140.684 247.751 140.962 247.53 141.27C247.24 141.64 246.97 142.03 246.69 142.44C246.41 142.85 246.17 143.24 245.95 143.63C245.772 143.924 245.619 144.232 245.49 144.55C245.49 144.62 245.39 144.63 245.25 144.55C245.11 144.47 245.03 144.42 245.03 144.36C245.03 143.95 245.13 143.48 245.21 142.96C245.29 142.44 245.39 141.82 245.51 141.09C245.594 141.073 245.681 141.073 245.765 141.09C245.849 141.107 245.929 141.141 246 141.19Z" fill="#1D1D1B"/>
<path d="M251.52 141.25C251.52 141.25 251.52 141.25 251.62 141.25H251.76C251.715 141.032 251.758 140.806 251.88 140.62C251.993 140.435 252.156 140.286 252.35 140.19C252.562 140.078 252.792 140.007 253.03 139.98C253.275 139.935 253.525 139.935 253.77 139.98C254.075 140.076 254.353 140.244 254.58 140.47C254.773 140.654 254.92 140.88 255.01 141.13C255.089 141.379 255.122 141.639 255.11 141.9C255.099 142.164 255.059 142.425 254.99 142.68C255.353 142.508 255.69 142.286 255.99 142.02C256.284 141.764 256.549 141.475 256.78 141.16C256.78 141.16 256.78 141.16 256.87 141.16L257.02 141.23L257.15 141.33C257.15 141.33 257.15 141.39 257.15 141.41C256.852 141.777 256.517 142.112 256.15 142.41C255.766 142.73 255.303 142.94 254.81 143.02C254.667 143.312 254.474 143.576 254.24 143.8C253.996 144.056 253.708 144.266 253.39 144.42C253.096 144.555 252.773 144.617 252.45 144.6C252.278 144.58 252.114 144.518 251.971 144.421C251.828 144.323 251.711 144.193 251.63 144.04C251.508 143.849 251.426 143.634 251.39 143.41C251.331 143.147 251.297 142.879 251.29 142.61C251.275 142.344 251.275 142.076 251.29 141.81C251.353 141.618 251.43 141.431 251.52 141.25ZM251.92 141.66C251.92 141.84 251.85 142.05 251.82 142.28C251.805 142.52 251.805 142.76 251.82 143C251.825 143.236 251.855 143.471 251.91 143.7C251.949 143.905 252.031 144.099 252.15 144.27C252.205 144.359 252.287 144.428 252.385 144.466C252.482 144.504 252.589 144.509 252.69 144.48C252.931 144.419 253.157 144.307 253.35 144.15C253.571 143.991 253.772 143.806 253.95 143.6C254.078 143.459 254.195 143.309 254.3 143.15C254.045 143.137 253.793 143.09 253.55 143.01C253.305 142.922 253.068 142.815 252.84 142.69C252.622 142.57 252.423 142.419 252.25 142.24C252.092 142.078 251.978 141.878 251.92 141.66ZM254.41 142.9C254.492 142.675 254.559 142.444 254.61 142.21C254.669 141.958 254.69 141.698 254.67 141.44C254.661 141.196 254.589 140.958 254.46 140.75C254.326 140.534 254.121 140.371 253.88 140.29C253.614 140.226 253.336 140.226 253.07 140.29C252.806 140.339 252.566 140.477 252.39 140.68C252.293 140.791 252.224 140.923 252.187 141.065C252.151 141.207 252.148 141.356 252.18 141.5C252.258 141.781 252.414 142.034 252.63 142.23C252.876 142.45 253.161 142.623 253.47 142.74C253.764 142.875 254.088 142.93 254.41 142.9Z" fill="#1D1D1B"/>
<path d="M98.64 16.05V48.17L126.28 64.71V32.23L98.64 16.05Z" fill="#1D1D1B"/>
<path d="M127.03 0L98.64 16.05L126.28 32.23L154.58 16.05L127.03 0Z" fill="#E20613"/>
<path d="M245.92 138.68C246.246 138.734 246.579 138.706 246.892 138.6C247.204 138.493 247.485 138.311 247.71 138.07C248.71 137.22 248.71 137.4 249.71 138.07" stroke="#1D1D1B" stroke-width="0.65" stroke-miterlimit="10"/>
</g>
<defs>
<clipPath id="clip0">
<rect width="257.2" height="155.25" fill="white"/>
</clipPath>
</defs>
</svg>
