<svg width="265" height="160" viewBox="0 0 265 160" fill="none" xmlns="http://www.w3.org/2000/svg">
<g clip-path="url(#clip0)">
<path d="M9.9 119C17.06 126.793 26.55 130.687 38.37 130.68C49.63 130.68 58.8033 127.037 65.89 119.75C72.9767 112.463 76.5567 103 76.63 91.36C76.63 79.94 73.05 70.55 65.89 63.19C58.73 55.83 49.5567 52.1167 38.37 52.05C25.0367 52.05 14.54 57.3 6.88 67.8L10.32 70.47C17 61.0633 26.35 56.36 38.37 56.36C48.17 56.36 56.3 59.6933 62.76 66.36C69.22 73.0267 72.4567 81.36 72.47 91.36C72.47 101.513 69.2733 109.87 62.88 116.43C56.3467 122.997 48.18 126.283 38.38 126.29C27.88 126.29 19.4333 122.683 13.04 115.47C8.34026 110.39 5.41398 103.924 4.7 97.04H29.3V92.65H0C0 103.083 3.3 111.867 9.9 119Z" fill="white"/>
<path d="M80.23 129.61V53.12H84.47V125.21H106V129.61H80.23Z" fill="white"/>
<path d="M107.33 77.43C106.419 77.3765 105.551 77.0252 104.86 76.43C104.203 75.7326 103.826 74.8178 103.8 73.86C103.8 71.93 104.98 70.76 107.33 70.32C109.12 70.32 110.33 71.51 110.87 73.86C110.87 76.26 109.68 77.43 107.33 77.43ZM105.08 129.61V85.36H109.47V129.61H105.08Z" fill="white"/>
<path d="M130.35 131.53L109.47 85.36H114.18L130.26 120.61L146.47 85.36H151.4L130.35 131.53Z" fill="white"/>
<path d="M191.84 128.71V121.11C188.879 124.799 184.841 127.473 180.289 128.76C175.737 130.047 170.897 129.884 166.443 128.292C161.988 126.7 158.141 123.759 155.436 119.878C152.731 115.998 151.302 111.37 151.35 106.64C151.307 103.633 151.867 100.647 152.998 97.8603C154.13 95.0733 155.808 92.5416 157.935 90.4149C160.062 88.2881 162.593 86.6096 165.38 85.4785C168.167 84.3475 171.153 83.7869 174.16 83.83C177.55 83.7818 180.905 84.5102 183.97 85.9593C187.034 87.4084 189.726 89.5397 191.84 92.19V84.47H196.23V128.71H191.84ZM187.24 93.58C185.534 91.8146 183.494 90.4064 181.239 89.4377C178.984 88.4689 176.558 87.959 174.103 87.9375C171.649 87.9161 169.214 88.3837 166.942 89.3129C164.67 90.2422 162.606 91.6145 160.87 93.3499C159.134 95.0853 157.761 97.149 156.831 99.4207C155.901 101.692 155.432 104.126 155.453 106.581C155.473 109.036 155.982 111.462 156.95 113.717C157.918 115.973 159.325 118.014 161.09 119.72C162.795 121.485 164.835 122.894 167.091 123.862C169.346 124.831 171.772 125.341 174.227 125.362C176.681 125.384 179.116 124.916 181.388 123.987C183.66 123.058 185.724 121.685 187.46 119.95C189.196 118.215 190.569 116.151 191.499 113.879C192.429 111.608 192.898 109.174 192.877 106.719C192.857 104.264 192.348 101.838 191.38 99.5825C190.412 97.3267 189.005 95.2862 187.24 93.58Z" fill="white"/>
<path d="M221.26 91C220.143 90.1716 218.918 89.4988 217.62 89C216.322 88.4971 214.942 88.2426 213.55 88.25C212.318 88.2546 211.118 88.6464 210.12 89.37C209.038 90.1307 208.097 91.075 207.34 92.16C206.538 93.2948 205.908 94.5415 205.47 95.86C205.03 97.0591 204.794 98.3231 204.77 99.6V128.74H200.37V84.47H204.77V90.47C205.731 88.7827 206.961 87.2628 208.41 85.97C209.737 84.6975 211.501 83.9818 213.34 83.97C215.189 83.9226 217.033 84.1759 218.8 84.72C220.525 85.3892 222.15 86.2909 223.63 87.4L221.26 91Z" fill="white"/>
<path d="M254.76 128.71L231.62 105.71L229.15 108.17V128.74H224.76V13.74H229.15V101.83L248.33 82.76H254.54L234.54 102.68L260.54 128.68L254.76 128.71Z" fill="white"/>
<path d="M107.14 156.27L108.04 155.99C107.795 155.427 107.656 154.823 107.63 154.21C107.63 153.57 107.56 152.84 107.57 152C107.58 151.16 107.62 150.27 107.69 149.3C107.76 148.33 107.82 147.37 107.91 146.36C108 145.35 108.1 144.36 108.21 143.36C108.32 142.36 108.43 141.44 108.55 140.52C108.67 139.6 108.78 138.79 108.89 138.06C109 137.33 109.1 136.7 109.18 136.19C109.26 135.68 109.32 135.31 109.36 135.11C109.36 135.11 109.43 135.11 109.57 135.11C109.71 135.11 109.82 135.22 109.82 135.28C109.82 135.34 109.72 135.84 109.64 136.37C109.56 136.9 109.47 137.52 109.36 138.25C109.25 138.98 109.13 139.8 109.01 140.71C108.89 141.62 108.79 142.57 108.69 143.55C108.59 144.53 108.49 145.55 108.4 146.55C108.31 147.55 108.24 148.55 108.18 149.49C108.12 150.43 108.04 151.34 108.03 152.18C108.015 152.921 108.038 153.662 108.1 154.4C108.1 154.73 108.17 155.02 108.19 155.27C108.212 155.482 108.246 155.692 108.29 155.9C109.27 155.627 110.33 155.357 111.47 155.09C112.61 154.82 113.72 154.58 114.79 154.38C115.86 154.18 116.87 154.03 117.79 153.95C118.527 153.853 119.273 153.853 120.01 153.95C120.125 153.98 120.225 154.051 120.29 154.15C120.38 154.26 120.35 154.31 120.2 154.28C119.648 154.217 119.092 154.217 118.54 154.28C117.86 154.33 117.12 154.41 116.31 154.53C115.5 154.65 114.65 154.79 113.77 154.96C112.89 155.13 112.02 155.31 111.19 155.51C110.36 155.71 109.56 155.91 108.81 156.13C108.06 156.35 107.42 156.55 106.9 156.74C106.895 156.649 106.916 156.559 106.96 156.48L107.14 156.27Z" fill="white"/>
<path d="M124.14 145.26C123.86 145.76 123.59 146.26 123.32 146.7C123.067 147.128 122.786 147.539 122.48 147.93C122.239 148.258 121.957 148.554 121.64 148.81C121.398 149.013 121.096 149.129 120.78 149.14C120.672 149.14 120.567 149.109 120.476 149.05C120.386 148.992 120.314 148.908 120.27 148.81C120.141 148.532 120.099 148.222 120.15 147.92C120.15 147.32 120.28 146.7 120.39 146.09C120.5 145.48 120.6 144.86 120.69 144.25C120.69 144.25 120.69 144.25 120.76 144.25C120.814 144.257 120.866 144.277 120.91 144.31L121.06 144.4C121.06 144.4 121.13 144.45 121.13 144.47C121.04 145.09 120.94 145.71 120.83 146.32C120.721 146.929 120.648 147.543 120.61 148.16C120.61 148.68 120.61 148.93 120.78 148.93C121.052 148.907 121.306 148.782 121.49 148.58C121.796 148.28 122.064 147.944 122.29 147.58C122.58 147.17 122.88 146.7 123.2 146.16C123.52 145.62 123.85 145.05 124.2 144.44C124.24 143.773 124.29 143.107 124.35 142.44C124.42 141.77 124.51 141.13 124.63 140.52C124.734 139.947 124.878 139.383 125.06 138.83C125.218 138.344 125.444 137.883 125.73 137.46C125.771 137.369 125.833 137.289 125.911 137.227C125.99 137.165 126.082 137.122 126.18 137.104C126.279 137.085 126.38 137.09 126.476 137.119C126.571 137.148 126.659 137.2 126.73 137.27C126.836 137.411 126.909 137.574 126.946 137.747C126.982 137.919 126.98 138.098 126.94 138.27C126.92 138.643 126.87 139.015 126.79 139.38C126.695 139.888 126.565 140.39 126.4 140.88C126.197 141.483 125.96 142.074 125.69 142.65C125.393 143.305 125.059 143.943 124.69 144.56C124.69 144.8 124.69 144.96 124.69 145.07C124.69 145.18 124.69 145.34 124.64 145.59C124.886 145.316 125.169 145.077 125.48 144.88C125.683 144.746 125.911 144.654 126.15 144.61C126.342 144.577 126.539 144.597 126.72 144.67C126.876 144.732 127.013 144.831 127.12 144.96C127.222 145.088 127.29 145.239 127.32 145.4C127.349 145.565 127.349 145.735 127.32 145.9C127.258 146.359 127.083 146.796 126.81 147.17C126.442 147.647 125.987 148.05 125.47 148.36C126.981 147.793 128.284 146.782 129.21 145.46C129.21 145.46 129.3 145.46 129.43 145.51C129.56 145.56 129.61 145.62 129.6 145.67C129.139 146.318 128.606 146.912 128.01 147.44C127.41 147.983 126.691 148.377 125.91 148.59C125.649 148.659 125.38 148.693 125.11 148.69C124.999 148.699 124.887 148.678 124.786 148.628C124.686 148.579 124.601 148.504 124.54 148.41C125.21 148.117 125.79 147.651 126.22 147.06C126.53 146.65 126.742 146.175 126.84 145.67V145.45C126.85 145.35 126.85 145.25 126.84 145.15C126.824 145.056 126.786 144.967 126.73 144.89C126.7 144.855 126.661 144.829 126.616 144.815C126.572 144.8 126.525 144.799 126.48 144.81C126.2 144.867 125.938 144.995 125.72 145.18C125.348 145.473 125.013 145.808 124.72 146.18H124.59C124.59 146.82 124.59 147.44 124.53 148.06C124.47 148.68 124.47 149.29 124.4 149.89C124.4 149.89 124.4 149.94 124.31 149.94C124.254 149.953 124.196 149.953 124.14 149.94L123.97 149.88C123.97 149.88 123.9 149.82 123.9 149.79C124.002 149.094 124.062 148.393 124.08 147.69C124.07 146.91 124.1 146.1 124.14 145.26ZM120.59 143.5C120.59 143.5 120.54 143.41 120.54 143.33C120.561 143.221 120.613 143.12 120.69 143.04C120.69 142.93 120.76 142.87 120.83 142.87C120.9 142.87 121.11 142.87 121.3 143.01C121.49 143.15 121.43 143.11 121.43 143.18C121.474 143.23 121.502 143.293 121.51 143.36C121.516 143.416 121.516 143.473 121.51 143.53C121.501 143.595 121.474 143.656 121.431 143.705C121.389 143.755 121.333 143.791 121.27 143.81C121.16 143.82 121.05 143.82 120.94 143.81C120.788 143.755 120.663 143.644 120.59 143.5ZM124.77 143.34C125.05 142.826 125.303 142.299 125.53 141.76C125.739 141.279 125.916 140.784 126.06 140.28C126.187 139.867 126.287 139.446 126.36 139.02C126.421 138.71 126.455 138.396 126.46 138.08C126.455 137.99 126.455 137.9 126.46 137.81C126.47 137.73 126.47 137.65 126.46 137.57C126.46 137.5 126.46 137.47 126.38 137.47C126.3 137.47 126.27 137.54 126.18 137.66C125.921 138.015 125.731 138.415 125.62 138.84C125.46 139.35 125.33 139.84 125.21 140.43C125.09 141.02 124.99 141.52 124.92 142.04C124.85 142.56 124.8 143 124.77 143.36V143.34Z" fill="white"/>
<path d="M129.55 143.41C129.55 143.35 129.62 143.35 129.78 143.41C129.94 143.47 130.01 143.53 130.01 143.57C130.01 143.78 130.01 144.03 129.93 144.32C129.85 144.61 129.85 144.94 129.79 145.32L130.11 145.01L130.49 144.64C130.623 144.524 130.763 144.417 130.91 144.32C131.037 144.232 131.175 144.162 131.32 144.11C131.467 144.069 131.623 144.069 131.77 144.11C131.97 144.11 132.06 144.21 132.06 144.34C132.15 144.79 132.22 145.13 132.25 145.34C132.276 145.53 132.352 145.709 132.47 145.86C132.47 145.86 132.61 145.92 132.77 145.86C133.048 145.791 133.309 145.669 133.54 145.5C133.595 145.488 133.653 145.488 133.708 145.5C133.763 145.512 133.815 145.536 133.86 145.57C134.01 145.65 134.06 145.7 134 145.74C133.648 146.016 133.207 146.154 132.76 146.13C132.467 146.086 132.201 145.936 132.01 145.71C131.868 145.516 131.769 145.295 131.72 145.06C131.663 144.837 131.629 144.61 131.62 144.38C131.432 144.475 131.255 144.589 131.09 144.72C130.9 144.87 130.71 145.03 130.53 145.2C130.353 145.363 130.186 145.537 130.03 145.72C129.895 145.87 129.771 146.031 129.66 146.2C129.57 146.84 129.48 147.46 129.4 148.06C129.327 148.537 129.284 149.018 129.27 149.5C129.27 149.56 129.2 149.57 129.04 149.5C128.88 149.43 128.81 149.38 128.81 149.3C128.811 148.294 128.898 147.291 129.07 146.3C129.24 145.36 129.4 144.36 129.55 143.41Z" fill="white"/>
<path d="M134.66 146.36C134.335 146.454 133.993 146.471 133.66 146.41C133.598 146.572 133.551 146.739 133.52 146.91C133.52 147.11 133.46 147.31 133.44 147.51C133.415 147.702 133.415 147.897 133.44 148.09C133.474 148.268 133.549 148.436 133.66 148.58C133.689 148.634 133.732 148.679 133.785 148.709C133.838 148.739 133.899 148.753 133.96 148.75C134.309 148.753 134.653 148.667 134.96 148.5C135.345 148.305 135.715 148.085 136.07 147.84C136.624 147.464 137.146 147.043 137.63 146.58C138.001 146.264 138.336 145.909 138.63 145.52C138.63 145.52 138.73 145.52 138.86 145.52C138.99 145.52 139.06 145.62 139.04 145.67C138.761 146.056 138.446 146.414 138.1 146.74C137.631 147.212 137.122 147.644 136.58 148.03C136.215 148.289 135.823 148.506 135.41 148.68C135.098 148.833 134.757 148.921 134.41 148.94C134.202 148.957 133.993 148.921 133.802 148.835C133.612 148.749 133.446 148.617 133.32 148.45C133.114 148.159 133.012 147.806 133.03 147.45C133.06 146.582 133.376 145.749 133.93 145.08C134.187 144.759 134.536 144.525 134.93 144.41C135.104 144.369 135.282 144.348 135.46 144.35C135.633 144.354 135.804 144.395 135.96 144.47C136.083 144.528 136.182 144.627 136.24 144.75C136.275 144.822 136.294 144.9 136.294 144.98C136.294 145.06 136.275 145.138 136.24 145.21C136.109 145.483 135.909 145.718 135.66 145.89C135.354 146.099 135.016 146.258 134.66 146.36ZM133.73 146.18C133.896 146.176 134.06 146.153 134.22 146.11C134.513 145.999 134.789 145.848 135.04 145.66C135.28 145.493 135.476 145.27 135.61 145.01C135.668 144.968 135.709 144.906 135.725 144.837C135.742 144.767 135.733 144.694 135.7 144.63C135.7 144.63 135.6 144.57 135.48 144.63H135.23C134.893 144.746 134.592 144.949 134.36 145.22C134.101 145.494 133.888 145.808 133.73 146.15V146.18Z" fill="white"/>
<path d="M145.07 150.61C145.015 150.623 144.957 150.623 144.902 150.611C144.847 150.599 144.795 150.575 144.75 150.54C144.62 150.46 144.58 150.42 144.66 150.4C144.922 150.296 145.155 150.132 145.34 149.92C145.666 149.584 145.973 149.23 146.26 148.86C146.59 148.42 146.96 147.91 147.35 147.34C147.74 146.77 148.15 146.15 148.56 145.49C147.65 145.59 146.86 145.66 146.19 145.71L144.79 145.82C144.663 145.814 144.54 145.769 144.44 145.69C144.31 145.6 144.3 145.56 144.44 145.56C144.71 145.56 145.25 145.56 146.05 145.46C146.85 145.36 147.77 145.29 148.81 145.16C149.47 144.16 150.13 143.03 150.81 141.9L152.67 138.76C153.28 137.71 153.8 136.85 154.22 136.18C154.421 135.786 154.68 135.425 154.99 135.11C155.15 135 155.3 135.06 155.43 135.27C155.481 135.712 155.481 136.158 155.43 136.6C155.43 137.353 155.38 138.313 155.28 139.48C155.22 140.22 155.18 141 155.14 141.83C155.1 142.66 155.06 143.53 155 144.42L157 144.08C157.339 144.023 157.674 143.94 158 143.83C158 143.83 158.12 143.83 158.27 143.9C158.42 143.97 158.47 144.04 158.43 144.09C158.051 144.208 157.663 144.295 157.27 144.35L154.96 144.7C154.96 145.82 154.9 146.93 154.89 148.03C154.88 149.13 154.89 150.14 154.96 151.03C155.004 151.825 155.097 152.617 155.24 153.4C155.296 153.896 155.482 154.369 155.78 154.77C155.84 154.84 155.78 154.86 155.66 154.82C155.545 154.802 155.442 154.741 155.37 154.65C155.075 154.253 154.883 153.789 154.81 153.3C154.664 152.533 154.564 151.759 154.51 150.98C154.45 150.073 154.42 149.073 154.42 147.98C154.42 146.9 154.42 145.81 154.5 144.71L151.83 145.05L149.14 145.36C148.71 146.05 148.28 146.7 147.87 147.31C147.46 147.92 147.08 148.47 146.72 148.94C146.421 149.342 146.086 149.717 145.72 150.06C145.545 150.288 145.324 150.475 145.07 150.61ZM153.07 138.97C152.52 139.9 151.93 140.91 151.29 141.97C150.65 143.03 150.02 144.09 149.38 145.12L154.52 144.49C154.56 143.55 154.6 142.64 154.64 141.76C154.68 140.88 154.72 140.05 154.76 139.27L154.96 135.86C154.75 136.17 154.49 136.59 154.16 137.12C153.83 137.65 153.47 138.27 153.1 138.97H153.07Z" fill="white"/>
<path d="M158.87 143.41C158.87 143.35 158.94 143.35 159.1 143.41C159.26 143.47 159.33 143.53 159.33 143.57C159.33 143.78 159.28 144.03 159.25 144.32C159.22 144.61 159.17 144.94 159.11 145.32L159.43 145.01C159.54 144.89 159.67 144.77 159.81 144.64C159.941 144.522 160.081 144.415 160.23 144.32C160.356 144.231 160.494 144.16 160.64 144.11C160.787 144.069 160.943 144.069 161.09 144.11C161.28 144.11 161.38 144.21 161.38 144.34C161.47 144.79 161.53 145.13 161.57 145.34C161.596 145.53 161.672 145.709 161.79 145.86C161.79 145.86 161.93 145.92 162.09 145.86C162.364 145.79 162.622 145.668 162.85 145.5C162.907 145.487 162.966 145.486 163.023 145.498C163.08 145.511 163.133 145.535 163.18 145.57C163.33 145.65 163.37 145.7 163.32 145.74C162.967 146.015 162.527 146.153 162.08 146.13C161.786 146.083 161.517 145.934 161.32 145.71C161.186 145.513 161.091 145.293 161.04 145.06C160.978 144.838 160.945 144.61 160.94 144.38C160.752 144.475 160.575 144.589 160.41 144.72C160.22 144.87 160.03 145.03 159.85 145.2C159.67 145.37 159.5 145.54 159.34 145.72C159.18 145.9 159.07 146.06 158.97 146.2C158.88 146.84 158.8 147.46 158.72 148.06C158.642 148.536 158.599 149.017 158.59 149.5C158.59 149.56 158.51 149.57 158.36 149.5C158.21 149.43 158.13 149.38 158.13 149.3C158.125 148.294 158.212 147.29 158.39 146.3C158.56 145.36 158.72 144.36 158.87 143.41Z" fill="white"/>
<path d="M165.59 144.84L165.7 144.25C165.7 144.25 165.75 144.25 165.81 144.25C165.867 144.256 165.922 144.277 165.97 144.31L166.12 144.41C166.12 144.41 166.18 144.48 166.12 144.49C165.92 145.38 165.75 146.1 165.6 146.64C165.45 147.18 165.34 147.72 165.25 148.23C165.43 148.09 165.64 147.9 165.89 147.66L166.63 146.91C166.87 146.66 167.1 146.4 167.31 146.15C167.481 145.956 167.632 145.745 167.76 145.52H167.87L168.03 145.58C168.083 145.598 168.132 145.629 168.17 145.67C168.17 145.67 168.17 145.74 168.17 145.76C168.021 145.998 167.85 146.222 167.66 146.43C167.381 146.779 167.084 147.112 166.77 147.43C166.45 147.76 166.12 148.06 165.77 148.34C165.554 148.557 165.299 148.734 165.02 148.86C165.2 149.61 165.36 150.4 165.49 151.23C165.612 152.025 165.692 152.826 165.73 153.63V154.32C165.737 154.637 165.7 154.953 165.62 155.26C165.604 155.364 165.567 155.463 165.512 155.552C165.457 155.641 165.385 155.719 165.3 155.78C165.15 155.86 164.93 155.72 164.64 155.38C164.38 154.915 164.207 154.407 164.13 153.88C164.05 153.317 164.02 152.748 164.04 152.18C164.058 151.607 164.111 151.036 164.2 150.47C164.29 149.91 164.39 149.4 164.5 148.93C164.61 148.46 164.75 147.98 164.85 147.55C164.95 147.12 165.04 146.68 165.13 146.26C164.97 146.48 164.79 146.7 164.61 146.92C164.438 147.13 164.247 147.324 164.04 147.5C163.894 147.649 163.721 147.767 163.53 147.85C163.417 147.904 163.295 147.937 163.17 147.95C163.056 147.958 162.941 147.94 162.836 147.897C162.73 147.853 162.635 147.786 162.56 147.7C162.435 147.536 162.369 147.336 162.37 147.13C162.377 146.852 162.421 146.576 162.5 146.31C162.579 145.986 162.707 145.675 162.88 145.39C163.04 145.111 163.255 144.866 163.51 144.67C163.636 144.549 163.788 144.458 163.954 144.404C164.121 144.35 164.297 144.335 164.47 144.36C164.882 144.409 165.271 144.575 165.59 144.84ZM165.4 145.14C165.371 144.989 165.288 144.854 165.167 144.76C165.045 144.666 164.893 144.62 164.74 144.63C164.443 144.622 164.154 144.726 163.93 144.92C163.704 145.119 163.514 145.356 163.37 145.62C163.23 145.89 163.122 146.175 163.05 146.47C162.981 146.714 162.944 146.966 162.94 147.22C162.94 147.39 162.94 147.5 163.01 147.54C163.036 147.555 163.065 147.563 163.095 147.563C163.125 147.563 163.154 147.555 163.18 147.54C163.269 147.51 163.351 147.463 163.42 147.4L163.68 147.18C164.007 146.869 164.311 146.535 164.59 146.18C164.87 145.847 165.14 145.5 165.4 145.14ZM164.93 149.79C164.8 150.43 164.72 151.078 164.69 151.73C164.645 152.369 164.645 153.011 164.69 153.65C164.69 153.74 164.69 153.9 164.76 154.12C164.83 154.34 164.83 154.54 164.87 154.74C164.91 154.9 164.96 155.057 165.02 155.21C165.08 155.32 165.13 155.33 165.19 155.21C165.341 154.629 165.395 154.028 165.35 153.43C165.331 152.814 165.278 152.2 165.19 151.59C165.11 150.99 165.02 150.36 164.93 149.79Z" fill="white"/>
<path d="M167.8 145.49C167.8 145.49 167.8 145.49 167.87 145.49H168.03C168.093 145.505 168.153 145.529 168.21 145.56C168.27 145.56 168.29 145.62 168.29 145.65C168.309 146.017 168.272 146.384 168.18 146.74C168.088 147.089 168.071 147.454 168.13 147.81C168.13 148.06 168.27 148.11 168.43 147.97C168.689 147.72 168.923 147.445 169.13 147.15C169.37 146.81 169.6 146.45 169.82 146.08C170.04 145.71 170.23 145.34 170.4 144.99C170.57 144.64 170.69 144.35 170.78 144.11C170.78 144.11 170.78 144.11 170.86 144.11C170.916 144.101 170.974 144.101 171.03 144.11L171.18 144.19C171.18 144.19 171.24 144.19 171.24 144.26C171.18 144.413 171.13 144.57 171.09 144.73C171.09 144.91 171.01 145.11 170.97 145.31C170.93 145.51 170.9 145.71 170.87 145.9C170.84 146.09 170.82 146.25 170.81 146.39C170.81 146.76 170.72 147.15 170.67 147.54C170.604 147.917 170.604 148.303 170.67 148.68C170.67 148.83 170.78 148.88 170.89 148.83C171.039 148.736 171.168 148.614 171.27 148.47C171.485 148.201 171.685 147.921 171.87 147.63C172.09 147.28 172.29 146.95 172.47 146.63C172.65 146.31 172.86 145.93 173.1 145.47C173.1 145.47 173.2 145.47 173.35 145.47C173.5 145.47 173.55 145.58 173.54 145.65C173.53 145.72 173.4 145.9 173.28 146.14C173.16 146.38 173.02 146.63 172.85 146.92C172.68 147.21 172.52 147.5 172.33 147.8C172.164 148.073 171.984 148.336 171.79 148.59C171.576 148.929 171.245 149.178 170.86 149.29C170.553 149.35 170.353 149.11 170.26 148.57C170.185 148.134 170.165 147.691 170.2 147.25C170.2 146.8 170.28 146.38 170.34 145.97C170.25 146.11 170.11 146.33 169.93 146.64C169.751 146.941 169.55 147.228 169.33 147.5C169.145 147.746 168.914 147.953 168.65 148.11C168.539 148.176 168.41 148.204 168.281 148.19C168.153 148.175 168.033 148.119 167.94 148.03C167.833 147.948 167.747 147.842 167.69 147.72C167.632 147.598 167.605 147.465 167.61 147.33C167.604 146.993 167.641 146.657 167.72 146.33C167.793 146.056 167.82 145.772 167.8 145.49Z" fill="white"/>
<path d="M178.07 142.5C178.008 142.768 177.932 143.031 177.84 143.29C177.74 143.59 177.65 143.89 177.57 144.21C177.49 144.53 177.41 144.82 177.35 145.12C177.291 145.379 177.257 145.644 177.25 145.91C177.25 146.8 177.19 147.6 177.16 148.3C177.119 148.832 177.149 149.366 177.25 149.89C177.31 150.07 177.36 150.18 177.4 150.2C177.44 150.22 177.56 150.2 177.75 150.05C178.102 149.786 178.419 149.477 178.69 149.13C179.03 148.71 179.35 148.27 179.69 147.81C180.03 147.35 180.3 146.89 180.57 146.47C180.84 146.05 181.05 145.73 181.21 145.47C181.246 145.458 181.284 145.458 181.32 145.47C181.373 145.461 181.427 145.461 181.48 145.47C181.536 145.488 181.588 145.519 181.63 145.56C181.68 145.56 181.69 145.63 181.63 145.64C181.45 145.91 181.21 146.28 180.9 146.78C180.59 147.28 180.25 147.78 179.9 148.27C179.565 148.746 179.204 149.203 178.82 149.64C178.551 149.966 178.208 150.223 177.82 150.39C177.729 150.443 177.627 150.474 177.522 150.48C177.417 150.487 177.312 150.469 177.216 150.429C177.119 150.388 177.032 150.325 176.964 150.246C176.895 150.166 176.846 150.072 176.82 149.97C176.735 149.781 176.691 149.577 176.69 149.37C176.69 149.11 176.69 148.81 176.69 148.45C176.69 148.09 176.69 147.7 176.69 147.27C176.69 146.84 176.69 146.38 176.69 145.9C176.44 146.24 176.12 146.63 175.74 147.06C175.39 147.45 175.02 147.82 174.63 148.17C174.05 148.63 173.63 148.8 173.23 148.67C172.83 148.54 172.72 148.14 172.76 147.49C172.8 146.84 172.89 146.27 173 145.65C173.11 145.03 173.21 144.43 173.3 143.82C173.3 143.82 173.3 143.82 173.37 143.82L173.52 143.88L173.67 143.98C173.67 143.98 173.73 144.03 173.73 144.05C173.64 144.67 173.55 145.28 173.45 145.89C173.35 146.5 173.27 147.12 173.22 147.74C173.193 147.939 173.193 148.141 173.22 148.34C173.22 148.45 173.3 148.51 173.38 148.51C173.498 148.494 173.608 148.445 173.7 148.37L174.18 148C174.442 147.77 174.693 147.526 174.93 147.27C175.19 146.99 175.44 146.72 175.67 146.45L176.28 145.71L176.68 145.17C176.681 144.799 176.701 144.429 176.74 144.06C176.74 143.68 176.82 143.28 176.87 142.88C176.29 143.08 175.71 143.25 175.12 143.4C174.53 143.55 173.97 143.68 173.4 143.79C173.178 143.83 172.951 143.83 172.73 143.79C172.6 143.79 172.52 143.69 172.5 143.61C172.48 143.53 172.5 143.44 172.77 143.38C172.981 143.358 173.193 143.399 173.38 143.5C173.96 143.37 174.55 143.22 175.13 143.04C175.71 142.86 176.29 142.66 176.88 142.45C176.93 141.99 176.99 141.55 177.05 141.12C177.11 140.69 177.18 140.31 177.24 139.96C177.3 139.61 177.37 139.3 177.44 139.04C177.51 138.78 177.55 138.6 177.59 138.47C177.615 138.387 177.664 138.313 177.732 138.26C177.8 138.206 177.883 138.175 177.97 138.17C178.015 138.161 178.062 138.162 178.107 138.171C178.152 138.18 178.195 138.199 178.233 138.225C178.271 138.251 178.304 138.284 178.329 138.323C178.354 138.361 178.372 138.405 178.38 138.45C178.406 138.816 178.406 139.184 178.38 139.55C178.315 140.396 178.199 141.238 178.03 142.07C178.77 141.76 179.53 141.49 180.29 141.25C181.028 141.026 181.779 140.849 182.54 140.72C183.161 140.588 183.798 140.551 184.43 140.61C184.86 140.68 185.1 140.82 185.16 141.04C185.22 141.26 185.16 141.26 185.02 141.28C184.92 141.285 184.82 141.264 184.73 141.22C184.582 141.137 184.45 141.029 184.34 140.9C183.896 140.807 183.436 140.825 183 140.95C182.16 141.088 181.334 141.299 180.53 141.58C179.77 141.91 178.91 142.2 178.07 142.5ZM173.29 143.11C173.277 143.082 173.271 143.051 173.271 143.02C173.271 142.989 173.277 142.958 173.29 142.93C173.313 142.822 173.365 142.722 173.44 142.64C173.44 142.53 173.51 142.48 173.58 142.48C173.65 142.48 173.86 142.48 174.04 142.62C174.22 142.76 174.18 142.72 174.18 142.78C174.22 142.837 174.248 142.902 174.26 142.97C174.266 143.023 174.266 143.077 174.26 143.13C174.252 143.197 174.223 143.259 174.179 143.309C174.134 143.359 174.075 143.394 174.01 143.41C173.904 143.431 173.796 143.431 173.69 143.41C173.607 143.389 173.528 143.352 173.459 143.301C173.391 143.249 173.333 143.184 173.29 143.11ZM178.07 139.36C177.968 139.786 177.888 140.216 177.83 140.65C177.76 141.14 177.67 141.65 177.58 142.26C177.72 141.72 177.83 141.172 177.91 140.62C177.98 140.08 178.04 139.66 178.07 139.36Z" fill="white"/>
<path d="M182.34 146.36C182.015 146.454 181.673 146.471 181.34 146.41C181.278 146.572 181.231 146.739 181.2 146.91C181.2 147.11 181.14 147.31 181.12 147.51C181.095 147.702 181.095 147.897 181.12 148.09C181.154 148.268 181.229 148.436 181.34 148.58C181.369 148.634 181.412 148.679 181.465 148.709C181.518 148.739 181.579 148.753 181.64 148.75C181.989 148.753 182.333 148.667 182.64 148.5C183.025 148.305 183.395 148.085 183.75 147.84C184.304 147.464 184.826 147.043 185.31 146.58C185.681 146.264 186.016 145.909 186.31 145.52C186.31 145.52 186.41 145.52 186.54 145.52C186.67 145.52 186.74 145.62 186.72 145.67C186.441 146.056 186.126 146.414 185.78 146.74C185.311 147.212 184.802 147.644 184.26 148.03C183.895 148.289 183.502 148.506 183.09 148.68C182.777 148.833 182.437 148.921 182.09 148.94C181.882 148.957 181.673 148.921 181.482 148.835C181.291 148.749 181.126 148.617 181 148.45C180.794 148.159 180.692 147.806 180.71 147.45C180.727 146.58 181.045 145.742 181.61 145.08C181.867 144.759 182.216 144.525 182.61 144.41C182.784 144.369 182.962 144.348 183.14 144.35C183.313 144.355 183.483 144.396 183.64 144.47C183.763 144.528 183.862 144.627 183.92 144.75C183.948 144.825 183.958 144.906 183.949 144.986C183.94 145.066 183.913 145.142 183.87 145.21C183.739 145.483 183.539 145.718 183.29 145.89C182.999 146.094 182.679 146.253 182.34 146.36ZM181.41 146.18C181.576 146.176 181.74 146.153 181.9 146.11C182.193 145.999 182.469 145.848 182.72 145.66C182.96 145.493 183.156 145.27 183.29 145.01C183.348 144.968 183.389 144.906 183.405 144.837C183.422 144.767 183.413 144.694 183.38 144.63C183.38 144.63 183.28 144.57 183.16 144.63H182.91C182.573 144.746 182.272 144.949 182.04 145.22C181.781 145.494 181.568 145.808 181.41 146.15V146.18Z" fill="white"/>
<path d="M192.77 142.5C192.708 142.767 192.632 143.031 192.54 143.29C192.44 143.59 192.35 143.89 192.27 144.21C192.19 144.53 192.11 144.82 192.05 145.12C191.991 145.379 191.957 145.644 191.95 145.91C191.95 146.8 191.89 147.6 191.86 148.3C191.819 148.832 191.849 149.366 191.95 149.89C192.01 150.07 192.06 150.18 192.1 150.2C192.14 150.22 192.26 150.2 192.45 150.05C192.802 149.786 193.119 149.477 193.39 149.13C193.73 148.71 194.05 148.27 194.39 147.81C194.73 147.35 195 146.89 195.27 146.47C195.54 146.05 195.75 145.73 195.91 145.47C195.946 145.458 195.984 145.458 196.02 145.47C196.073 145.461 196.127 145.461 196.18 145.47C196.236 145.488 196.288 145.519 196.33 145.56C196.33 145.56 196.39 145.63 196.33 145.64C196.15 145.91 195.91 146.28 195.6 146.78C195.29 147.28 194.95 147.78 194.6 148.27C194.265 148.746 193.904 149.203 193.52 149.64C193.251 149.966 192.908 150.223 192.52 150.39C192.429 150.443 192.327 150.474 192.222 150.48C192.117 150.487 192.012 150.469 191.916 150.429C191.819 150.388 191.733 150.325 191.664 150.246C191.595 150.166 191.546 150.072 191.52 149.97C191.436 149.777 191.389 149.57 191.38 149.36C191.38 149.09 191.38 148.78 191.38 148.42C191.38 148.06 191.38 147.66 191.38 147.22C191.38 146.78 191.38 146.31 191.38 145.83C190.953 146.379 190.475 146.884 189.95 147.34C189.437 147.783 188.861 148.147 188.24 148.42C187.96 148.547 187.658 148.619 187.35 148.63C187.03 148.646 186.711 148.573 186.43 148.42C186.172 148.299 185.959 148.099 185.82 147.85C185.702 147.628 185.637 147.381 185.63 147.13C185.621 146.862 185.662 146.594 185.75 146.34C185.837 146.08 185.937 145.83 186.05 145.59C186.14 145.42 186.25 145.24 186.37 145.05C186.48 144.857 186.611 144.676 186.76 144.51C186.901 144.346 187.066 144.204 187.25 144.09C187.435 143.973 187.643 143.898 187.86 143.87C187.975 143.868 188.09 143.885 188.2 143.92C188.322 143.968 188.429 144.047 188.51 144.15C188.593 144.262 188.632 144.401 188.62 144.54C188.62 144.61 188.54 144.61 188.39 144.54C188.24 144.47 188.16 144.42 188.16 144.35C188.16 144.28 188.16 144.16 188.1 144.16C188.032 144.168 187.967 144.192 187.91 144.23C187.589 144.392 187.311 144.629 187.1 144.92C186.904 145.191 186.727 145.475 186.57 145.77C186.48 145.99 186.39 146.23 186.3 146.5C186.213 146.75 186.152 147.008 186.12 147.27C186.089 147.491 186.106 147.716 186.17 147.93C186.202 148.027 186.258 148.113 186.334 148.182C186.409 148.25 186.501 148.298 186.6 148.32C186.778 148.402 186.979 148.423 187.17 148.38C187.408 148.336 187.64 148.262 187.86 148.16C188.594 147.823 189.269 147.371 189.86 146.82C190.422 146.3 190.925 145.72 191.36 145.09C191.36 144.74 191.36 144.37 191.36 144C191.36 143.63 191.45 143.23 191.5 142.83C190.92 143.03 190.34 143.2 189.75 143.35C189.16 143.5 188.6 143.63 188.03 143.74C187.808 143.78 187.582 143.78 187.36 143.74C187.22 143.74 187.15 143.64 187.13 143.56C187.11 143.48 187.13 143.39 187.4 143.33C187.608 143.306 187.817 143.348 188 143.45H188.06C188.64 143.32 189.22 143.17 189.81 142.99C190.4 142.81 190.97 142.61 191.56 142.4C191.56 141.94 191.67 141.5 191.73 141.07C191.79 140.64 191.86 140.26 191.92 139.91C191.98 139.56 192.05 139.25 192.12 138.99C192.19 138.73 192.23 138.55 192.27 138.42C192.295 138.337 192.344 138.263 192.412 138.21C192.48 138.156 192.563 138.125 192.65 138.12C192.695 138.111 192.742 138.112 192.787 138.121C192.832 138.13 192.875 138.149 192.913 138.175C192.951 138.201 192.984 138.234 193.009 138.273C193.034 138.311 193.052 138.355 193.06 138.4C193.086 138.766 193.086 139.134 193.06 139.5C192.995 140.346 192.879 141.188 192.71 142.02C193.45 141.71 194.21 141.44 194.97 141.2C195.705 140.977 196.453 140.8 197.21 140.67C197.834 140.538 198.475 140.501 199.11 140.56C199.54 140.63 199.78 140.77 199.84 140.99C199.9 141.21 199.79 141.21 199.7 141.23C199.6 141.235 199.5 141.214 199.41 141.17C199.262 141.087 199.13 140.979 199.02 140.85C198.576 140.757 198.116 140.775 197.68 140.9C196.84 141.038 196.014 141.249 195.21 141.53C194.47 141.91 193.61 142.2 192.77 142.5ZM192.77 139.32C192.664 139.745 192.58 140.176 192.52 140.61C192.45 141.1 192.37 141.61 192.28 142.22C192.42 141.63 192.53 141.08 192.6 140.58C192.67 140.08 192.71 139.66 192.75 139.36L192.77 139.32Z" fill="white"/>
<path d="M195.89 145.49C195.89 145.49 195.89 145.49 195.96 145.49H196.12L196.3 145.56C196.3 145.56 196.38 145.62 196.38 145.65C196.4 146.017 196.362 146.384 196.27 146.74C196.178 147.089 196.161 147.454 196.22 147.81C196.22 148.06 196.35 148.11 196.52 147.97C196.778 147.722 197.01 147.447 197.21 147.15C197.46 146.81 197.69 146.45 197.91 146.08C198.13 145.71 198.32 145.34 198.48 144.99C198.64 144.64 198.78 144.35 198.87 144.11C198.87 144.11 198.87 144.11 198.95 144.11C199.003 144.101 199.057 144.101 199.11 144.11C199.164 144.128 199.215 144.155 199.26 144.19C199.31 144.19 199.33 144.19 199.33 144.26C199.27 144.413 199.22 144.57 199.18 144.73C199.18 144.91 199.09 145.11 199.06 145.31C199.03 145.51 198.99 145.71 198.96 145.9C198.93 146.09 198.91 146.25 198.89 146.39C198.89 146.76 198.81 147.15 198.76 147.54C198.69 147.917 198.69 148.303 198.76 148.68C198.76 148.827 198.83 148.877 198.97 148.83C199.123 148.737 199.255 148.615 199.36 148.47C199.575 148.201 199.775 147.921 199.96 147.63C200.18 147.28 200.38 146.95 200.56 146.63C200.74 146.31 200.95 145.93 201.19 145.47C201.19 145.47 201.29 145.47 201.43 145.47C201.57 145.47 201.64 145.58 201.62 145.65C201.6 145.72 201.48 145.9 201.36 146.14C201.24 146.38 201.11 146.63 200.94 146.92C200.77 147.21 200.6 147.5 200.42 147.8C200.254 148.073 200.074 148.336 199.88 148.59C199.666 148.929 199.335 149.178 198.95 149.29C198.637 149.35 198.437 149.11 198.35 148.57C198.27 148.135 198.25 147.691 198.29 147.25C198.29 146.8 198.37 146.38 198.43 145.97C198.34 146.11 198.2 146.33 198.02 146.64C197.841 146.941 197.64 147.228 197.42 147.5C197.234 147.749 196.999 147.956 196.73 148.11C196.619 148.175 196.49 148.202 196.362 148.187C196.234 148.173 196.114 148.118 196.02 148.03C195.913 147.948 195.827 147.842 195.77 147.72C195.712 147.598 195.685 147.465 195.69 147.33C195.689 146.994 195.726 146.658 195.8 146.33C195.88 146.058 195.91 145.773 195.89 145.49Z" fill="white"/>
<path d="M201.57 143.41C201.57 143.35 201.65 143.35 201.8 143.41C201.95 143.47 202.04 143.53 202.04 143.57C202.04 143.78 202.04 144.03 201.96 144.32C201.88 144.61 201.87 144.94 201.82 145.32C201.91 145.23 202.01 145.12 202.13 145.01L202.52 144.64C202.649 144.519 202.79 144.412 202.94 144.32C203.065 144.229 203.203 144.158 203.35 144.11C203.497 144.069 203.653 144.069 203.8 144.11C203.99 144.11 204.09 144.21 204.09 144.34C204.18 144.79 204.24 145.13 204.28 145.34C204.302 145.531 204.378 145.711 204.5 145.86C204.5 145.86 204.63 145.92 204.8 145.86C205.074 145.79 205.333 145.668 205.56 145.5C205.617 145.488 205.676 145.487 205.733 145.499C205.79 145.512 205.843 145.536 205.89 145.57C206.04 145.65 206.08 145.7 206.03 145.74C205.674 146.016 205.23 146.155 204.78 146.13C204.487 146.086 204.221 145.936 204.03 145.71C203.892 145.514 203.794 145.293 203.74 145.06C203.686 144.837 203.655 144.609 203.65 144.38C203.462 144.475 203.285 144.589 203.12 144.72C202.924 144.869 202.737 145.029 202.56 145.2C202.38 145.363 202.21 145.537 202.05 145.72C201.918 145.873 201.794 146.033 201.68 146.2C201.59 146.84 201.5 147.46 201.42 148.06C201.35 148.537 201.31 149.018 201.3 149.5C201.3 149.56 201.22 149.57 201.07 149.5C200.92 149.43 200.83 149.38 200.83 149.3C200.831 148.294 200.918 147.291 201.09 146.3C201.27 145.36 201.47 144.36 201.57 143.41Z" fill="white"/>
<path d="M208.32 144.23C208.32 144.23 208.32 144.23 208.4 144.23H208.58C208.638 144.255 208.692 144.289 208.74 144.33C208.74 144.33 208.81 144.39 208.81 144.41L208.59 145.84C208.54 146.24 208.48 146.64 208.42 147.04C208.357 147.391 208.314 147.745 208.29 148.1C208.259 148.309 208.259 148.521 208.29 148.73C208.29 148.86 208.39 148.92 208.48 148.92C208.606 148.907 208.725 148.854 208.82 148.77L209.33 148.38C209.607 148.152 209.868 147.905 210.11 147.64C210.37 147.34 210.62 147.05 210.85 146.76C211.08 146.47 211.27 146.21 211.45 145.96C211.63 145.71 211.73 145.56 211.79 145.46C211.85 145.36 211.92 145.46 212.06 145.52C212.2 145.58 212.26 145.65 212.23 145.7C212.2 145.75 212.03 145.95 211.84 146.19L211.22 146.96C210.98 147.24 210.73 147.52 210.46 147.81C210.22 148.077 209.96 148.325 209.68 148.55C209.546 148.666 209.402 148.77 209.25 148.86C209.098 148.953 208.933 149.024 208.76 149.07C208.606 149.11 208.444 149.11 208.29 149.07C208.13 149.017 207.994 148.906 207.91 148.76C207.808 148.5 207.77 148.218 207.8 147.94C207.8 147.66 207.84 147.327 207.92 146.94C207.989 146.586 208.039 146.229 208.07 145.87C207.87 146.13 207.66 146.39 207.44 146.64C207.221 146.897 206.984 147.138 206.73 147.36C206.513 147.606 206.215 147.765 205.89 147.81C205.777 147.819 205.664 147.801 205.56 147.758C205.455 147.714 205.363 147.646 205.29 147.56C205.155 147.39 205.084 147.177 205.09 146.96C205.102 146.688 205.149 146.419 205.23 146.16C205.319 145.842 205.447 145.537 205.61 145.25C205.77 144.971 205.985 144.726 206.24 144.53C206.496 144.351 206.811 144.276 207.12 144.32C207.524 144.392 207.906 144.552 208.24 144.79C208.24 144.68 208.24 144.58 208.24 144.47C208.24 144.36 208.32 144.36 208.32 144.23ZM208.08 145.14C208.061 145.045 208.019 144.956 207.955 144.882C207.892 144.809 207.811 144.753 207.72 144.72C207.565 144.623 207.382 144.581 207.2 144.6C206.94 144.66 206.706 144.8 206.53 145C206.317 145.222 206.138 145.475 206 145.75C205.859 146.014 205.745 146.292 205.66 146.58C205.586 146.785 205.552 147.002 205.56 147.22C205.567 147.286 205.59 147.35 205.626 147.405C205.663 147.461 205.712 147.507 205.77 147.54C205.87 147.54 206.05 147.46 206.33 147.2C206.657 146.883 206.968 146.549 207.26 146.2C207.55 145.83 207.82 145.48 208.08 145.14Z" fill="white"/>
<path d="M221.3 144.44C221.3 144.66 221.3 145.07 221.3 145.69C221.3 146.31 221.22 147.03 221.15 147.85C221.53 147.59 221.92 147.33 222.32 147.08C222.745 146.819 223.185 146.585 223.64 146.38C223.691 146.368 223.745 146.367 223.796 146.378C223.848 146.388 223.897 146.409 223.94 146.44C224.06 146.51 224.11 146.56 224.07 146.59C223.531 146.858 223.007 147.155 222.5 147.48C222.02 147.79 221.56 148.12 221.12 148.48C221.07 150.16 220.98 151.85 220.88 153.53C220.829 154.875 220.583 156.206 220.15 157.48C219.898 158.234 219.473 158.919 218.91 159.48C218.72 159.648 218.494 159.768 218.249 159.833C218.004 159.897 217.748 159.903 217.5 159.85C217.027 159.757 216.609 159.48 216.34 159.08C215.993 158.565 215.799 157.961 215.78 157.34C215.745 156.425 215.898 155.513 216.23 154.66C216.654 153.437 217.236 152.273 217.96 151.2C218.716 150.079 219.625 149.07 220.66 148.2C220.66 147.65 220.72 147.14 220.75 146.65C220.78 146.16 220.81 145.72 220.85 145.35C220.531 145.945 220.145 146.502 219.7 147.01C219.472 147.291 219.218 147.549 218.94 147.78C218.748 147.952 218.506 148.057 218.25 148.08C218.058 148.088 217.869 148.031 217.713 147.918C217.557 147.806 217.443 147.645 217.39 147.46C217.265 147.042 217.215 146.605 217.24 146.17C217.232 146.033 217.232 145.897 217.24 145.76C217.24 145.59 217.24 145.43 217.29 145.25C217.34 145.07 217.29 144.92 217.29 144.76C217.306 144.637 217.306 144.513 217.29 144.39C217.29 144.337 217.36 144.337 217.5 144.39C217.65 144.39 217.74 144.5 217.76 144.58C217.78 144.66 217.76 144.93 217.76 145.28C217.76 145.63 217.71 145.98 217.69 146.35C217.666 146.683 217.666 147.017 217.69 147.35C217.69 147.64 217.78 147.79 217.88 147.79C218.109 147.77 218.325 147.671 218.49 147.51C218.76 147.288 219.005 147.036 219.22 146.76C219.54 146.382 219.828 145.977 220.08 145.55C220.354 145.107 220.598 144.646 220.81 144.17C220.81 144.17 220.91 144.17 221.07 144.17C221.23 144.17 221.3 144.36 221.3 144.44ZM220.59 148.88C219.678 149.702 218.878 150.64 218.21 151.67C217.571 152.674 217.048 153.748 216.65 154.87C216.354 155.718 216.212 156.612 216.23 157.51C216.235 158.114 216.412 158.703 216.74 159.21C216.816 159.351 216.931 159.468 217.071 159.548C217.21 159.627 217.369 159.666 217.53 159.66C217.848 159.618 218.145 159.479 218.38 159.26C218.957 158.705 219.393 158.019 219.65 157.26C220.079 155.993 220.312 154.667 220.34 153.33C220.42 152.59 220.47 151.84 220.49 151.11C220.51 150.38 220.55 149.63 220.59 148.88Z" fill="white"/>
<path d="M230.97 138.59L231.15 138.7C231.15 138.7 231.21 138.77 231.15 138.78C231.09 138.79 231.15 138.78 231.05 138.78C230.994 138.794 230.936 138.794 230.88 138.78C230.173 138.467 229.793 138.047 229.74 137.52C229.736 137.225 229.806 136.934 229.942 136.672C230.078 136.41 230.276 136.186 230.52 136.02C231.26 135.478 232.144 135.168 233.06 135.13C234.216 135.048 235.373 135.262 236.423 135.752C237.473 136.242 238.381 136.991 239.06 137.93C239.482 138.51 239.847 139.129 240.15 139.78C240.445 140.423 240.68 141.093 240.85 141.78C241.006 142.439 241.122 143.107 241.2 143.78C241.244 144.446 241.244 145.114 241.2 145.78C241.161 146.516 241.064 147.249 240.91 147.97C240.758 148.715 240.53 149.442 240.23 150.14C239.94 150.825 239.552 151.465 239.08 152.04C238.615 152.614 238.049 153.099 237.41 153.47C236.721 153.867 235.953 154.11 235.16 154.18C234.454 154.272 233.737 154.189 233.07 153.94C232.529 153.719 232.047 153.377 231.66 152.94C231.379 152.606 231.195 152.201 231.13 151.77C231.081 151.393 231.147 151.009 231.32 150.67C231.513 150.305 231.799 149.998 232.15 149.78C232.567 149.519 233.033 149.345 233.52 149.27C233.639 149.261 233.756 149.297 233.85 149.37C233.98 149.46 234 149.51 233.93 149.52C233.467 149.6 233.022 149.766 232.62 150.01C232.279 150.22 231.997 150.512 231.8 150.86C231.617 151.181 231.54 151.552 231.58 151.92C231.636 152.34 231.817 152.734 232.1 153.05C232.397 153.364 232.764 153.603 233.17 153.75C233.689 153.949 234.251 154.008 234.8 153.92C235.58 153.841 236.336 153.602 237.02 153.22C237.648 152.85 238.204 152.369 238.66 151.8C239.122 151.216 239.499 150.569 239.78 149.88C240.068 149.178 240.292 148.452 240.45 147.71C240.6 146.992 240.694 146.263 240.73 145.53C240.776 144.864 240.776 144.196 240.73 143.53C240.665 142.92 240.558 142.315 240.41 141.72C240.259 141.065 240.048 140.426 239.78 139.81C239.511 139.183 239.176 138.586 238.78 138.03C238.405 137.476 237.95 136.98 237.43 136.56C236.307 135.642 234.877 135.184 233.43 135.28C232.947 135.297 232.47 135.395 232.02 135.57C231.63 135.72 231.266 135.929 230.94 136.19C230.744 136.355 230.573 136.547 230.43 136.76C230.305 136.957 230.223 137.179 230.19 137.41C230.157 137.631 230.2 137.856 230.31 138.05C230.456 138.305 230.691 138.498 230.97 138.59ZM231.97 136.35C231.93 136.27 231.99 136.27 232.15 136.35C232.264 136.374 232.365 136.443 232.43 136.54C232.499 136.994 232.499 137.456 232.43 137.91C232.35 138.7 232.24 139.69 232.09 140.91C231.98 141.8 231.86 142.77 231.74 143.81C231.62 144.85 231.49 145.91 231.38 146.97C231.27 148.03 231.18 149.07 231.11 150.09C231.04 151.11 231 152.04 231.01 152.88C231.012 153.603 231.062 154.324 231.16 155.04C231.195 155.499 231.366 155.938 231.65 156.3C231.71 156.39 231.65 156.42 231.52 156.39C231.4 156.371 231.287 156.323 231.19 156.25C230.898 155.884 230.727 155.437 230.7 154.97C230.602 154.241 230.552 153.506 230.55 152.77C230.55 151.91 230.58 150.97 230.64 149.95C230.71 148.95 230.81 147.88 230.92 146.82C231.03 145.76 231.14 144.69 231.27 143.64L231.63 140.73C231.77 139.53 231.89 138.53 231.97 137.73C232.024 137.274 232.01 136.812 231.93 136.36L231.97 136.35Z" fill="white"/>
<path d="M241.74 144.25C241.74 144.25 241.74 144.25 241.81 144.25C241.863 144.26 241.914 144.28 241.96 144.31L242.11 144.4C242.11 144.4 242.17 144.45 242.17 144.47C242.08 145.09 241.99 145.71 241.89 146.32C241.79 146.93 241.71 147.54 241.66 148.16C241.633 148.359 241.633 148.561 241.66 148.76C241.66 148.88 241.74 148.93 241.82 148.93C241.939 148.92 242.052 148.871 242.14 148.79L242.63 148.42C242.88 148.2 243.15 147.94 243.42 147.65L244.2 146.78C244.424 146.535 244.634 146.278 244.83 146.01L245.2 145.52C245.229 145.509 245.261 145.509 245.29 145.52C245.34 145.511 245.39 145.511 245.44 145.52C245.493 145.538 245.542 145.569 245.58 145.61C245.58 145.61 245.58 145.68 245.58 145.69L245.21 146.18C245.04 146.42 244.83 146.68 244.59 146.97C244.35 147.26 244.1 147.54 243.83 147.83C243.58 148.096 243.316 148.35 243.04 148.59C242.45 149.06 241.98 149.23 241.63 149.09C241.28 148.95 241.12 148.57 241.15 147.91C241.18 147.25 241.29 146.69 241.4 146.08C241.51 145.47 241.65 144.86 241.74 144.25ZM241.63 143.5C241.63 143.5 241.63 143.41 241.63 143.33C241.651 143.221 241.703 143.12 241.78 143.04C241.78 142.93 241.84 142.87 241.91 142.87C241.98 142.87 242.2 142.87 242.38 143.01C242.56 143.15 242.52 143.11 242.52 143.18C242.556 143.235 242.583 143.296 242.6 143.36C242.607 143.416 242.607 143.474 242.6 143.53C242.594 143.596 242.567 143.658 242.524 143.708C242.481 143.758 242.424 143.794 242.36 143.81C242.25 143.82 242.14 143.82 242.03 143.81C241.946 143.789 241.866 143.75 241.798 143.697C241.729 143.644 241.672 143.577 241.63 143.5Z" fill="white"/>
<path d="M246.57 145.19C246.57 145.19 246.5 145.19 246.36 145.19C246.22 145.19 246.14 145.08 246.14 145.02C246.154 144.753 246.095 144.487 245.97 144.25C245.9 144.09 245.84 144.03 245.8 144.07C245.733 144.13 245.673 144.197 245.62 144.27C245.544 144.498 245.516 144.74 245.54 144.98C245.551 145.23 245.592 145.479 245.66 145.72C245.719 145.967 245.799 146.207 245.9 146.44C246 146.68 246.11 146.9 246.22 147.12C246.51 146.89 246.8 146.64 247.09 146.38C247.376 146.133 247.625 145.847 247.83 145.53H247.93L248.06 145.59C248.109 145.611 248.153 145.641 248.19 145.68C248.19 145.68 248.19 145.75 248.19 145.77C247.96 146.119 247.685 146.435 247.37 146.71C247.051 146.997 246.717 147.268 246.37 147.52C246.54 147.89 246.7 148.32 246.88 148.79C247.043 149.203 247.095 149.651 247.03 150.09C246.964 150.537 246.785 150.961 246.51 151.32C246.29 151.595 245.995 151.8 245.66 151.91C245.381 152.009 245.08 152.03 244.79 151.97C244.517 151.926 244.261 151.808 244.05 151.63C243.847 151.476 243.702 151.257 243.64 151.01C243.561 150.708 243.561 150.392 243.64 150.09C243.808 149.49 244.12 148.941 244.55 148.49C244.965 148.072 245.41 147.685 245.88 147.33L245.55 146.59C245.421 146.311 245.311 146.024 245.22 145.73C245.134 145.452 245.07 145.168 245.03 144.88C244.993 144.629 245.013 144.372 245.09 144.13C245.2 143.88 245.35 143.76 245.55 143.78C245.767 143.802 245.97 143.901 246.12 144.06C246.254 144.171 246.354 144.316 246.41 144.48C246.506 144.705 246.561 144.946 246.57 145.19ZM246.08 147.71C245.661 148.016 245.264 148.35 244.89 148.71C244.503 149.106 244.218 149.59 244.06 150.12C243.972 150.373 243.956 150.645 244.014 150.907C244.073 151.168 244.203 151.408 244.39 151.6C244.449 151.646 244.516 151.68 244.588 151.699C244.661 151.718 244.736 151.722 244.81 151.71C244.958 151.706 245.103 151.675 245.24 151.62C245.564 151.495 245.85 151.289 246.07 151.02C246.338 150.677 246.51 150.27 246.57 149.84C246.648 149.472 246.617 149.09 246.48 148.74C246.34 148.36 246.21 148.02 246.08 147.71Z" fill="white"/>
<path d="M248.95 146.36C248.625 146.454 248.283 146.471 247.95 146.41C247.892 146.573 247.845 146.74 247.81 146.91C247.81 147.11 247.75 147.31 247.73 147.51C247.7 147.702 247.7 147.898 247.73 148.09C247.764 148.268 247.839 148.436 247.95 148.58C247.976 148.636 248.019 148.682 248.073 148.712C248.127 148.743 248.189 148.756 248.25 148.75C248.599 148.752 248.943 148.666 249.25 148.5C249.63 148.303 249.997 148.083 250.35 147.84C250.908 147.47 251.43 147.048 251.91 146.58C252.277 146.26 252.612 145.905 252.91 145.52C252.91 145.52 253 145.52 253.14 145.52C253.28 145.52 253.33 145.62 253.32 145.67C253.037 146.055 252.719 146.413 252.37 146.74C251.904 147.212 251.399 147.644 250.86 148.03C250.49 148.287 250.095 148.504 249.68 148.68C249.367 148.833 249.027 148.921 248.68 148.94C248.472 148.956 248.263 148.919 248.073 148.834C247.882 148.748 247.716 148.616 247.59 148.45C247.384 148.159 247.282 147.806 247.3 147.45C247.33 146.582 247.646 145.749 248.2 145.08C248.459 144.762 248.807 144.529 249.2 144.41C249.377 144.369 249.558 144.349 249.74 144.35C249.91 144.355 250.077 144.396 250.23 144.47C250.356 144.528 250.458 144.627 250.52 144.75C250.543 144.827 250.549 144.907 250.539 144.986C250.529 145.066 250.502 145.142 250.46 145.21C250.33 145.481 250.134 145.715 249.89 145.89C249.6 146.09 249.284 146.249 248.95 146.36ZM248.02 146.18C248.186 146.177 248.35 146.154 248.51 146.11C248.804 146.001 249.08 145.85 249.33 145.66C249.575 145.496 249.775 145.272 249.91 145.01C249.966 144.966 250.005 144.904 250.02 144.835C250.034 144.765 250.024 144.693 249.99 144.63C249.99 144.63 249.9 144.57 249.77 144.63H249.52C249.185 144.751 248.886 144.954 248.65 145.22C248.397 145.499 248.185 145.812 248.02 146.15V146.18Z" fill="white"/>
<path d="M253.38 145.44L253.05 147.44C253.18 147.2 253.33 146.95 253.5 146.68C253.67 146.41 253.86 146.13 254.05 145.86C254.236 145.587 254.437 145.323 254.65 145.07C254.845 144.836 255.059 144.619 255.29 144.42C255.407 144.293 255.556 144.199 255.72 144.146C255.885 144.093 256.061 144.084 256.23 144.12C256.383 144.146 256.521 144.226 256.62 144.345C256.719 144.464 256.772 144.615 256.77 144.77C256.793 145.036 256.793 145.304 256.77 145.57C256.77 145.88 256.77 146.21 256.77 146.57C256.77 146.77 256.77 146.97 256.77 147.17V147.74C256.77 148.3 256.77 148.59 256.89 148.6C257.01 148.61 257.2 148.37 257.56 147.86L258.26 146.79L259.09 145.47C259.09 145.41 259.2 145.41 259.31 145.47C259.42 145.53 259.47 145.61 259.47 145.67C259.18 146.14 258.92 146.58 258.68 146.98C258.44 147.38 258.23 147.74 258.03 148.06C257.503 148.84 257.083 149.173 256.77 149.06C256.46 148.91 256.3 148.42 256.3 147.56V147.01C256.3 146.81 256.3 146.62 256.3 146.41C256.3 146.2 256.3 145.81 256.3 145.52C256.315 145.274 256.315 145.026 256.3 144.78C256.3 144.56 256.3 144.43 256.19 144.4C256.08 144.37 255.96 144.46 255.72 144.66C255.426 144.913 255.161 145.198 254.93 145.51C254.64 145.9 254.35 146.3 254.07 146.72C253.79 147.14 253.53 147.55 253.31 147.94C253.126 148.261 252.966 148.595 252.83 148.94C252.83 149.02 252.73 149.02 252.58 148.94C252.43 148.86 252.36 148.81 252.36 148.74C252.36 148.32 252.46 147.84 252.54 147.31C252.62 146.78 252.73 146.13 252.86 145.38C252.946 145.355 253.037 145.347 253.126 145.357C253.215 145.367 253.302 145.396 253.38 145.44Z" fill="white"/>
<path d="M259.06 145.49C259.06 145.49 259.06 145.49 259.17 145.49C259.22 145.5 259.268 145.521 259.31 145.55C259.266 145.323 259.308 145.087 259.43 144.89C259.553 144.704 259.722 144.553 259.92 144.45C260.372 144.223 260.89 144.166 261.38 144.29C261.695 144.39 261.982 144.561 262.22 144.79C262.417 144.982 262.565 145.219 262.65 145.48C262.737 145.73 262.774 145.995 262.76 146.26C262.749 146.534 262.709 146.805 262.64 147.07C263.022 146.897 263.376 146.668 263.69 146.39C263.994 146.126 264.266 145.827 264.5 145.5H264.59L264.74 145.57C264.793 145.599 264.84 145.636 264.88 145.68C264.88 145.68 264.88 145.74 264.88 145.76C264.585 146.145 264.25 146.497 263.88 146.81C263.486 147.142 263.009 147.359 262.5 147.44C262.355 147.741 262.158 148.015 261.92 148.25C261.666 148.51 261.368 148.723 261.04 148.88C260.729 149.029 260.384 149.094 260.04 149.07C259.863 149.046 259.694 148.981 259.547 148.88C259.399 148.78 259.277 148.646 259.19 148.49C259.074 148.289 258.993 148.069 258.95 147.84C258.892 147.57 258.858 147.296 258.85 147.02C258.83 146.744 258.83 146.466 258.85 146.19C258.907 145.953 258.977 145.719 259.06 145.49ZM259.47 145.91C259.47 146.1 259.4 146.31 259.37 146.55C259.355 146.796 259.355 147.044 259.37 147.29C259.38 147.535 259.41 147.78 259.46 148.02C259.507 148.227 259.592 148.424 259.71 148.6C259.766 148.694 259.851 148.766 259.952 148.806C260.054 148.846 260.165 148.851 260.27 148.82C260.52 148.76 260.753 148.644 260.95 148.48C261.175 148.311 261.383 148.12 261.57 147.91C261.699 147.77 261.816 147.619 261.92 147.46C261.661 147.44 261.405 147.386 261.16 147.3C260.903 147.219 260.655 147.111 260.42 146.98C260.196 146.856 259.994 146.697 259.82 146.51C259.654 146.343 259.533 146.137 259.47 145.91ZM262.04 147.2C262.12 146.967 262.187 146.73 262.24 146.49C262.307 146.229 262.331 145.959 262.31 145.69C262.293 145.439 262.218 145.196 262.09 144.98C261.96 144.75 261.744 144.581 261.49 144.51C261.217 144.445 260.933 144.445 260.66 144.51C260.388 144.566 260.142 144.71 259.96 144.92C259.863 145.034 259.792 145.169 259.754 145.315C259.716 145.46 259.711 145.612 259.74 145.76C259.823 146.049 259.986 146.31 260.21 146.51C260.461 146.739 260.753 146.919 261.07 147.04C261.376 147.169 261.709 147.223 262.04 147.2Z" fill="white"/>
<path d="M130.84 0L101.59 16.53L130.06 33.19L159.21 16.53L130.84 0Z" fill="white"/>
<path d="M159.21 16.53V49.94L130.06 66.65V33.19L159.21 16.53Z" fill="white"/>
<path d="M252.97 142.28C253.312 142.332 253.661 142.3 253.988 142.189C254.315 142.078 254.611 141.889 254.85 141.64C255.92 140.74 255.92 140.93 256.97 141.64" stroke="white" stroke-width="0.65" stroke-miterlimit="10"/>
</g>
<defs>
<clipPath id="clip0">
<rect width="264.92" height="159.91" fill="white"/>
</clipPath>
</defs>
</svg>
