<svg width="250" height="151" viewBox="0 0 250 151" fill="none" xmlns="http://www.w3.org/2000/svg">
<g clip-path="url(#clip0)">
<path d="M9.34 112.26C16.1 119.593 25.0533 123.26 36.2 123.26C46.82 123.26 55.4867 119.823 62.2 112.95C68.9133 106.077 72.2933 97.15 72.34 86.17C72.34 75.39 68.96 66.5333 62.2 59.6C55.44 52.6667 46.7733 49.16 36.2 49.08C23.6133 49.08 13.7133 54.0333 6.5 63.94L9.74 66.47C16.04 57.5767 24.86 53.1333 36.2 53.14C45.44 53.14 53.1067 56.2733 59.2 62.54C65.2933 68.8067 68.3433 76.6867 68.35 86.18C68.35 95.7467 65.35 103.63 59.35 109.83C53.19 116.03 45.4867 119.13 36.24 119.13C26.34 119.13 18.3733 115.727 12.34 108.92C7.90145 104.133 5.13931 98.0334 4.47 91.54H27.64V87.4H0C0 97.24 3.11333 105.527 9.34 112.26Z" fill="white"/>
<path d="M75.6899 122.26V50.11H79.6899V118.11H100.01V122.25L75.6899 122.26Z" fill="white"/>
<path d="M101.26 73.04C100.407 72.9964 99.5907 72.681 98.9301 72.14C98.3066 71.4822 97.9501 70.6161 97.9301 69.71C97.9301 67.89 99.0401 66.7767 101.26 66.37C102.94 66.37 104.05 67.49 104.6 69.71C104.6 71.93 103.48 73.04 101.26 73.04ZM99.1301 122.26V80.52H103.28V122.26H99.1301Z" fill="white"/>
<path d="M122.97 124.08L103.27 80.52H107.71L122.87 113.73L138.12 80.48H142.77L122.97 124.08Z" fill="white"/>
<path d="M180.98 121.42V114.24C178.185 117.716 174.377 120.234 170.085 121.447C165.793 122.659 161.23 122.504 157.029 121.005C152.829 119.505 149.2 116.734 146.647 113.078C144.093 109.421 142.742 105.06 142.78 100.6C142.741 97.7632 143.271 94.9473 144.339 92.3187C145.406 89.6902 146.99 87.3023 148.996 85.2961C151.002 83.29 153.39 81.7063 156.019 80.6386C158.647 79.571 161.463 79.041 164.3 79.08C167.497 79.0372 170.661 79.7248 173.552 81.0904C176.442 82.456 178.983 84.4635 180.98 86.96V79.73H185.13V121.47L180.98 121.42ZM176.64 88.27C175.021 86.6502 173.098 85.3651 170.983 84.4882C168.867 83.6113 166.599 83.1597 164.308 83.1592C162.018 83.1588 159.75 83.6094 157.634 84.4855C155.518 85.3615 153.595 86.6458 151.975 88.265C150.355 89.8842 149.07 91.8066 148.193 93.9224C147.316 96.0383 146.865 98.3061 146.864 100.596C146.864 102.887 147.314 105.155 148.19 107.271C149.066 109.387 150.351 111.31 151.97 112.93C153.589 114.55 155.512 115.835 157.627 116.712C159.743 117.589 162.011 118.04 164.301 118.041C166.592 118.041 168.86 117.591 170.976 116.715C173.092 115.839 175.015 114.554 176.635 112.935C178.255 111.316 179.54 109.393 180.417 107.278C181.294 105.162 181.745 102.894 181.746 100.604C181.746 98.3132 181.296 96.0452 180.42 93.929C179.543 91.8128 178.259 89.8899 176.64 88.27Z" fill="white"/>
<path d="M208.74 85.85C207.686 85.0542 206.529 84.405 205.3 83.92C204.074 83.4536 202.772 83.2164 201.46 83.22C200.299 83.2247 199.168 83.5957 198.23 84.28C197.207 84.9975 196.318 85.8874 195.6 86.91C194.842 87.9763 194.245 89.149 193.83 90.39C193.42 91.5263 193.201 92.7223 193.18 93.93V121.42H189.03V79.73H193.18V85.39C194.087 83.8005 195.245 82.3686 196.61 81.15C197.858 79.94 199.522 79.253 201.26 79.23C203.007 79.18 204.75 79.4165 206.42 79.93C208.044 80.5631 209.575 81.4142 210.97 82.46L208.74 85.85Z" fill="white"/>
<path d="M240.34 121.42L218.51 99.73L216.18 102.05V121.46H212.04V12.95H216.18V96.05L234.27 78.05H240.13L221.24 96.85L245.79 121.41L240.34 121.42Z" fill="white"/>
<path d="M101.08 147.41L101.93 147.15C101.689 146.622 101.556 146.051 101.54 145.47C101.54 144.87 101.47 144.18 101.48 143.39C101.49 142.6 101.48 141.75 101.59 140.84C101.7 139.93 101.71 139.02 101.8 138.06C101.89 137.1 101.98 136.17 102.08 135.24C102.18 134.31 102.29 133.42 102.41 132.56C102.53 131.7 102.63 130.92 102.73 130.23C102.83 129.54 102.92 128.95 103 128.47C103.08 127.99 103.13 127.65 103.17 127.47C103.17 127.47 103.24 127.47 103.37 127.47C103.5 127.47 103.6 127.56 103.6 127.62C103.6 127.68 103.51 128.15 103.44 128.62C103.37 129.09 103.27 129.7 103.17 130.39C103.07 131.08 102.96 131.86 102.84 132.72C102.72 133.58 102.63 134.47 102.54 135.4C102.45 136.33 102.35 137.27 102.26 138.22C102.17 139.17 102.11 140.1 102.06 141C102.01 141.9 101.92 142.74 101.92 143.54C101.92 144.34 101.92 145.03 101.98 145.63C101.98 145.94 102.05 146.21 102.07 146.45C102.09 146.69 102.13 146.88 102.16 147.04C103.09 146.79 104.09 146.54 105.16 146.28C106.23 146.02 107.28 145.8 108.3 145.61C109.32 145.42 110.25 145.28 111.12 145.2C111.817 145.113 112.523 145.113 113.22 145.2C113.326 145.232 113.418 145.299 113.48 145.39C113.56 145.5 113.54 145.54 113.4 145.51C112.878 145.458 112.352 145.458 111.83 145.51C111.19 145.51 110.49 145.63 109.73 145.74C108.97 145.85 108.16 145.99 107.33 146.15C106.5 146.31 105.68 146.48 104.89 146.67C104.1 146.86 103.36 147.05 102.65 147.25C101.94 147.45 101.34 147.65 100.85 147.82C100.846 147.736 100.867 147.652 100.91 147.58C100.964 147.52 101.02 147.464 101.08 147.41Z" fill="white"/>
<path d="M117.11 137.03C116.85 137.5 116.6 137.95 116.34 138.38C116.104 138.788 115.84 139.178 115.55 139.55C115.322 139.862 115.053 140.141 114.75 140.38C114.522 140.571 114.237 140.68 113.94 140.69C113.839 140.688 113.74 140.658 113.656 140.604C113.571 140.549 113.503 140.471 113.46 140.38C113.34 140.117 113.302 139.825 113.35 139.54C113.4 138.97 113.48 138.39 113.58 137.81C113.68 137.23 113.78 136.65 113.86 136.08C113.86 136.08 113.86 136.08 113.93 136.08L114.07 136.14L114.21 136.23C114.21 136.23 114.28 136.23 114.28 136.29C114.19 136.88 114.1 137.46 113.99 138.04C113.888 138.615 113.821 139.196 113.79 139.78C113.79 140.26 113.79 140.51 113.94 140.51C114.198 140.491 114.438 140.372 114.61 140.18C114.896 139.902 115.15 139.593 115.37 139.26C115.64 138.87 115.92 138.42 116.22 137.92C116.52 137.42 116.84 136.87 117.16 136.29C117.16 135.66 117.24 135.03 117.3 134.4C117.36 133.77 117.45 133.16 117.56 132.59C117.662 132.047 117.802 131.513 117.98 130.99C118.125 130.531 118.337 130.096 118.61 129.7C118.649 129.617 118.706 129.545 118.778 129.488C118.85 129.432 118.934 129.394 119.024 129.376C119.114 129.359 119.206 129.362 119.294 129.387C119.382 129.412 119.463 129.458 119.53 129.52C119.632 129.65 119.704 129.8 119.74 129.961C119.776 130.122 119.776 130.289 119.74 130.45C119.712 130.786 119.665 131.12 119.6 131.45C119.507 131.927 119.383 132.398 119.23 132.86C119.035 133.424 118.811 133.978 118.56 134.52C118.28 135.11 117.95 135.71 117.56 136.33C117.56 136.55 117.56 136.71 117.56 136.81C117.56 136.91 117.56 137.07 117.56 137.3C117.795 137.045 118.06 136.82 118.35 136.63C118.542 136.506 118.756 136.421 118.98 136.38C119.161 136.347 119.348 136.364 119.52 136.43C119.667 136.492 119.797 136.588 119.9 136.71C119.995 136.833 120.06 136.977 120.09 137.13C120.11 137.283 120.11 137.437 120.09 137.59C120.029 138.023 119.865 138.435 119.61 138.79C119.274 139.261 118.849 139.661 118.36 139.97C119.103 139.699 119.795 139.307 120.41 138.81C120.979 138.364 121.478 137.834 121.89 137.24C121.89 137.24 121.98 137.24 122.1 137.24C122.22 137.24 122.27 137.35 122.25 137.4C121.817 138.007 121.317 138.564 120.76 139.06C120.188 139.574 119.503 139.948 118.76 140.15C118.515 140.211 118.263 140.241 118.01 140.24C117.905 140.248 117.8 140.228 117.705 140.182C117.61 140.137 117.529 140.067 117.47 139.98C118.098 139.697 118.645 139.26 119.06 138.71C119.349 138.322 119.547 137.875 119.64 137.4V137.19C119.65 137.094 119.65 136.996 119.64 136.9C119.627 136.813 119.593 136.73 119.54 136.66C119.515 136.624 119.479 136.598 119.438 136.583C119.397 136.569 119.352 136.568 119.31 136.58C119.045 136.637 118.798 136.757 118.59 136.93C118.241 137.206 117.929 137.525 117.66 137.88C117.64 137.89 117.617 137.895 117.595 137.895C117.572 137.895 117.55 137.89 117.53 137.88C117.53 138.48 117.53 139.08 117.53 139.66C117.53 140.24 117.47 140.81 117.4 141.39C117.4 141.39 117.4 141.39 117.32 141.39H117.15L117 141.32C117 141.32 116.93 141.27 116.93 141.24C117.029 140.578 117.086 139.91 117.1 139.24C117.05 138.59 117.08 137.82 117.11 137.03ZM113.76 135.37C113.748 135.345 113.741 135.318 113.741 135.29C113.741 135.262 113.748 135.235 113.76 135.21C113.781 135.106 113.83 135.01 113.9 134.93C113.9 134.83 113.96 134.78 114.03 134.78C114.1 134.78 114.3 134.78 114.47 134.91C114.64 135.04 114.6 135 114.6 135.06C114.634 135.116 114.661 135.177 114.68 135.24C114.68 135.31 114.68 135.36 114.68 135.39C114.674 135.453 114.649 135.513 114.607 135.561C114.566 135.609 114.511 135.644 114.45 135.66H114.14C113.98 135.617 113.844 135.513 113.76 135.37ZM117.7 135.22C117.969 134.737 118.213 134.239 118.43 133.73C118.63 133.24 118.8 132.73 118.93 132.33C119.046 131.939 119.14 131.542 119.21 131.14C119.263 130.85 119.293 130.555 119.3 130.26C119.3 130.18 119.3 130.1 119.3 130V129.73C119.3 129.67 119.3 129.64 119.22 129.64C119.14 129.64 119.11 129.7 119.02 129.82C118.78 130.155 118.604 130.531 118.5 130.93C118.353 131.41 118.223 131.91 118.11 132.43C118 132.95 117.91 133.43 117.84 133.95C117.77 134.47 117.74 134.89 117.7 135.22Z" fill="white"/>
<path d="M122.22 135.28C122.22 135.227 122.29 135.227 122.43 135.28C122.58 135.34 122.65 135.39 122.65 135.44C122.65 135.49 122.65 135.86 122.58 136.14C122.51 136.42 122.5 136.73 122.45 137.05L122.74 136.75L123.1 136.41C123.226 136.297 123.359 136.194 123.5 136.1C123.624 136.022 123.754 135.955 123.89 135.9C124.032 135.869 124.178 135.869 124.32 135.9C124.5 135.9 124.59 136 124.59 136.12L124.77 137.12C124.791 137.298 124.86 137.468 124.97 137.61C124.97 137.61 125.1 137.61 125.26 137.61C125.517 137.538 125.761 137.423 125.98 137.27C126.033 137.258 126.088 137.257 126.141 137.267C126.195 137.278 126.245 137.299 126.29 137.33C126.43 137.41 126.47 137.46 126.42 137.49C126.087 137.756 125.666 137.888 125.24 137.86C124.968 137.815 124.721 137.677 124.54 137.47C124.403 137.286 124.308 137.074 124.26 136.85C124.206 136.641 124.176 136.426 124.17 136.21C123.992 136.298 123.824 136.406 123.67 136.53C123.49 136.67 123.31 136.82 123.14 136.98C122.973 137.137 122.816 137.304 122.67 137.48C122.541 137.62 122.424 137.771 122.32 137.93C122.23 138.53 122.15 139.12 122.07 139.68C122.007 140.131 121.971 140.585 121.96 141.04C121.96 141.1 121.88 141.1 121.74 141.04C121.6 140.98 121.52 140.93 121.52 140.85C121.52 139.912 121.6 138.975 121.76 138.05C121.93 137.11 122.08 136.2 122.22 135.28Z" fill="white"/>
<path d="M127.04 138.04C126.715 138.132 126.373 138.149 126.04 138.09C125.986 138.243 125.942 138.4 125.91 138.56C125.876 138.745 125.853 138.932 125.84 139.12C125.815 139.302 125.815 139.488 125.84 139.67C125.873 139.841 125.944 140.002 126.05 140.14C126.076 140.19 126.117 140.232 126.167 140.259C126.217 140.285 126.274 140.296 126.33 140.29C126.658 140.3 126.983 140.221 127.27 140.06C127.616 139.871 127.95 139.661 128.27 139.43C128.794 139.081 129.286 138.686 129.74 138.25C130.068 137.943 130.369 137.608 130.64 137.25C130.64 137.25 130.73 137.25 130.86 137.25C130.99 137.25 131.04 137.35 131.02 137.39C130.757 137.752 130.459 138.087 130.13 138.39C129.69 138.835 129.212 139.24 128.7 139.6C128.355 139.842 127.986 140.05 127.6 140.22C127.286 140.365 126.946 140.447 126.6 140.46C126.409 140.469 126.218 140.431 126.044 140.351C125.87 140.271 125.718 140.151 125.6 140C125.404 139.705 125.31 139.354 125.33 139C125.341 138.596 125.422 138.197 125.57 137.82C125.712 137.435 125.918 137.076 126.18 136.76C126.417 136.463 126.737 136.244 127.1 136.13C127.263 136.089 127.431 136.069 127.6 136.07C127.764 136.075 127.924 136.116 128.07 136.19C128.135 136.214 128.194 136.253 128.243 136.304C128.291 136.354 128.327 136.415 128.348 136.481C128.369 136.548 128.375 136.618 128.365 136.687C128.355 136.756 128.329 136.822 128.29 136.88C128.166 137.138 127.976 137.358 127.74 137.52C127.532 137.725 127.297 137.901 127.04 138.04ZM126.16 137.86C126.315 137.86 126.47 137.84 126.62 137.8C126.899 137.699 127.162 137.558 127.4 137.38C127.625 137.217 127.81 137.005 127.94 136.76C127.994 136.722 128.032 136.664 128.045 136.599C128.058 136.534 128.045 136.466 128.01 136.41C128.01 136.36 127.93 136.35 127.81 136.41H127.58C127.261 136.52 126.976 136.71 126.75 136.96C126.507 137.227 126.308 137.531 126.16 137.86Z" fill="white"/>
<path d="M136.87 142.08C136.8 142.08 136.7 142.08 136.57 142.01C136.44 141.94 136.41 141.89 136.48 141.88C136.725 141.781 136.944 141.627 137.12 141.43C137.429 141.114 137.72 140.78 137.99 140.43C138.31 140.02 138.65 139.54 138.99 139C139.33 138.46 139.74 137.87 140.14 137.26L137.89 137.47L136.58 137.57C136.456 137.564 136.336 137.519 136.24 137.44C136.12 137.36 136.11 137.32 136.24 137.32C136.37 137.32 137 137.32 137.76 137.22C138.52 137.12 139.38 137.07 140.36 136.95C140.98 135.95 141.61 134.95 142.24 133.87C142.87 132.79 143.46 131.87 144 130.87C144.54 129.87 145.07 129.08 145.47 128.44C145.656 128.071 145.899 127.733 146.19 127.44C146.34 127.34 146.48 127.39 146.6 127.6C146.651 128.015 146.651 128.435 146.6 128.85C146.6 129.56 146.53 130.47 146.46 131.57C146.46 132.26 146.36 133 146.33 133.79C146.3 134.58 146.25 135.38 146.2 136.22C146.95 136.1 147.59 136 148.09 135.9C148.43 135.855 148.765 135.778 149.09 135.67C149.09 135.67 149.21 135.67 149.35 135.74C149.49 135.81 149.54 135.87 149.5 135.91C149.143 136.021 148.779 136.105 148.41 136.16C147.81 136.26 147.09 136.37 146.23 136.49C146.23 137.55 146.17 138.59 146.16 139.63C146.15 140.67 146.16 141.63 146.23 142.49C146.268 143.238 146.355 143.983 146.49 144.72C146.541 145.188 146.718 145.633 147 146.01C147.05 146.09 147 146.11 146.89 146.07C146.782 146.048 146.686 145.988 146.62 145.9C146.333 145.536 146.15 145.1 146.09 144.64C145.943 143.914 145.846 143.179 145.8 142.44C145.74 141.59 145.71 140.66 145.71 139.64C145.71 138.62 145.71 137.64 145.79 136.55C144.95 136.67 144.11 136.78 143.28 136.87L140.74 137.17C140.33 137.82 139.93 138.43 139.54 139.01C139.15 139.59 138.79 140.1 138.46 140.55C138.176 140.907 137.865 141.241 137.53 141.55C137.353 141.775 137.128 141.956 136.87 142.08ZM144.44 131.08C143.93 131.97 143.37 132.91 142.77 133.92C142.17 134.93 141.57 135.92 140.96 136.92L145.81 136.33C145.81 135.45 145.88 134.59 145.93 133.76C145.98 132.93 146.01 132.15 146.04 131.41L146.22 128.19C146.03 128.48 145.78 128.88 145.48 129.38C145.18 129.88 144.81 130.43 144.43 131.09L144.44 131.08Z" fill="white"/>
<path d="M149.87 135.28C149.87 135.23 149.95 135.23 150.09 135.28C150.23 135.33 150.31 135.39 150.31 135.44C150.31 135.49 150.31 135.86 150.23 136.14C150.15 136.42 150.16 136.73 150.11 137.05L150.4 136.75L150.76 136.41C150.884 136.295 151.018 136.191 151.16 136.1C151.284 136.022 151.414 135.955 151.55 135.9C151.688 135.87 151.832 135.87 151.97 135.9C152.15 135.9 152.24 136 152.24 136.12C152.33 136.55 152.39 136.86 152.42 137.12C152.447 137.299 152.519 137.467 152.63 137.61C152.63 137.61 152.76 137.61 152.91 137.61C153.172 137.541 153.419 137.426 153.64 137.27C153.693 137.258 153.748 137.257 153.801 137.267C153.855 137.278 153.905 137.299 153.95 137.33C154.08 137.41 154.13 137.46 154.07 137.49C153.74 137.756 153.323 137.888 152.9 137.86C152.625 137.815 152.375 137.678 152.19 137.47C152.061 137.283 151.969 137.072 151.92 136.85C151.866 136.641 151.836 136.426 151.83 136.21C151.652 136.298 151.485 136.406 151.33 136.53C151.15 136.67 150.97 136.82 150.8 136.98C150.63 137.14 150.47 137.31 150.32 137.48C150.197 137.623 150.084 137.773 149.98 137.93C149.89 138.53 149.81 139.12 149.73 139.68C149.662 140.13 149.626 140.585 149.62 141.04C149.62 141.1 149.54 141.1 149.4 141.04C149.26 140.98 149.18 140.93 149.18 140.85C149.18 139.912 149.26 138.975 149.42 138.05C149.59 137.11 149.74 136.2 149.87 135.28Z" fill="white"/>
<path d="M156.21 136.63L156.32 136.08C156.32 136.08 156.37 136.08 156.42 136.08L156.58 136.14L156.72 136.24C156.72 136.24 156.77 136.3 156.72 136.32C156.53 137.15 156.36 137.83 156.23 138.32C156.1 138.81 155.98 139.32 155.89 139.82C156.06 139.68 156.26 139.5 156.5 139.28L157.19 138.57C157.42 138.33 157.64 138.09 157.84 137.85C158 137.668 158.141 137.471 158.26 137.26C158.26 137.26 158.26 137.26 158.37 137.26H158.52C158.569 137.281 158.613 137.311 158.65 137.35C158.65 137.35 158.65 137.41 158.65 137.43C158.516 137.659 158.359 137.874 158.18 138.07C157.933 138.363 157.653 138.663 157.34 138.97C157.03 139.28 156.73 139.57 156.43 139.83C156.223 140.032 155.983 140.198 155.72 140.32C155.89 141.02 156.03 141.77 156.15 142.55C156.27 143.33 156.35 144.1 156.39 144.82V145.47C156.392 145.77 156.355 146.069 156.28 146.36C156.264 146.457 156.229 146.55 156.175 146.633C156.122 146.715 156.052 146.786 155.97 146.84C155.84 146.92 155.63 146.79 155.36 146.47C155.107 146.037 154.944 145.557 154.88 145.06C154.8 144.527 154.77 143.988 154.79 143.45C154.809 142.911 154.859 142.373 154.94 141.84C155.03 141.31 155.12 140.84 155.23 140.38C155.34 139.92 155.45 139.49 155.55 139.08L155.82 137.87C155.67 138.07 155.5 138.28 155.33 138.49C155.165 138.688 154.985 138.872 154.79 139.04C154.652 139.179 154.489 139.291 154.31 139.37C154.2 139.421 154.081 139.452 153.96 139.46C153.855 139.468 153.75 139.451 153.653 139.411C153.556 139.371 153.469 139.309 153.4 139.23C153.28 139.072 153.217 138.878 153.22 138.68C153.225 138.42 153.262 138.161 153.33 137.91C153.408 137.604 153.529 137.311 153.69 137.04C153.846 136.781 154.05 136.554 154.29 136.37C154.403 136.28 154.533 136.216 154.673 136.182C154.813 136.147 154.958 136.143 155.1 136.17C155.51 136.199 155.9 136.36 156.21 136.63ZM156.03 136.92C156.008 136.777 155.933 136.647 155.82 136.557C155.707 136.466 155.564 136.421 155.42 136.43C155.14 136.421 154.867 136.522 154.66 136.71C154.438 136.89 154.257 137.115 154.13 137.37C153.993 137.623 153.889 137.891 153.82 138.17C153.756 138.402 153.719 138.64 153.71 138.88C153.698 138.985 153.723 139.091 153.78 139.18C153.806 139.193 153.835 139.2 153.865 139.2C153.894 139.2 153.924 139.193 153.95 139.18C154.029 139.147 154.103 139.104 154.17 139.05L154.41 138.84C154.724 138.557 155.012 138.246 155.27 137.91C155.54 137.59 155.79 137.25 156.03 136.92ZM155.6 141.3C155.48 141.907 155.4 142.522 155.36 143.14C155.32 143.739 155.32 144.341 155.36 144.94C155.388 145.089 155.408 145.239 155.42 145.39C155.445 145.585 155.482 145.779 155.53 145.97C155.562 146.121 155.609 146.268 155.67 146.41C155.67 146.52 155.77 146.52 155.82 146.41C155.97 145.867 156.024 145.302 155.98 144.74C155.961 144.157 155.907 143.576 155.82 143C155.77 142.43 155.68 141.86 155.6 141.3Z" fill="white"/>
<path d="M158.3 137.25C158.3 137.25 158.3 137.25 158.37 137.25H158.52C158.58 137.259 158.638 137.28 158.69 137.31C158.74 137.31 158.77 137.37 158.77 137.4C158.781 137.737 158.744 138.074 158.66 138.4C158.595 138.73 158.595 139.07 158.66 139.4C158.66 139.64 158.79 139.69 158.95 139.55C159.192 139.316 159.41 139.058 159.6 138.78C159.83 138.46 160.05 138.12 160.26 137.78C160.458 137.457 160.639 137.123 160.8 136.78C160.96 136.45 161.08 136.18 161.16 135.96C161.16 135.96 161.16 135.96 161.24 135.96L161.39 136.01C161.443 136.031 161.493 136.057 161.54 136.09L161.6 136.15C161.542 136.293 161.495 136.44 161.46 136.59L161.34 137.14C161.34 137.34 161.28 137.52 161.25 137.7C161.22 137.88 161.25 138.03 161.19 138.16C161.19 138.51 161.11 138.88 161.06 139.25C161.005 139.605 161.005 139.965 161.06 140.32C161.06 140.47 161.17 140.52 161.27 140.46C161.412 140.373 161.535 140.257 161.63 140.12C161.835 139.868 162.026 139.604 162.2 139.33C162.41 139 162.59 138.69 162.77 138.39C162.95 138.09 163.14 137.73 163.36 137.3C163.36 137.3 163.45 137.3 163.59 137.3C163.73 137.3 163.79 137.41 163.77 137.47L163.53 137.93L163.13 138.67L162.64 139.5C162.481 139.76 162.307 140.01 162.12 140.25C161.918 140.566 161.609 140.8 161.25 140.91C160.95 140.97 160.76 140.74 160.68 140.22C160.608 139.811 160.591 139.394 160.63 138.98C160.63 138.56 160.7 138.16 160.76 137.78C160.67 137.91 160.54 138.12 160.37 138.4C160.201 138.687 160.01 138.961 159.8 139.22C159.628 139.452 159.41 139.646 159.16 139.79C159.056 139.853 158.934 139.88 158.813 139.867C158.692 139.854 158.579 139.803 158.49 139.72C158.389 139.643 158.308 139.543 158.254 139.428C158.2 139.313 158.175 139.187 158.18 139.06C158.175 138.744 158.209 138.428 158.28 138.12C158.341 137.834 158.348 137.539 158.3 137.25Z" fill="white"/>
<path d="M167.99 134.42C167.937 134.64 167.867 134.89 167.78 135.17C167.68 135.45 167.6 135.74 167.52 136.03C167.44 136.32 167.37 136.61 167.31 136.89C167.254 137.136 167.224 137.388 167.22 137.64C167.22 138.48 167.19 139.23 167.13 139.89C167.098 140.392 167.129 140.896 167.22 141.39C167.27 141.57 167.32 141.67 167.36 141.69C167.4 141.71 167.51 141.69 167.69 141.55C168.022 141.302 168.319 141.01 168.57 140.68C168.89 140.29 169.2 139.87 169.5 139.43C169.8 138.99 170.08 138.57 170.33 138.17C170.58 137.77 170.78 137.47 170.93 137.25C170.93 137.25 170.98 137.25 171.04 137.25C171.148 137.262 171.249 137.307 171.33 137.38C171.33 137.38 171.39 137.44 171.33 137.46C171.16 137.71 170.93 138.06 170.64 138.53C170.35 139 170.03 139.46 169.69 139.94C169.379 140.387 169.045 140.818 168.69 141.23C168.441 141.535 168.122 141.775 167.76 141.93C167.677 141.976 167.585 142.002 167.49 142.006C167.395 142.011 167.301 141.993 167.214 141.956C167.127 141.918 167.05 141.861 166.989 141.789C166.927 141.717 166.883 141.632 166.86 141.54C166.781 141.36 166.737 141.167 166.73 140.97C166.73 140.73 166.73 140.44 166.73 140.1C166.73 139.76 166.73 139.39 166.73 138.99C166.73 138.577 166.73 138.147 166.73 137.7C166.49 138.02 166.19 138.39 165.83 138.79C165.499 139.143 165.148 139.476 164.78 139.79C164.23 140.23 163.78 140.39 163.46 140.26C163.14 140.13 162.98 139.77 163.01 139.15C163.04 138.53 163.14 138 163.24 137.42C163.34 136.84 163.44 136.26 163.52 135.68C163.52 135.68 163.52 135.68 163.59 135.68L163.73 135.74L163.87 135.83C163.883 135.836 163.896 135.844 163.906 135.854C163.916 135.864 163.924 135.877 163.93 135.89C163.85 136.483 163.76 137.063 163.66 137.63C163.57 138.21 163.5 138.79 163.45 139.38C163.423 139.566 163.423 139.754 163.45 139.94C163.45 140.05 163.53 140.1 163.6 140.1C163.711 140.089 163.816 140.044 163.9 139.97L164.36 139.62C164.606 139.407 164.839 139.18 165.06 138.94L165.76 138.16C165.97 137.91 166.16 137.68 166.33 137.46L166.72 136.95C166.719 136.616 166.736 136.282 166.77 135.95C166.77 135.59 166.81 135.22 166.89 134.84C166.352 135.031 165.804 135.194 165.25 135.33C164.7 135.47 164.15 135.6 163.62 135.7C163.412 135.74 163.198 135.74 162.99 135.7C162.86 135.7 162.79 135.61 162.77 135.53C162.75 135.45 162.77 135.37 163.03 135.31C163.227 135.289 163.425 135.328 163.6 135.42C164.157 135.305 164.708 135.161 165.25 134.99C165.8 134.83 166.35 134.64 166.9 134.43C166.9 134.01 167 133.59 167.06 133.19C167.12 132.79 167.18 132.41 167.24 132.08C167.3 131.75 167.36 131.47 167.42 131.22C167.48 130.97 167.53 130.8 167.57 130.68C167.594 130.602 167.642 130.534 167.706 130.484C167.77 130.434 167.849 130.404 167.93 130.4C167.972 130.391 168.015 130.391 168.058 130.4C168.1 130.408 168.14 130.425 168.175 130.449C168.211 130.474 168.241 130.505 168.264 130.541C168.287 130.577 168.303 130.618 168.31 130.66C168.331 130.993 168.331 131.327 168.31 131.66C168.244 132.459 168.13 133.254 167.97 134.04C168.68 133.75 169.39 133.49 170.11 133.27C170.805 133.056 171.513 132.886 172.23 132.76C172.818 132.635 173.422 132.602 174.02 132.66C174.42 132.73 174.65 132.86 174.7 133.07C174.75 133.28 174.7 133.27 174.57 133.29C174.476 133.3 174.381 133.279 174.3 133.23C174.159 133.158 174.034 133.059 173.93 132.94C173.513 132.834 173.077 132.834 172.66 132.94C171.869 133.078 171.089 133.278 170.33 133.54C169.6 133.87 168.78 134.14 167.99 134.42ZM163.48 135C163.46 134.945 163.46 134.885 163.48 134.83C163.502 134.727 163.554 134.633 163.63 134.56C163.63 134.45 163.69 134.4 163.76 134.4C163.83 134.4 164.02 134.4 164.19 134.53C164.36 134.66 164.32 134.63 164.32 134.69C164.36 134.739 164.388 134.798 164.4 134.86C164.405 134.913 164.405 134.967 164.4 135.02C164.39 135.082 164.362 135.14 164.319 135.186C164.276 135.232 164.221 135.265 164.16 135.28C164.058 135.3 163.952 135.3 163.85 135.28C163.772 135.261 163.699 135.227 163.636 135.179C163.572 135.13 163.519 135.07 163.48 135ZM167.99 131.42C167.91 131.76 167.83 132.17 167.76 132.64C167.69 133.11 167.62 133.64 167.53 134.16C167.67 133.6 167.77 133.09 167.84 132.62C167.91 132.15 167.96 131.73 167.99 131.42Z" fill="white"/>
<path d="M172.02 138.04C171.695 138.132 171.353 138.149 171.02 138.09C170.966 138.243 170.922 138.4 170.89 138.56C170.856 138.745 170.833 138.932 170.82 139.12C170.795 139.302 170.795 139.488 170.82 139.67C170.852 139.841 170.924 140.002 171.03 140.14C171.056 140.19 171.097 140.232 171.147 140.259C171.197 140.285 171.254 140.296 171.31 140.29C171.638 140.3 171.963 140.221 172.25 140.06C172.613 139.873 172.964 139.663 173.3 139.43C173.824 139.081 174.316 138.686 174.77 138.25C175.098 137.943 175.399 137.608 175.67 137.25C175.67 137.25 175.76 137.25 175.89 137.25C176.02 137.25 176.07 137.35 176.05 137.39C175.787 137.752 175.489 138.087 175.16 138.39C174.72 138.835 174.242 139.24 173.73 139.6C173.385 139.842 173.016 140.05 172.63 140.22C172.316 140.365 171.976 140.447 171.63 140.46C171.438 140.471 171.247 140.435 171.072 140.355C170.898 140.275 170.746 140.153 170.63 140C170.426 139.708 170.327 139.355 170.35 139C170.361 138.596 170.442 138.197 170.59 137.82C170.731 137.435 170.938 137.076 171.2 136.76C171.437 136.463 171.757 136.244 172.12 136.13C172.283 136.089 172.451 136.069 172.62 136.07C172.783 136.075 172.944 136.116 173.09 136.19C173.155 136.214 173.214 136.253 173.262 136.304C173.311 136.354 173.347 136.415 173.368 136.481C173.389 136.548 173.395 136.618 173.385 136.687C173.375 136.756 173.349 136.822 173.31 136.88C173.186 137.138 172.996 137.358 172.76 137.52C172.54 137.729 172.291 137.904 172.02 138.04ZM171.14 137.86C171.295 137.86 171.45 137.84 171.6 137.8C171.879 137.699 172.142 137.558 172.38 137.38C172.605 137.217 172.79 137.005 172.92 136.76C172.974 136.722 173.011 136.664 173.024 136.599C173.037 136.534 173.025 136.466 172.99 136.41C172.99 136.36 172.91 136.35 172.79 136.41H172.56C172.241 136.52 171.956 136.71 171.73 136.96C171.487 137.227 171.288 137.531 171.14 137.86Z" fill="white"/>
<path d="M181.87 134.42C181.812 134.674 181.738 134.925 181.65 135.17C181.56 135.45 181.47 135.74 181.39 136.03C181.31 136.32 181.25 136.61 181.19 136.89C181.134 137.136 181.104 137.388 181.1 137.64C181.06 138.48 181.03 139.23 181.01 139.89C180.968 140.392 180.999 140.897 181.1 141.39C181.15 141.57 181.2 141.67 181.24 141.69C181.28 141.71 181.39 141.69 181.56 141.55C181.896 141.303 182.195 141.01 182.45 140.68C182.77 140.29 183.08 139.87 183.38 139.43C183.68 138.99 183.96 138.57 184.2 138.17C184.44 137.77 184.66 137.47 184.81 137.25C184.81 137.25 184.81 137.25 184.91 137.25C185.022 137.259 185.127 137.305 185.21 137.38C185.21 137.38 185.27 137.44 185.21 137.46C185.04 137.71 184.8 138.06 184.51 138.53C184.22 139 183.91 139.46 183.57 139.94C183.262 140.389 182.928 140.82 182.57 141.23C182.326 141.536 182.01 141.777 181.65 141.93C181.566 141.974 181.473 141.998 181.379 142.002C181.284 142.005 181.19 141.988 181.103 141.95C181.016 141.913 180.938 141.857 180.875 141.786C180.812 141.715 180.766 141.631 180.74 141.54C180.661 141.356 180.617 141.16 180.61 140.96C180.61 140.71 180.61 140.42 180.61 140.08C180.61 139.74 180.61 139.36 180.61 138.94C180.61 138.52 180.61 138.09 180.61 137.63C180.21 138.148 179.758 138.624 179.26 139.05C178.775 139.46 178.232 139.797 177.65 140.05C177.383 140.164 177.099 140.231 176.81 140.25C176.508 140.26 176.208 140.191 175.94 140.05C175.7 139.927 175.499 139.74 175.36 139.51C175.25 139.299 175.189 139.067 175.18 138.83C175.176 138.578 175.216 138.328 175.3 138.09C175.39 137.84 175.48 137.6 175.58 137.38L175.88 136.86C175.989 136.684 176.113 136.516 176.25 136.36C176.387 136.205 176.545 136.071 176.72 135.96C176.892 135.849 177.087 135.777 177.29 135.75C177.398 135.753 177.506 135.77 177.61 135.8C177.724 135.842 177.825 135.915 177.9 136.01C177.982 136.119 178.021 136.254 178.01 136.39C178.01 136.45 177.93 136.45 177.79 136.39C177.65 136.33 177.57 136.28 177.57 136.2C177.57 136.12 177.57 136.03 177.52 136.03C177.456 136.037 177.395 136.058 177.34 136.09C177.038 136.242 176.777 136.465 176.58 136.74C176.391 136.998 176.221 137.268 176.07 137.55C175.99 137.75 175.9 137.98 175.82 138.23C175.731 138.465 175.674 138.71 175.65 138.96C175.62 139.171 175.637 139.386 175.7 139.59C175.729 139.68 175.782 139.76 175.852 139.823C175.922 139.887 176.008 139.93 176.1 139.95C176.269 140.027 176.458 140.048 176.64 140.01C176.864 139.964 177.082 139.894 177.29 139.8C177.989 139.488 178.631 139.062 179.19 138.54C179.72 138.048 180.196 137.502 180.61 136.91C180.61 136.57 180.61 136.22 180.66 135.91C180.71 135.6 180.74 135.19 180.79 134.81C180.249 135.001 179.698 135.164 179.14 135.3C178.59 135.44 178.05 135.57 177.52 135.67C177.312 135.71 177.098 135.71 176.89 135.67C176.76 135.67 176.68 135.58 176.67 135.5C176.66 135.42 176.67 135.34 176.92 135.28C177.117 135.26 177.315 135.298 177.49 135.39H177.54C178.097 135.275 178.648 135.131 179.19 134.96C179.74 134.8 180.29 134.61 180.84 134.4C180.89 133.98 180.95 133.56 181.01 133.16C181.07 132.76 181.13 132.38 181.19 132.05C181.25 131.72 181.31 131.44 181.37 131.19L181.51 130.65C181.534 130.572 181.582 130.504 181.646 130.454C181.711 130.404 181.789 130.374 181.87 130.37C181.913 130.36 181.957 130.359 182.001 130.366C182.044 130.374 182.085 130.391 182.122 130.415C182.158 130.439 182.189 130.471 182.213 130.508C182.237 130.545 182.253 130.587 182.26 130.63C182.284 130.963 182.284 131.297 182.26 131.63C182.203 132.43 182.093 133.225 181.93 134.01C182.63 133.72 183.35 133.46 184.07 133.24C184.762 133.026 185.467 132.856 186.18 132.73C186.768 132.606 187.372 132.572 187.97 132.63C188.38 132.7 188.61 132.83 188.66 133.04C188.71 133.25 188.61 133.24 188.53 133.26C188.436 133.27 188.341 133.249 188.26 133.2C188.118 133.126 187.989 133.027 187.88 132.91C187.467 132.805 187.033 132.805 186.62 132.91C185.829 133.048 185.05 133.248 184.29 133.51C183.46 133.87 182.65 134.14 181.87 134.42ZM181.87 131.42C181.768 131.822 181.688 132.229 181.63 132.64C181.57 133.11 181.49 133.64 181.4 134.16C181.54 133.6 181.64 133.09 181.71 132.62C181.78 132.15 181.8 131.73 181.87 131.42Z" fill="white"/>
<path d="M184.8 137.25C184.8 137.25 184.8 137.25 184.86 137.25H185.02C185.08 137.259 185.138 137.28 185.19 137.31C185.24 137.31 185.26 137.37 185.26 137.4C185.279 137.737 185.245 138.074 185.16 138.4C185.09 138.73 185.09 139.07 185.16 139.4C185.16 139.64 185.29 139.69 185.44 139.55C185.688 139.319 185.91 139.061 186.1 138.78C186.33 138.46 186.55 138.12 186.76 137.78C186.97 137.44 187.14 137.08 187.3 136.78C187.46 136.48 187.57 136.18 187.66 135.96C187.66 135.96 187.66 135.96 187.74 135.96L187.89 136.01L188.03 136.09C188.03 136.09 188.1 136.09 188.1 136.15C188.042 136.293 187.995 136.44 187.96 136.59C187.909 136.771 187.869 136.955 187.84 137.14C187.84 137.34 187.78 137.52 187.75 137.7C187.72 137.88 187.7 138.03 187.69 138.16C187.69 138.51 187.61 138.88 187.56 139.25C187.5 139.604 187.5 139.966 187.56 140.32C187.56 140.47 187.67 140.52 187.77 140.46C187.912 140.373 188.035 140.257 188.13 140.12C188.335 139.868 188.526 139.604 188.7 139.33C188.9 139 189.09 138.69 189.26 138.39C189.43 138.09 189.63 137.73 189.86 137.3C189.86 137.3 189.95 137.3 190.09 137.3C190.23 137.3 190.29 137.41 190.27 137.47L190.02 137.93C189.91 138.15 189.78 138.4 189.62 138.67C189.46 138.94 189.31 139.22 189.13 139.5C188.974 139.759 188.804 140.01 188.62 140.25C188.414 140.567 188.102 140.801 187.74 140.91C187.45 140.97 187.26 140.74 187.18 140.22C187.11 139.811 187.09 139.394 187.12 138.98C187.12 138.56 187.2 138.16 187.25 137.78L186.87 138.4C186.697 138.685 186.507 138.959 186.3 139.22C186.125 139.453 185.903 139.647 185.65 139.79C185.547 139.852 185.427 139.878 185.308 139.866C185.189 139.853 185.077 139.802 184.99 139.72C184.889 139.643 184.808 139.543 184.754 139.428C184.7 139.313 184.675 139.187 184.68 139.06C184.675 138.744 184.709 138.428 184.78 138.12C184.836 137.833 184.843 137.539 184.8 137.25Z" fill="white"/>
<path d="M190.16 135.28C190.16 135.23 190.23 135.23 190.38 135.28C190.53 135.33 190.6 135.39 190.6 135.44C190.6 135.49 190.6 135.86 190.52 136.14C190.44 136.42 190.45 136.73 190.39 137.05L190.69 136.75L191.05 136.41C191.174 136.295 191.308 136.191 191.45 136.1C191.574 136.022 191.704 135.955 191.84 135.9C191.978 135.87 192.122 135.87 192.26 135.9C192.44 135.9 192.53 136 192.53 136.12C192.62 136.55 192.68 136.86 192.71 137.12C192.737 137.299 192.809 137.467 192.92 137.61C192.92 137.61 193.05 137.61 193.2 137.61C193.462 137.541 193.709 137.426 193.93 137.27C193.981 137.258 194.035 137.257 194.086 137.268C194.138 137.278 194.187 137.299 194.23 137.33C194.37 137.41 194.42 137.46 194.36 137.49C194.03 137.756 193.613 137.888 193.19 137.86C192.916 137.815 192.665 137.678 192.48 137.47C192.351 137.283 192.259 137.072 192.21 136.85C192.156 136.641 192.126 136.426 192.12 136.21C191.942 136.298 191.775 136.406 191.62 136.53C191.44 136.67 191.26 136.82 191.09 136.98C190.92 137.14 190.76 137.31 190.61 137.48C190.46 137.65 190.35 137.8 190.26 137.93C190.18 138.53 190.1 139.12 190.02 139.68C189.95 140.13 189.91 140.584 189.9 141.04C189.9 141.1 189.83 141.1 189.69 141.04C189.55 140.98 189.47 140.93 189.47 140.85C189.47 139.912 189.55 138.975 189.71 138.05C189.87 137.11 190.02 136.2 190.16 135.28Z" fill="white"/>
<path d="M196.53 136.06C196.53 136.06 196.53 136.06 196.61 136.06L196.77 136.11C196.828 136.13 196.882 136.161 196.93 136.2C196.957 136.216 196.978 136.241 196.99 136.27L196.79 137.62C196.79 138 196.68 138.38 196.62 138.76C196.56 139.14 196.52 139.47 196.5 139.76C196.469 139.955 196.469 140.155 196.5 140.35C196.5 140.47 196.56 140.53 196.68 140.53C196.797 140.514 196.908 140.465 197 140.39L197.48 140.02C197.743 139.808 197.987 139.574 198.21 139.32C198.46 139.04 198.69 138.76 198.91 138.49L199.48 137.74C199.64 137.51 199.75 137.36 199.8 137.27C199.85 137.18 199.92 137.27 200.06 137.27C200.2 137.27 200.24 137.39 200.21 137.44L199.85 137.9L199.26 138.63C199.03 138.89 198.8 139.16 198.55 139.43C198.324 139.684 198.076 139.918 197.81 140.13C197.68 140.239 197.543 140.34 197.4 140.43C197.258 140.518 197.103 140.583 196.94 140.62C196.796 140.66 196.644 140.66 196.5 140.62C196.423 140.599 196.352 140.562 196.29 140.512C196.228 140.463 196.177 140.4 196.14 140.33C196.043 140.082 196.005 139.815 196.03 139.55C196.03 139.29 196.07 138.99 196.15 138.65C196.21 138.31 196.26 137.97 196.29 137.65C196.1 137.9 195.91 138.14 195.7 138.37C195.489 138.612 195.266 138.843 195.03 139.06C194.821 139.29 194.538 139.438 194.23 139.48C194.124 139.488 194.017 139.472 193.918 139.432C193.819 139.392 193.731 139.33 193.66 139.25C193.538 139.085 193.475 138.885 193.48 138.68C193.492 138.422 193.536 138.167 193.61 137.92C193.699 137.621 193.819 137.333 193.97 137.06C194.12 136.797 194.325 136.569 194.57 136.39C194.686 136.303 194.818 136.24 194.959 136.206C195.1 136.171 195.247 136.166 195.39 136.19C195.578 136.22 195.763 136.27 195.94 136.34C196.12 136.417 196.291 136.514 196.45 136.63C196.45 136.53 196.45 136.43 196.45 136.33C196.45 136.23 196.53 136.16 196.53 136.06ZM196.3 136.92C196.285 136.829 196.245 136.743 196.185 136.673C196.125 136.602 196.048 136.55 195.96 136.52C195.813 136.43 195.641 136.391 195.47 136.41C195.227 136.466 195.007 136.595 194.84 136.78C194.637 136.989 194.468 137.228 194.34 137.49C194.205 137.738 194.098 137.999 194.02 138.27C193.948 138.465 193.918 138.673 193.93 138.88C193.933 138.942 193.952 139.002 193.985 139.055C194.019 139.108 194.065 139.151 194.12 139.18C194.21 139.18 194.39 139.11 194.65 138.86C194.96 138.563 195.251 138.245 195.52 137.91C195.8 137.57 196.06 137.24 196.3 136.92Z" fill="white"/>
<path d="M208.77 136.25C208.77 136.46 208.77 136.85 208.77 137.43C208.77 138.01 208.7 138.7 208.63 139.43C208.99 139.183 209.36 138.943 209.74 138.71C210.137 138.46 210.551 138.24 210.98 138.05C211.023 138.028 211.071 138.017 211.12 138.017C211.169 138.017 211.217 138.028 211.26 138.05C211.38 138.12 211.42 138.16 211.39 138.19C210.883 138.445 210.389 138.725 209.91 139.03C209.461 139.318 209.027 139.628 208.61 139.96C208.55 141.55 208.48 143.13 208.37 144.72C208.327 145.99 208.098 147.247 207.69 148.45C207.457 149.174 207.056 149.832 206.52 150.37C206.342 150.529 206.128 150.644 205.897 150.705C205.666 150.766 205.424 150.771 205.19 150.72C204.969 150.678 204.758 150.591 204.571 150.466C204.384 150.34 204.223 150.179 204.1 149.99C203.767 149.507 203.582 148.937 203.57 148.35C203.533 147.487 203.676 146.625 203.99 145.82C204.392 144.666 204.943 143.57 205.63 142.56C206.34 141.511 207.195 140.569 208.17 139.76C208.17 139.24 208.23 138.76 208.26 138.29C208.29 137.82 208.31 137.42 208.35 137.07C208.048 137.628 207.686 138.151 207.27 138.63C207.052 138.898 206.808 139.143 206.54 139.36C206.364 139.525 206.139 139.627 205.9 139.65C205.718 139.657 205.54 139.602 205.393 139.495C205.246 139.388 205.139 139.235 205.09 139.06C204.974 138.664 204.926 138.252 204.95 137.84C204.942 137.71 204.942 137.58 204.95 137.45C204.95 137.3 204.95 137.14 205 136.98C205.05 136.82 205 136.66 205 136.52C205.016 136.401 205.016 136.279 205 136.16C205 136.16 205.05 136.16 205.19 136.16C205.33 136.16 205.42 136.27 205.44 136.34C205.46 136.41 205.44 136.68 205.44 137C205.44 137.32 205.44 137.66 205.37 138C205.348 138.333 205.348 138.667 205.37 139C205.37 139.27 205.45 139.41 205.55 139.41C205.763 139.387 205.963 139.295 206.12 139.15C206.374 138.938 206.606 138.7 206.81 138.44C207.115 138.084 207.389 137.702 207.63 137.3C207.88 136.879 208.107 136.445 208.31 136C208.31 136 208.41 136 208.55 136C208.69 136 208.77 136.21 208.77 136.25ZM208.1 140.44C207.244 141.221 206.491 142.108 205.86 143.08C205.252 144.018 204.758 145.025 204.39 146.08C204.107 146.879 203.971 147.723 203.99 148.57C203.986 149.143 204.153 149.703 204.47 150.18C204.542 150.312 204.65 150.421 204.78 150.495C204.911 150.569 205.06 150.606 205.21 150.6C205.509 150.564 205.789 150.434 206.01 150.23C206.562 149.706 206.974 149.053 207.21 148.33C207.615 147.137 207.838 145.89 207.87 144.63C207.94 143.92 207.99 143.22 208.01 142.53L208.1 140.44Z" fill="white"/>
<path d="M217.87 130.73C217.929 130.753 217.984 130.787 218.03 130.83C218.08 130.83 218.09 130.89 218.03 130.91C217.97 130.93 218.03 130.91 217.94 130.91C217.883 130.909 217.827 130.892 217.78 130.86C217.11 130.57 216.78 130.17 216.71 129.67C216.702 129.392 216.765 129.117 216.893 128.871C217.021 128.624 217.209 128.414 217.44 128.26C217.745 128.027 218.082 127.839 218.44 127.7C218.877 127.541 219.335 127.446 219.8 127.42C220.583 127.371 221.369 127.462 222.12 127.69C222.784 127.899 223.409 128.217 223.97 128.63C224.519 129.029 225.001 129.511 225.4 130.06C226.212 131.149 226.788 132.396 227.09 133.72C227.242 134.342 227.356 134.974 227.43 135.61C227.476 136.243 227.476 136.877 227.43 137.51C227.399 138.21 227.308 138.905 227.16 139.59C227.014 140.276 226.8 140.946 226.52 141.59C226.239 142.234 225.876 142.839 225.44 143.39C224.995 143.925 224.46 144.378 223.86 144.73C223.211 145.105 222.487 145.334 221.74 145.4C221.065 145.495 220.376 145.416 219.74 145.17C219.234 144.976 218.781 144.664 218.42 144.26C218.15 143.945 217.973 143.56 217.91 143.15C217.873 142.805 217.939 142.457 218.1 142.15C218.276 141.802 218.546 141.511 218.88 141.31C219.272 141.059 219.711 140.893 220.17 140.82C220.282 140.815 220.392 140.851 220.48 140.92C220.6 141 220.63 141.05 220.56 141.07C220.12 141.137 219.698 141.294 219.32 141.53C219.001 141.725 218.736 141.996 218.55 142.32C218.378 142.623 218.304 142.973 218.34 143.32C218.392 143.718 218.563 144.091 218.83 144.39C219.114 144.677 219.454 144.902 219.83 145.05C220.325 145.232 220.859 145.284 221.38 145.2C222.115 145.128 222.827 144.903 223.47 144.54C224.063 144.194 224.588 143.744 225.02 143.21C225.439 142.658 225.775 142.048 226.02 141.4C226.298 140.739 226.509 140.053 226.65 139.35C226.795 138.671 226.889 137.983 226.93 137.29C226.971 136.664 226.971 136.036 226.93 135.41C226.872 134.833 226.772 134.262 226.63 133.7C226.486 133.084 226.289 132.482 226.04 131.9C225.79 131.316 225.486 130.757 225.13 130.23C224.77 129.709 224.339 129.241 223.85 128.84C223.355 128.436 222.793 128.121 222.19 127.91C221.517 127.685 220.808 127.59 220.1 127.63C219.645 127.646 219.195 127.737 218.77 127.9C218.409 128.046 218.072 128.245 217.77 128.49C217.584 128.643 217.426 128.825 217.3 129.03C217.174 129.212 217.092 129.421 217.06 129.64C217.036 129.848 217.078 130.057 217.18 130.24C217.338 130.487 217.585 130.662 217.87 130.73ZM218.77 128.61C218.77 128.54 218.77 128.53 218.94 128.61C219.051 128.637 219.147 128.705 219.21 128.8C219.274 129.228 219.274 129.662 219.21 130.09C219.13 130.83 219.02 131.77 218.89 132.9C218.78 133.74 218.67 134.65 218.55 135.63C218.43 136.61 218.32 137.63 218.22 138.63C218.12 139.63 218.03 140.63 217.96 141.58C217.89 142.53 217.86 143.42 217.87 144.21C217.87 144.879 217.917 145.547 218.01 146.21C218.041 146.641 218.201 147.052 218.47 147.39C218.53 147.48 218.47 147.51 218.35 147.48C218.237 147.465 218.13 147.42 218.04 147.35C217.762 147.009 217.598 146.589 217.57 146.15C217.481 145.457 217.434 144.759 217.43 144.06C217.43 143.25 217.43 142.37 217.52 141.4C217.61 140.43 217.67 139.46 217.78 138.45C217.89 137.44 217.99 136.45 218.11 135.45C218.23 134.45 218.35 133.54 218.45 132.7C218.59 131.57 218.69 130.63 218.77 129.89C218.844 129.471 218.854 129.042 218.8 128.62L218.77 128.61Z" fill="white"/>
<path d="M228.05 136.08C228.05 136.08 228.05 136.08 228.12 136.08L228.26 136.14L228.4 136.23C228.4 136.23 228.47 136.23 228.47 136.29C228.38 136.88 228.29 137.46 228.19 138.04C228.09 138.62 228.03 139.19 227.98 139.78C227.953 139.966 227.953 140.154 227.98 140.34C227.98 140.45 228.06 140.51 228.13 140.51C228.242 140.495 228.346 140.446 228.43 140.37C228.55 140.29 228.7 140.17 228.89 140.02C229.155 139.792 229.405 139.549 229.64 139.29L230.38 138.48C230.61 138.21 230.81 137.97 230.97 137.75L231.32 137.29C231.32 137.29 231.32 137.29 231.41 137.29C231.456 137.282 231.504 137.282 231.55 137.29C231.599 137.311 231.643 137.341 231.68 137.38C231.68 137.38 231.68 137.44 231.68 137.46C231.68 137.48 231.5 137.7 231.34 137.92C231.18 138.14 230.98 138.39 230.76 138.66C230.54 138.93 230.29 139.2 230.03 139.47C229.799 139.725 229.551 139.966 229.29 140.19C228.74 140.63 228.29 140.79 227.96 140.66C227.63 140.53 227.47 140.17 227.51 139.55C227.55 138.93 227.64 138.4 227.74 137.82C227.84 137.24 227.97 136.65 228.05 136.08ZM227.95 135.37C227.938 135.345 227.931 135.318 227.931 135.29C227.931 135.262 227.938 135.235 227.95 135.21C227.971 135.106 228.02 135.01 228.09 134.93C228.09 134.83 228.15 134.78 228.22 134.78C228.29 134.78 228.49 134.78 228.66 134.91C228.83 135.04 228.79 135 228.79 135.06C228.824 135.116 228.851 135.177 228.87 135.24C228.87 135.31 228.87 135.36 228.87 135.39C228.864 135.453 228.838 135.513 228.797 135.561C228.756 135.609 228.701 135.644 228.64 135.66H228.33C228.17 135.617 228.034 135.513 227.95 135.37Z" fill="white"/>
<path d="M232.62 136.96C232.62 136.96 232.55 136.96 232.41 136.96C232.27 136.96 232.2 136.85 232.2 136.79C232.212 136.538 232.161 136.287 232.05 136.06C231.98 135.92 231.92 135.86 231.88 135.9C231.819 135.959 231.762 136.023 231.71 136.09C231.642 136.306 231.618 136.534 231.64 136.76C231.652 136.993 231.689 137.225 231.75 137.45C231.81 137.685 231.887 137.916 231.98 138.14L232.28 138.78C232.56 138.56 232.83 138.32 233.11 138.08C233.374 137.845 233.606 137.576 233.8 137.28C233.8 137.28 233.8 137.28 233.89 137.28H234.02L234.14 137.37C234.14 137.37 234.14 137.43 234.14 137.45C233.924 137.78 233.665 138.079 233.37 138.34C233.08 138.6 232.76 138.85 232.37 139.1C232.52 139.45 232.68 139.86 232.84 140.3C232.995 140.69 233.044 141.115 232.98 141.53C232.922 141.953 232.753 142.353 232.49 142.69C232.284 142.951 232.006 143.146 231.69 143.25C231.425 143.336 231.143 143.354 230.87 143.3C230.611 143.26 230.369 143.15 230.17 142.98C229.985 142.832 229.852 142.629 229.79 142.4C229.715 142.115 229.715 141.815 229.79 141.53C229.95 140.962 230.249 140.443 230.66 140.02C231.046 139.623 231.464 139.258 231.91 138.93L231.6 138.23C231.478 137.964 231.374 137.69 231.29 137.41C231.203 137.15 231.142 136.882 231.11 136.61C231.053 136.377 231.053 136.133 231.11 135.9C231.136 135.804 231.194 135.72 231.274 135.66C231.353 135.6 231.45 135.569 231.55 135.57C231.755 135.597 231.945 135.692 232.09 135.84C232.214 135.943 232.307 136.078 232.36 136.23C232.496 136.453 232.585 136.701 232.62 136.96ZM232.15 139.34C231.757 139.651 231.383 139.985 231.03 140.34C230.663 140.717 230.392 141.177 230.24 141.68C230.145 141.959 230.145 142.261 230.24 142.54C230.306 142.738 230.416 142.919 230.56 143.07C230.676 143.154 230.818 143.193 230.96 143.18C231.097 143.167 231.231 143.137 231.36 143.09C231.669 142.974 231.942 142.777 232.15 142.52C232.403 142.198 232.569 141.815 232.63 141.41C232.681 141.074 232.65 140.731 232.54 140.41C232.4 139.97 232.27 139.64 232.15 139.34Z" fill="white"/>
<path d="M234.87 138.04C234.545 138.132 234.203 138.149 233.87 138.09C233.815 138.242 233.774 138.4 233.75 138.56C233.713 138.745 233.686 138.932 233.67 139.12C233.645 139.302 233.645 139.488 233.67 139.67C233.707 139.839 233.778 139.999 233.88 140.14C233.907 140.19 233.948 140.23 233.998 140.257C234.047 140.283 234.104 140.295 234.16 140.29C234.488 140.301 234.814 140.222 235.1 140.06C235.465 139.875 235.815 139.665 236.15 139.43C236.674 139.081 237.166 138.686 237.62 138.25C237.951 137.946 238.252 137.611 238.52 137.25C238.52 137.25 238.61 137.25 238.74 137.25C238.87 137.25 238.92 137.35 238.91 137.39C238.644 137.749 238.346 138.084 238.02 138.39C237.576 138.83 237.098 139.235 236.59 139.6C236.243 139.845 235.871 140.052 235.48 140.22C235.166 140.365 234.826 140.447 234.48 140.46C234.288 140.471 234.097 140.435 233.923 140.355C233.748 140.275 233.596 140.153 233.48 140C233.275 139.709 233.179 139.355 233.21 139C233.218 138.596 233.295 138.197 233.44 137.82C233.585 137.434 233.795 137.076 234.06 136.76C234.291 136.462 234.609 136.242 234.97 136.13C235.137 136.088 235.308 136.068 235.48 136.07C235.64 136.075 235.797 136.116 235.94 136.19C236.005 136.214 236.064 136.253 236.113 136.304C236.161 136.354 236.197 136.415 236.218 136.481C236.239 136.548 236.245 136.618 236.235 136.687C236.225 136.756 236.199 136.822 236.16 136.88C236.04 137.137 235.853 137.358 235.62 137.52C235.395 137.727 235.143 137.902 234.87 138.04ZM233.99 137.86C234.149 137.86 234.306 137.84 234.46 137.8C234.735 137.697 234.995 137.556 235.23 137.38C235.46 137.223 235.646 137.01 235.77 136.76C235.89 136.64 235.92 136.53 235.85 136.41C235.78 136.29 235.76 136.35 235.64 136.41H235.41C235.091 136.52 234.806 136.71 234.58 136.96C234.337 137.229 234.135 137.532 233.98 137.86H233.99Z" fill="white"/>
<path d="M239.03 137.2L238.72 139.1C238.84 138.88 238.99 138.64 239.15 138.38C239.31 138.12 239.49 137.87 239.67 137.61C239.85 137.35 240.03 137.11 240.23 136.87C240.418 136.649 240.622 136.442 240.84 136.25C240.954 136.135 241.095 136.049 241.25 136C241.405 135.951 241.57 135.941 241.73 135.97C241.875 135.994 242.006 136.071 242.098 136.185C242.19 136.299 242.237 136.443 242.23 136.59C242.253 136.839 242.253 137.091 242.23 137.34C242.23 137.63 242.23 137.95 242.23 138.28C242.22 138.47 242.22 138.66 242.23 138.85V139.39C242.23 139.917 242.27 140.187 242.35 140.2C242.43 140.2 242.64 139.98 242.98 139.5C243.17 139.22 243.39 138.88 243.64 138.5L244.43 137.26C244.43 137.2 244.53 137.2 244.63 137.26C244.73 137.32 244.79 137.39 244.79 137.45C244.51 137.89 244.26 138.3 244.04 138.68C243.82 139.06 243.61 139.4 243.42 139.68C242.92 140.41 242.53 140.68 242.23 140.58C241.93 140.48 241.8 139.98 241.8 139.17V138.65C241.79 138.463 241.79 138.277 241.8 138.09C241.8 137.79 241.8 137.51 241.8 137.25C241.8 136.99 241.8 136.75 241.8 136.54C241.8 136.33 241.8 136.22 241.69 136.19C241.58 136.16 241.48 136.24 241.26 136.43C240.977 136.667 240.724 136.939 240.51 137.24C240.23 137.6 239.96 137.98 239.7 138.37C239.44 138.76 239.19 139.16 238.98 139.53C238.808 139.817 238.654 140.114 238.52 140.42C238.52 140.5 238.43 140.5 238.29 140.42C238.15 140.34 238.09 140.29 238.09 140.23C238.09 139.83 238.18 139.38 238.25 138.87C238.32 138.36 238.43 137.76 238.55 137.05C238.636 137.04 238.723 137.048 238.806 137.074C238.889 137.1 238.965 137.143 239.03 137.2Z" fill="white"/>
<path d="M244.4 137.25C244.4 137.25 244.4 137.25 244.5 137.25L244.63 137.3C244.588 137.087 244.627 136.866 244.74 136.68C244.859 136.503 245.021 136.359 245.21 136.26C245.413 136.158 245.634 136.094 245.86 136.07C246.101 136.025 246.349 136.025 246.59 136.07C246.879 136.173 247.144 136.332 247.37 136.54C247.558 136.72 247.699 136.943 247.78 137.19C247.861 137.428 247.898 137.679 247.89 137.93C247.88 138.187 247.84 138.442 247.77 138.69C248.133 138.531 248.47 138.318 248.77 138.06C249.055 137.808 249.313 137.526 249.54 137.22C249.54 137.22 249.54 137.22 249.63 137.22L249.77 137.28L249.9 137.38C249.9 137.38 249.9 137.45 249.9 137.46C249.604 137.829 249.269 138.164 248.9 138.46C248.527 138.772 248.079 138.979 247.6 139.06C247.458 139.341 247.272 139.597 247.05 139.82C246.812 140.067 246.531 140.267 246.22 140.41C245.937 140.547 245.624 140.609 245.31 140.59C245.142 140.575 244.98 140.517 244.84 140.423C244.701 140.328 244.587 140.2 244.51 140.05C244.397 139.859 244.319 139.649 244.28 139.43C244.229 139.176 244.199 138.919 244.19 138.66C244.165 138.401 244.165 138.139 244.19 137.88C244.237 137.663 244.308 137.452 244.4 137.25ZM244.78 137.64C244.78 137.82 244.72 138.02 244.69 138.25C244.675 138.483 244.675 138.717 244.69 138.95C244.69 139.18 244.72 139.408 244.78 139.63C244.822 139.826 244.9 140.012 245.01 140.18C245.064 140.267 245.145 140.334 245.24 140.372C245.336 140.41 245.441 140.416 245.54 140.39C245.773 140.329 245.991 140.22 246.18 140.07C246.394 139.914 246.589 139.733 246.76 139.53C246.881 139.393 246.994 139.249 247.1 139.1C246.851 139.087 246.606 139.04 246.37 138.96C246.131 138.877 245.9 138.773 245.68 138.65C245.468 138.534 245.276 138.385 245.11 138.21C244.954 138.051 244.84 137.855 244.78 137.64ZM247.21 138.86C247.27 138.67 247.34 138.44 247.4 138.18C247.46 137.935 247.48 137.682 247.46 137.43C247.449 137.194 247.38 136.964 247.26 136.76C247.131 136.548 246.928 136.391 246.69 136.32C246.43 136.26 246.16 136.26 245.9 136.32C245.646 136.374 245.417 136.511 245.25 136.71C245.153 136.814 245.083 136.941 245.046 137.079C245.01 137.217 245.008 137.361 245.04 137.5C245.112 137.775 245.265 138.023 245.48 138.21C245.716 138.423 245.991 138.59 246.29 138.7C246.579 138.829 246.895 138.884 247.21 138.86Z" fill="white"/>
<path d="M95.84 15.6V46.81L122.7 62.88V31.31L95.84 15.6Z" fill="#1D1D1B"/>
<path d="M123.43 0L95.84 15.6L122.7 31.31L150.2 15.6L123.43 0Z" fill="#E20613"/>
<path d="M150.2 15.6V47.11L122.7 62.88V31.31L150.2 15.6Z" fill="white"/>
<path d="M238.65 134.21C238.972 134.262 239.301 134.234 239.609 134.129C239.918 134.025 240.196 133.847 240.42 133.61C241.42 132.77 241.42 132.95 242.42 133.61" stroke="white" stroke-width="0.65" stroke-miterlimit="10"/>
</g>
<defs>
<clipPath id="clip0">
<rect width="249.92" height="150.85" fill="white"/>
</clipPath>
</defs>
</svg>
