<svg width="45" height="45" viewBox="0 0 45 45" fill="none" xmlns="http://www.w3.org/2000/svg">
<path d="M43.8662 19.0106L39.5432 10.732C39.2424 10.1622 38.7311 9.73235 38.1182 9.53395C37.5052 9.33554 36.839 9.38426 36.2614 9.66972L32.0947 11.7529H29.0556L23.1863 9.0972C22.651 8.85525 22.0469 8.81255 21.4829 8.97679L12.7955 11.5096L8.73879 9.48146C8.16121 9.19596 7.49501 9.14719 6.88201 9.34552C6.26902 9.54386 5.75765 9.97363 5.45678 10.5434L1.13379 18.8223C0.982526 19.112 0.890484 19.4289 0.863035 19.7546C0.835586 20.0803 0.873279 20.4081 0.973915 20.7191C1.07455 21.03 1.23611 21.3178 1.44917 21.5656C1.66223 21.8134 1.92252 22.0164 2.21484 22.1625L6.46523 24.2877L15.9901 31.7357C16.2614 31.9484 16.5746 32.1014 16.9091 32.1847L27.0969 34.7316C27.2903 34.7798 27.489 34.8041 27.6884 34.804C28.3425 34.804 28.9701 34.5453 29.434 34.0842L35.9023 27.6159C35.9075 27.6107 35.9121 27.6052 35.917 27.5999C35.9238 27.5928 35.9305 27.5855 35.9371 27.5781C35.9441 27.5706 35.9513 27.5634 35.9582 27.5553L38.6316 24.4278L42.7855 22.3508C43.0778 22.2046 43.3381 22.0017 43.5511 21.7539C43.7642 21.506 43.9257 21.2182 44.0263 20.9073C44.127 20.5964 44.1646 20.2685 44.1372 19.9428C44.1097 19.6172 44.0177 19.3003 43.8664 19.0106H43.8662ZM34.988 25.4438L28.0422 20.3922C27.8598 20.2596 27.6396 20.1889 27.4141 20.1906C27.1886 20.1922 26.9695 20.2662 26.7891 20.4015L24.5391 22.089C23.7464 22.6787 22.7848 22.9972 21.7969 22.9972C20.8089 22.9972 19.8473 22.6787 19.0547 22.089L18.1018 21.3743C18.0615 21.344 18.0283 21.3055 18.0042 21.2613C17.9801 21.217 17.9658 21.1682 17.9623 21.118C17.9587 21.0677 17.9659 21.0173 17.9835 20.9702C18.0011 20.923 18.0286 20.8801 18.0642 20.8445L24.9432 13.9653C25.0093 13.8996 25.0986 13.8626 25.1917 13.8623H28.8225L28.8274 13.8626L28.8309 13.8623H31.7046L36.704 23.4364L34.988 25.4438ZM2.98072 20.0695C2.96624 20.0251 2.9608 19.9782 2.96473 19.9317C2.96865 19.8852 2.98186 19.8399 3.00357 19.7986L7.32656 11.5198C7.3566 11.4629 7.40163 11.4152 7.45677 11.382C7.51191 11.3488 7.57508 11.3313 7.63945 11.3314C7.69358 11.3313 7.74698 11.3439 7.79537 11.3681L11.2243 13.0825L6.57598 21.985L3.15809 20.2758C3.11625 20.255 3.07901 20.2261 3.04854 20.1907C3.01808 20.1553 2.99502 20.1141 2.98072 20.0696V20.0695ZM27.9425 32.5925C27.8995 32.6353 27.8461 32.6663 27.7876 32.6825C27.729 32.6987 27.6673 32.6995 27.6084 32.6849L17.4204 30.138C17.3727 30.1262 17.328 30.1044 17.2893 30.0741L8.37246 23.1015L13.3648 13.5408L22.0734 11.0018C22.154 10.9784 22.2403 10.9845 22.3168 11.019L24.3058 11.919C23.9855 12.0421 23.6945 12.2311 23.4519 12.4738L16.5727 19.353C16.3233 19.6023 16.1305 19.9023 16.0072 20.2326C15.8839 20.563 15.833 20.9159 15.858 21.2676C15.883 21.6194 15.9833 21.9616 16.1521 22.2712C16.3209 22.5807 16.5542 22.8504 16.8363 23.062L17.7891 23.7763C18.9475 24.6383 20.3529 25.1039 21.7969 25.1039C23.2408 25.1039 24.6463 24.6383 25.8047 23.7763L27.4315 22.5564L33.5377 26.9972L27.9425 32.5925ZM42.0193 20.2579C42.005 20.3024 41.9819 20.3435 41.9515 20.3789C41.921 20.4144 41.8837 20.4433 41.8419 20.4641L38.424 22.1732L33.7757 13.2709L37.2046 11.5564C37.2871 11.5156 37.3823 11.5086 37.4699 11.537C37.5575 11.5653 37.6305 11.6268 37.6734 11.7083L41.9964 19.9868C42.0181 20.0282 42.0314 20.0735 42.0353 20.1201C42.0392 20.1666 42.0338 20.2135 42.0193 20.2579ZM20.7107 37.6727C20.6772 37.8071 20.6175 37.9336 20.5351 38.045C20.4526 38.1563 20.3491 38.2503 20.2303 38.3216C20.1115 38.3929 19.9799 38.4401 19.8428 38.4604C19.7058 38.4808 19.5661 38.474 19.4317 38.4404L14.1337 37.1159C13.7576 37.0212 13.409 36.8395 13.1159 36.5855L9.1517 33.1397C9.04627 33.0491 8.95979 32.9385 8.89723 32.8144C8.83468 32.6902 8.79728 32.555 8.78719 32.4163C8.7771 32.2777 8.79452 32.1384 8.83845 32.0065C8.88238 31.8746 8.95194 31.7527 9.04315 31.6478C9.13435 31.5429 9.2454 31.457 9.3699 31.3952C9.49439 31.3334 9.62989 31.2967 9.76859 31.2874C9.90729 31.2782 10.0465 31.2964 10.1781 31.3411C10.3097 31.3857 10.4312 31.456 10.5356 31.5478L14.5 34.9936C14.5421 35.0301 14.5921 35.0562 14.6461 35.0698L19.9433 36.3937C20.2146 36.4616 20.4479 36.6345 20.5918 36.8743C20.7357 37.1142 20.7785 37.4014 20.7107 37.6727Z" fill="white"/>
</svg>
