<svg width="52" height="52" viewBox="0 0 52 52" fill="none" xmlns="http://www.w3.org/2000/svg">
<path d="M48.75 25.8579C48.75 25.7461 48.75 25.6192 48.7449 25.4719C48.7398 25.0606 48.7297 24.5985 48.7195 24.1059C48.6789 22.6891 48.6078 21.2774 48.4961 19.9469C48.3438 18.1137 48.1203 16.5852 47.8156 15.4375C47.4941 14.2399 46.8638 13.1476 45.9879 12.2698C45.1119 11.392 44.0208 10.7596 42.8238 10.4356C41.3867 10.0497 38.5734 9.81099 34.6125 9.66372C32.7285 9.59263 30.7125 9.54692 28.6965 9.52153C27.9906 9.51138 27.3355 9.5063 26.7465 9.50122H25.2535C24.6645 9.5063 24.0094 9.51138 23.3035 9.52153C21.2875 9.54692 19.2715 9.59263 17.3875 9.66372C13.4266 9.81606 10.6082 10.0547 9.17617 10.4356C7.97875 10.7588 6.88731 11.391 6.0112 12.2689C5.1351 13.1467 4.50511 14.2395 4.18438 15.4375C3.87461 16.5852 3.65625 18.1137 3.50391 19.9469C3.39219 21.2774 3.32109 22.6891 3.28047 24.1059C3.26523 24.5985 3.26016 25.0606 3.25508 25.4719C3.25508 25.6192 3.25 25.7461 3.25 25.8579V26.1422C3.25 26.254 3.25 26.3809 3.25508 26.5282C3.26016 26.9395 3.27031 27.4016 3.28047 27.8942C3.32109 29.311 3.39219 30.7227 3.50391 32.0532C3.65625 33.8864 3.87969 35.4149 4.18438 36.5625C4.83438 38.995 6.74375 40.9145 9.17617 41.5645C10.6082 41.9504 13.4266 42.1891 17.3875 42.3364C19.2715 42.4075 21.2875 42.4532 23.3035 42.4786C24.0094 42.4887 24.6645 42.4938 25.2535 42.4989H26.7465C27.3355 42.4938 27.9906 42.4887 28.6965 42.4786C30.7125 42.4532 32.7285 42.4075 34.6125 42.3364C38.5734 42.184 41.3918 41.9454 42.8238 41.5645C45.2562 40.9145 47.1656 39 47.8156 36.5625C48.1254 35.4149 48.3438 33.8864 48.4961 32.0532C48.6078 30.7227 48.6789 29.311 48.7195 27.8942C48.7348 27.4016 48.7398 26.9395 48.7449 26.5282C48.7449 26.3809 48.75 26.254 48.75 26.1422V25.8579ZM45.0938 26.1219C45.0938 26.2286 45.0938 26.3454 45.0887 26.4825C45.0836 26.8786 45.0734 27.3153 45.0633 27.7875C45.0277 29.1383 44.9566 30.4891 44.85 31.7434C44.7129 33.3786 44.5199 34.7192 44.2812 35.618C43.9664 36.7911 43.0422 37.7204 41.8742 38.0301C40.8078 38.3145 38.1215 38.543 34.4703 38.6801C32.6219 38.7512 30.6312 38.7969 28.6457 38.8223C27.95 38.8325 27.3051 38.8375 26.7262 38.8375H25.2738L23.3543 38.8223C21.3687 38.7969 19.3832 38.7512 17.5297 38.6801C13.8785 38.5379 11.1871 38.3145 10.1258 38.0301C8.95781 37.7153 8.03359 36.7911 7.71875 35.618C7.48008 34.7192 7.28711 33.3786 7.15 31.7434C7.04336 30.4891 6.97734 29.1383 6.93672 27.7875C6.92148 27.3153 6.91641 26.8735 6.91133 26.4825C6.91133 26.3454 6.90625 26.2235 6.90625 26.1219V25.8782C6.90625 25.7715 6.90625 25.6547 6.91133 25.5176C6.91641 25.1215 6.92656 24.6848 6.93672 24.2125C6.97227 22.8618 7.04336 21.511 7.15 20.2567C7.28711 18.6215 7.48008 17.2809 7.71875 16.3821C8.03359 15.209 8.95781 14.2797 10.1258 13.97C11.1922 13.6856 13.8785 13.4571 17.5297 13.32C19.3781 13.2489 21.3687 13.2032 23.3543 13.1778C24.05 13.1676 24.6949 13.1625 25.2738 13.1625H26.7262L28.6457 13.1778C30.6312 13.2032 32.6168 13.2489 34.4703 13.32C38.1215 13.4622 40.8129 13.6856 41.8742 13.97C43.0422 14.2848 43.9664 15.209 44.2812 16.3821C44.5199 17.2809 44.7129 18.6215 44.85 20.2567C44.9566 21.511 45.0227 22.8618 45.0633 24.2125C45.0785 24.6848 45.0836 25.1266 45.0887 25.5176C45.0887 25.6547 45.0938 25.7766 45.0938 25.8782V26.1219ZM21.4805 32.8047L33.2617 25.9493L21.4805 19.1954V32.8047Z" fill="white"/>
</svg>
